<?xml version="1.0" encoding="UTF-8" standalone="no"?>
<!-- Created with Inkscape (http://www.inkscape.org/) -->

<svg
   xmlns:dc="http://purl.org/dc/elements/1.1/"
   xmlns:cc="http://creativecommons.org/ns#"
   xmlns:rdf="http://www.w3.org/1999/02/22-rdf-syntax-ns#"
   xmlns:svg="http://www.w3.org/2000/svg"
   xmlns="http://www.w3.org/2000/svg"
   xmlns:sodipodi="http://sodipodi.sourceforge.net/DTD/sodipodi-0.dtd"
   xmlns:inkscape="http://www.inkscape.org/namespaces/inkscape"
   width="800"
   height="391.24094"
   viewBox="0 0 211.66666 103.51582"
   version="1.1"
   id="svg8"
   inkscape:version="0.92.4 5da689c313, 2019-01-14"
   sodipodi:docname="midway.svg">
  <defs
     id="defs2" />
  <sodipodi:namedview
     id="base"
     pagecolor="#ffffff"
     bordercolor="#666666"
     borderopacity="1.0"
     inkscape:pageopacity="0.0"
     inkscape:pageshadow="2"
     inkscape:zoom="0.7"
     inkscape:cx="511.54137"
     inkscape:cy="-18.25517"
     inkscape:document-units="px"
     inkscape:current-layer="layer1"
     showgrid="false"
     fit-margin-top="0"
     fit-margin-left="0"
     fit-margin-right="0"
     fit-margin-bottom="0"
     inkscape:window-width="1680"
     inkscape:window-height="986"
     inkscape:window-x="0"
     inkscape:window-y="27"
     inkscape:window-maximized="1"
     units="px"
     inkscape:snap-page="true" />
  <metadata
     id="metadata5">
    <rdf:RDF>
      <cc:Work
         rdf:about="">
        <dc:format>image/svg+xml</dc:format>
        <dc:type
           rdf:resource="http://purl.org/dc/dcmitype/StillImage" />
        <dc:title></dc:title>
      </cc:Work>
    </rdf:RDF>
  </metadata>
  <g
     inkscape:label="Layer 1"
     inkscape:groupmode="layer"
     id="layer1"
     transform="translate(-37.742088,-88.123393)">
    <path
       inkscape:connector-curvature="0"
       style="opacity:1;fill:#214ca8;fill-opacity:1;stroke:none;stroke-width:4.96737289;stroke-linecap:butt;stroke-miterlimit:4;stroke-dasharray:4.96737271, 4.96737271;stroke-dashoffset:0;stroke-opacity:1"
       d="m 36.419173,191.63922 214.312487,1e-5 V 88.123393 l -214.312487,-1.5e-5 z"
       id="rect1943"
       sodipodi:nodetypes="ccccc" />
  </g>
  <g
     inkscape:groupmode="layer"
     id="layer2"
     inkscape:label="Layer 2"
     transform="translate(-37.742088,-88.123393)">
    <path
       style="fill:#f8a628;fill-opacity:1;fill-rule:nonzero;stroke:none;stroke-width:0.77363557"
       d="m 45.452758,88.123737 c -0.12727,0.142016 -0.255508,0.285199 -0.370574,0.420438 -0.371713,0.435176 -0.523565,0.975738 -0.414771,1.483436 l 0.01586,0.07592 c 0,0 0.147701,0.017 0.177921,0.017 0.265936,0 0.420432,-0.138604 0.547362,-0.250449 l 0.06913,-0.06006 c 0.480501,-0.395883 0.961001,-0.794777 1.432435,-1.205786 0.165697,-0.140833 0.343157,-0.305664 0.517897,-0.480503 z"
       id="path3449"
       inkscape:connector-curvature="0" />
    <path
       style="fill:#f8a628;fill-opacity:1;fill-rule:nonzero;stroke:none;stroke-width:0.77363557"
       d="m 49.994845,88.123737 c -0.04445,0.04601 -0.09125,0.0887 -0.134857,0.135993 -0.320334,0.353573 -0.450648,0.770617 -0.565495,1.205781 -0.06951,0.262918 0.02153,0.464988 0.257249,0.576832 l 0.0476,0.0181 0.0034,-0.0091 c 0.244783,-0.0029 0.423077,-0.160143 0.580226,-0.299177 L 50.45835,89.51418 c 0.25687,-0.22059 0.516009,-0.444534 0.781946,-0.656155 0.267325,-0.217735 0.523091,-0.468811 0.771746,-0.734352 z"
       id="path3447"
       inkscape:connector-curvature="0" />
    <path
       style="fill:#f8a628;fill-opacity:1;fill-rule:nonzero;stroke:none;stroke-width:0.77363557"
       d="m 236.77796,88.123737 c -0.15879,0.140287 -0.31639,0.281276 -0.47823,0.417043 -0.46237,0.383786 -0.86732,0.81935 -1.20578,1.290773 -0.16319,0.229671 -0.31697,0.534905 -0.23232,1.006333 l 0.13599,0.227785 0.25045,-0.150725 0.0873,0.0023 c 0.0634,0 0.11494,-0.0099 0.16318,-0.034 1.08189,-0.537917 1.85288,-1.198992 2.36057,-2.023993 0.12666,-0.206822 0.2768,-0.458385 0.33205,-0.735484 z"
       id="path3439"
       inkscape:connector-curvature="0" />
    <path
       style="fill:#f8a628;fill-opacity:1;fill-rule:nonzero;stroke:none;stroke-width:0.77363557"
       d="m 241.66342,88.123737 c -0.64449,0.516117 -1.29174,1.050349 -1.84607,1.68062 -0.21996,0.250832 -0.2833,0.525837 -0.20172,0.861271 l 0.008,0.03853 0.034,0.02495 c 0.11183,0.08158 0.26562,0.177921 0.44084,0.177921 0.0968,0 0.19114,-0.02721 0.28785,-0.08159 0.65274,-0.362659 1.58882,-0.957223 2.20531,-1.915206 0.12201,-0.191904 0.29723,-0.468922 0.32751,-0.78648 z"
       id="path3437"
       inkscape:connector-curvature="0" />
    <path
       style="fill:#f8a628;fill-opacity:1;fill-rule:nonzero;stroke:none;stroke-width:0.77363557"
       d="m 47.568546,89.768093 c -0.157145,0 -0.305232,0.08161 -0.453302,0.163189 -0.831055,0.456337 -1.516673,1.045603 -2.03646,1.749743 -0.341494,0.45329 -0.474454,0.922479 -0.398906,1.393907 l 0.01247,0.08159 0.08386,0.0079 c 0.05439,0.0066 0.105767,0.0091 0.154123,0.0091 v 0.0012 c 0.308245,0 0.490325,-0.117809 0.641422,-0.24478 l 0.326378,-0.28105 c 0.404949,-0.341487 0.806877,-0.683728 1.196717,-1.040329 0.238739,-0.217585 0.480121,-0.479743 0.758147,-0.818207 0.232698,-0.284079 0.251211,-0.623285 0.04873,-0.859008 -0.09066,-0.1057 -0.206247,-0.163189 -0.333177,-0.163189 z"
       id="path3431"
       inkscape:connector-curvature="0" />
    <path
       style="fill:#f8a628;fill-opacity:1;fill-rule:nonzero;stroke:none;stroke-width:0.77363557"
       d="m 52.491406,89.92675 c -1.26018,0 -2.006616,0.87034 -2.665416,1.640951 l -0.101993,0.117861 c -0.398954,0.465371 -0.541705,1.0003 -0.396639,1.468699 l 0.01586,0.04305 0.03853,0.02153 c 0.09669,0.05152 0.181701,0.07592 0.257249,0.07592 v -0.0012 c 0.07254,0 0.136001,-0.02147 0.190387,-0.06686 l 0.344509,-0.271981 c 0.773636,-0.610439 1.57485,-1.241674 2.22458,-2.027393 0.223641,-0.26897 0.305218,-0.56589 0.262916,-0.877141 l -0.05213,-0.123524 z"
       id="path3429"
       inkscape:connector-curvature="0" />
    <path
       style="fill:#f8a628;fill-opacity:1;fill-rule:nonzero;stroke:none;stroke-width:0.77363557"
       d="m 242.56776,90.729094 c -0.11785,0 -0.23314,0.04543 -0.33884,0.135987 -0.18435,0.154126 -0.37175,0.307399 -0.5621,0.46464 -0.64068,0.522802 -1.3025,1.063753 -1.84947,1.722548 -0.25088,0.299188 -0.30822,0.580963 -0.14506,0.931531 0.10577,0.07851 0.24749,0.165457 0.42271,0.165457 h 0.001 c 0.0966,0 0.196,-0.02721 0.29578,-0.08159 1.00634,-0.565111 1.67081,-1.146104 2.15432,-1.883473 0.24182,-0.365659 0.53825,-0.815938 0.32071,-1.341774 l -0.0147,-0.03853 -0.0397,-0.0181 c -0.0816,-0.03992 -0.1632,-0.05669 -0.24478,-0.05669 z"
       id="path3425"
       inkscape:connector-curvature="0" />
    <path
       style="fill:#f8a628;fill-opacity:1;fill-rule:nonzero;stroke:none;stroke-width:0.77363557"
       d="m 237.87155,90.756289 c -0.23572,0 -0.39352,0.136011 -0.52356,0.244786 -0.50467,0.438199 -1.00295,0.881677 -1.50157,1.325911 -0.27199,0.24478 -0.52921,0.550385 -0.80121,0.9644 -0.16096,0.241746 -0.31962,0.571158 -0.13825,0.942868 l 0.0306,0.06346 0.0691,-0.0023 c 0.9882,-0.01207 2.31486,-1.133235 2.883,-2.130517 0.31118,-0.543951 0.37427,-1.009362 0.18699,-1.341774 l -0.0272,-0.04532 -0.051,-0.0091 c -0.0454,-0.01097 -0.0877,-0.01248 -0.12692,-0.01248 z"
       id="path3423"
       inkscape:connector-curvature="0" />
    <path
       style="fill:#f8a628;fill-opacity:1;fill-rule:nonzero;stroke:none;stroke-width:0.77363557"
       d="m 47.852993,92.958208 -0.0816,0.01474 c -1.223914,0.208528 -1.954865,1.078839 -2.662016,1.922001 -0.359632,0.426095 -0.516758,0.957977 -0.444236,1.495894 l 0.0091,0.07027 0.06573,0.02153 c 0.10578,0.03313 0.194166,0.04874 0.269715,0.04874 v -0.0012 c 0.09972,0 0.183967,-0.02727 0.259515,-0.09066 l 0.190387,-0.157526 c 0.809899,-0.664847 1.650019,-1.350837 2.348104,-2.184913 0.265944,-0.317326 0.290104,-0.655407 0.0816,-1.066393 z"
       id="path3419"
       inkscape:connector-curvature="0" />
    <path
       style="fill:#f8a628;fill-opacity:1;fill-rule:nonzero;stroke:none;stroke-width:0.77363557"
       d="m 52.522004,93.079464 c -0.991222,0.01213 -1.653041,0.644452 -2.184916,1.149122 -0.562094,0.531864 -1.145344,1.190677 -1.006331,2.26651 l 0.02153,0.15072 0.138256,-0.06913 c 0.734352,-0.356578 2.572489,-1.910291 2.935132,-2.478426 0.136008,-0.20851 0.301829,-0.5349 0.205118,-0.933805 l -0.02153,-0.08499 z"
       id="path3415"
       inkscape:connector-curvature="0" />
    <path
       style="fill:#f8a628;fill-opacity:1;fill-rule:nonzero;stroke:none;stroke-width:0.77363557"
       d="m 242.58023,94.022332 c -0.28711,0 -0.47487,0.157549 -0.63803,0.293514 l -0.43177,0.371705 c -0.25083,0.211539 -0.49901,0.422596 -0.75587,0.622159 -0.29314,0.229671 -0.53189,0.507716 -0.77062,0.788749 l -0.17792,0.202853 c -0.29013,0.332423 -0.35995,0.67655 -0.21192,1.04826 l 0.0363,0.08952 0.0963,-0.02721 c 1.96733,-0.568135 3.34612,-2.045519 3.07112,-3.296639 l -0.0158,-0.07253 -0.0748,-0.01131 c -0.0454,-0.0088 -0.0877,-0.0091 -0.12692,-0.0091 z"
       id="path3411"
       inkscape:connector-curvature="0" />
    <path
       style="fill:#f8a628;fill-opacity:1;fill-rule:nonzero;stroke:none;stroke-width:0.77363557"
       d="m 237.91688,94.146988 c -0.30522,0 -0.48046,0.159342 -0.63462,0.301451 0,0 -0.29353,0.259791 -0.40231,0.362642 -0.20853,0.19039 -0.41665,0.381458 -0.64028,0.550757 -0.3415,0.26897 -0.61083,0.601016 -0.87374,0.921336 -0.0907,0.11485 -0.18094,0.226677 -0.27765,0.335446 -0.24167,0.28105 -0.29989,0.556449 -0.17906,0.819344 l 0.085,0.08386 c 0.10879,0.05744 0.21793,0.115593 0.35697,0.115593 0.0786,0 0.15787,-0.01828 0.24252,-0.05437 0.91868,-0.401929 1.65606,-1.024472 2.19398,-1.849473 0.28711,-0.438204 0.52839,-0.925502 0.34111,-1.502694 l -0.0215,-0.06913 -0.0703,-0.0068 c -0.0423,-0.0088 -0.0809,-0.0079 -0.12012,-0.0079 z"
       id="path3407"
       inkscape:connector-curvature="0" />
    <path
       style="fill:#f8a628;fill-opacity:1;fill-rule:nonzero;stroke:none;stroke-width:0.77363557"
       d="m 52.536736,96.223115 -0.09066,0.0181 c -0.76759,0.1632 -1.444522,0.543202 -2.067057,1.162722 l -0.06006,0.06119 c -0.395884,0.395877 -0.807247,0.800841 -0.982532,1.459636 -0.06044,0.202476 -0.138636,0.477097 0.13939,0.740015 l 0.135991,0.0091 c 0.256871,0 0.45671,-0.166287 0.619891,-0.299183 0,0 1.135895,-0.939572 1.338373,-1.111725 0.401928,-0.338464 0.680328,-0.655778 0.882807,-1.006328 0.132982,-0.2327 0.3022,-0.525442 0.117858,-0.948537 z"
       id="path3405"
       inkscape:connector-curvature="0" />
    <path
       style="fill:#f8a628;fill-opacity:1;fill-rule:nonzero;stroke:none;stroke-width:0.77363557"
       d="m 47.801996,96.378372 -0.06006,0.01358 c -1.118145,0.271975 -2.224579,1.070182 -2.75041,1.988866 -0.275007,0.483532 -0.359235,0.945526 -0.241384,1.338374 l 0.0204,0.07253 0.154123,0.0079 c 0.296158,0 0.480887,-0.153823 0.674287,-0.313908 0.45028,-0.377745 0.897537,-0.74985 1.341774,-1.127589 0.392861,-0.332435 0.692416,-0.734724 0.910004,-1.045998 0.241712,-0.347521 0.238387,-0.63764 -0.0034,-0.888472 z"
       id="path3403"
       inkscape:connector-curvature="0" />
    <path
       style="fill:#f8a628;fill-opacity:1;fill-rule:nonzero;stroke:none;stroke-width:0.77363557"
       d="m 242.80348,97.178446 -0.0941,0.0023 c -0.30825,0.0029 -0.49893,0.139017 -0.68336,0.290113 -0.50164,0.407981 -0.99727,0.81559 -1.49589,1.229582 -0.34149,0.284079 -0.60399,0.640663 -0.81254,0.951937 -0.22961,0.338464 -0.26622,0.646732 -0.12127,0.942872 l 0.0431,0.0861 0.0873,-0.0249 c 1.93105,-0.5228 3.31816,-2.039097 3.09152,-3.383899 z"
       id="path3399"
       inkscape:connector-curvature="0" />
    <path
       style="fill:#f8a628;fill-opacity:1;fill-rule:nonzero;stroke:none;stroke-width:0.77363557"
       d="m 238.04721,97.406232 -0.0884,0.01358 c -0.29917,0.03626 -0.48359,0.187007 -0.61649,0.295782 l -0.17792,0.145057 c -0.47748,0.389837 -0.95572,0.779325 -1.41204,1.193317 -0.25989,0.238746 -0.47107,0.529225 -0.67655,0.810275 -0.21644,0.299187 -0.2867,0.613097 -0.20512,0.930397 l 0.0272,0.10313 0.10313,-0.0227 c 1.17254,-0.25384 2.32015,-1.063371 2.85807,-2.018325 0.28092,-0.492589 0.35355,-0.966669 0.21758,-1.365569 z"
       id="path3397"
       inkscape:connector-curvature="0" />
    <path
       style="fill:#f8a628;fill-opacity:1;fill-rule:nonzero;stroke:none;stroke-width:0.77363557"
       d="m 52.549202,99.450625 -0.103126,0.02721 c -1.202761,0.311251 -2.006618,1.045245 -2.574756,1.646625 -0.329399,0.35054 -0.465007,0.78648 -0.576827,1.20352 -0.09973,0.36868 0.07555,0.51078 0.226651,0.58929 0.03627,0.007 0.06951,0.008 0.09973,0.008 v 0.001 c 0.19341,0 0.338838,-0.10315 0.465768,-0.21192 0.202476,-0.17829 0.410995,-0.35061 0.625557,-0.52583 0.583248,-0.4805 1.184629,-0.97952 1.677217,-1.58996 0.265943,-0.33242 0.320343,-0.637268 0.190387,-1.04826 z"
       id="path3393"
       inkscape:connector-curvature="0" />
    <path
       style="fill:#f8a628;fill-opacity:1;fill-rule:nonzero;stroke:none;stroke-width:0.77363557"
       d="m 47.599143,99.622877 c -0.114826,0 -0.220617,0.0423 -0.290113,0.07253 -0.779679,0.350553 -1.481165,0.899793 -2.142985,1.679483 -0.320333,0.37777 -0.453292,0.81897 -0.553029,1.20579 -0.07253,0.278 -0.0053,0.46904 0.197187,0.58702 l 0.08159,0.002 c 0.20852,0 0.344508,-0.12969 0.453302,-0.23231 l 0.0816,-0.0725 1.287378,-1.08453 c 0.290113,-0.24175 0.652376,-0.5447 0.948534,-0.89527 0.305223,-0.36264 0.404582,-0.71924 0.304846,-1.087923 l -0.01133,-0.03853 -0.0306,-0.02495 c -0.111817,-0.07566 -0.214557,-0.111061 -0.326377,-0.111061 z"
       id="path3391"
       inkscape:connector-curvature="0" />
    <path
       style="fill:#f8a628;fill-opacity:1;fill-rule:nonzero;stroke:none;stroke-width:0.77363557"
       d="m 242.5825,100.38102 c -0.19645,0 -0.31766,0.10275 -0.40231,0.17226 l -0.41364,0.34451 c -0.4261,0.35055 -0.85521,0.70451 -1.26924,1.07319 -0.24478,0.21457 -0.48692,0.47068 -0.76495,0.80915 -0.21755,0.27197 -0.24435,0.5689 -0.0691,0.79554 0.0937,0.12105 0.21713,0.18359 0.35924,0.18359 v 0.001 c 0.13901,0 0.27881,-0.0536 0.41477,-0.11105 0.83711,-0.33849 1.43772,-0.97007 1.97867,-1.58656 0.23872,-0.26897 0.34518,-0.59835 0.4329,-0.91567 0.0485,-0.16318 0.13863,-0.47143 -0.12126,-0.75249 z"
       id="path3389"
       inkscape:connector-curvature="0" />
    <path
       style="fill:#f8a628;fill-opacity:1;fill-rule:nonzero;stroke:none;stroke-width:0.77363557"
       d="m 238.1186,100.59635 c 0,0 -0.21526,0.0353 -0.26065,0.0419 -0.0787,0.009 -0.13227,0.0152 -0.18359,0.0544 l -0.12692,0.0997 c -0.84919,0.6588 -1.72633,1.34215 -2.44556,2.17925 -0.23867,0.27803 -0.33771,0.59233 -0.28332,0.90661 l 0.0125,0.0725 0.0669,0.017 c 0.11485,0.03 0.23526,0.0453 0.35018,0.0453 v 0.001 c 0.8643,0 1.67721,-0.82274 2.3753,-1.59335 0.4775,-0.52584 0.64681,-1.09056 0.51677,-1.71915 z"
       id="path3387"
       inkscape:connector-curvature="0" />
    <path
       style="fill:#f8a628;fill-opacity:1;fill-rule:nonzero;stroke:none;stroke-width:0.77363557"
       d="m 52.570734,102.73026 -0.08726,0.0136 c -1.24809,0.17526 -2.054968,0.96099 -2.737944,1.78601 -0.410994,0.49259 -0.547359,1.00935 -0.411372,1.53216 l 0.0204,0.0759 0.07253,0.007 c 0.04533,0.007 0.08765,0.008 0.126924,0.008 l 0.0012,-0.001 c 0.293134,0 0.461617,-0.14428 0.627823,-0.28332 l 0.375108,-0.32411 c 0.217583,-0.18737 0.431769,-0.37441 0.65842,-0.54963 0.362643,-0.278 0.664843,-0.61082 0.961001,-0.9372 l 0.193787,-0.21192 c 0.20248,-0.21759 0.411366,-0.53148 0.23005,-1.03013 z"
       id="path3383"
       inkscape:connector-curvature="0" />
    <path
       style="fill:#f8a628;fill-opacity:1;fill-rule:nonzero;stroke:none;stroke-width:0.77363557"
       d="m 47.780464,102.84472 -0.06346,0.017 c -1.450565,0.41098 -2.423277,1.20919 -2.979327,2.43309 -0.114847,0.25989 -0.278027,0.61649 0,0.94287 l 0.02719,0.0295 0.03626,0.007 c 0.0393,0.007 0.07481,0.009 0.111059,0.009 0.214561,0 0.36264,-0.12135 0.471434,-0.21192 l 0.262915,-0.21419 c 0.565116,-0.45933 1.127589,-0.91832 1.671551,-1.40183 0.229674,-0.19945 0.405337,-0.45634 0.583627,-0.72528 0.190394,-0.29314 0.166211,-0.57419 -0.07253,-0.83408 z"
       id="path3381"
       inkscape:connector-curvature="0" />
    <path
       style="fill:#f8a628;fill-opacity:1;fill-rule:nonzero;stroke:none;stroke-width:0.77363557"
       d="m 242.51903,103.62327 c -0.0785,0 -0.14254,0.0243 -0.20285,0.0725 l -0.34111,0.26971 c -0.77667,0.61347 -1.57748,1.24734 -2.23025,2.03307 -0.2114,0.25083 -0.26622,0.50465 -0.17565,0.76154 l 0.007,0.0431 0.0657,0.0419 c 0.11153,0.0691 0.22812,0.14467 0.38757,0.14505 0.0692,-1.2e-4 0.13857,-0.0115 0.21079,-0.0385 0.83105,-0.30825 1.5503,-0.87716 2.20304,-1.72935 0.38956,-0.51072 0.51367,-0.99122 0.38077,-1.4687 l -0.0147,-0.0476 -0.0521,-0.0215 c -0.0907,-0.0383 -0.16847,-0.0612 -0.23798,-0.0612 z"
       id="path3377"
       inkscape:connector-curvature="0" />
    <path
       style="fill:#f8a628;fill-opacity:1;fill-rule:nonzero;stroke:none;stroke-width:0.77363557"
       d="m 237.95315,103.88052 c -0.30827,0 -0.47707,0.14501 -0.65842,0.29918 -0.21456,0.18134 -1.08226,0.91907 -1.08226,0.91907 -0.44426,0.37171 -0.80387,0.73698 -1.10606,1.11172 -0.13904,0.17829 -0.43253,0.54055 -0.21192,0.9848 l 0.0272,0.0566 c 0.0574,0.002 0.13657,0.009 0.15412,0.009 0.75853,0 1.86383,-0.72225 2.63142,-1.71348 0.26605,-0.34149 0.59866,-0.87637 0.43857,-1.57749 l -0.017,-0.0782 c 0,0 -0.14539,-0.0113 -0.17565,-0.0113 z"
       id="path3375"
       inkscape:connector-curvature="0" />
    <path
       style="fill:#f8a628;fill-opacity:1;fill-rule:nonzero;stroke:none;stroke-width:0.77363557"
       d="m 47.871125,106.01444 -0.07593,0.009 c -0.939844,0.12693 -1.954866,0.78195 -2.589488,1.67042 -0.435173,0.60741 -0.616866,1.22694 -0.511098,1.74975 l 0.01586,0.0793 0.163189,0.0125 c 0.284068,0 0.455569,-0.15489 0.655021,-0.33318 0,0 0.955335,-0.83108 1.372372,-1.18765 0.320333,-0.27803 0.616112,-0.61914 0.912271,-1.04827 0.08754,-0.12995 0.329777,-0.47746 0.09406,-0.88847 z"
       id="path3369"
       inkscape:connector-curvature="0" />
    <path
       style="fill:#f8a628;fill-opacity:1;fill-rule:nonzero;stroke:none;stroke-width:0.77363557"
       d="m 52.153696,106.02011 c -0.235717,0 -0.3328,0.0453 -0.592693,0.17225 -0.764569,0.37171 -1.323264,0.98819 -1.87327,1.64096 -0.259901,0.30521 -0.353586,0.71659 -0.407972,1.07318 -0.05137,0.32027 0.120129,0.44418 0.256116,0.48957 l 0.0646,0.0147 0.0544,-0.0147 c 0.05136,-0.009 0.11107,-0.0185 0.165456,-0.0578 0.900559,-0.67995 1.844183,-1.43244 2.626885,-2.33903 0.208509,-0.23873 0.278015,-0.53226 0.208519,-0.87374 l -0.01926,-0.0816 -0.08386,-0.007 c -0.178299,-0.011 -0.302196,-0.017 -0.398906,-0.017 z"
       id="path3367"
       inkscape:connector-curvature="0" />
    <path
       style="fill:#f8a628;fill-opacity:1;fill-rule:nonzero;stroke:none;stroke-width:0.77363557"
       d="m 242.80914,106.79978 -0.11445,0.0272 c -0.0665,0.0149 -0.1212,0.024 -0.16659,0.0306 -0.0938,0.0152 -0.16021,0.0268 -0.25385,0.0963 -0.89752,0.69507 -1.82831,1.41129 -2.55662,2.32998 -0.1033,0.12994 -0.3721,0.47447 -0.12127,0.96099 l 0.0408,0.0725 0.0782,-0.0147 c 1.18766,-0.22666 1.98887,-0.98592 2.61442,-1.70214 0.44114,-0.50165 0.60488,-1.05467 0.50203,-1.68629 z"
       id="path3363"
       inkscape:connector-curvature="0" />
    <path
       style="fill:#f8a628;fill-opacity:1;fill-rule:nonzero;stroke:none;stroke-width:0.77363557"
       d="m 237.85908,107.01737 c -0.17528,0 -0.29306,0.11481 -0.40796,0.22665 -0.29917,0.29314 -0.62255,0.56247 -0.94287,0.82841 l -0.11786,0.0997 c -0.1511,0.1269 -0.30561,0.25354 -0.45671,0.38644 -0.30219,0.26591 -0.56513,0.58325 -0.84313,0.91567 -0.27193,0.32638 -0.30148,0.65542 -0.0929,1.03919 l 0.0487,0.085 0.0929,-0.0363 c 0.12088,-0.0544 0.24221,-0.10054 0.37511,-0.15186 0.26291,-0.10274 0.5164,-0.199 0.74001,-0.3411 0.70715,-0.45332 1.55937,-1.12157 1.87667,-2.29711 0.0754,-0.27803 0.11788,-0.52206 -0.17225,-0.74568 z"
       id="path3361"
       inkscape:connector-curvature="0" />
    <path
       style="fill:#f8a628;fill-opacity:1;fill-rule:nonzero;stroke:none;stroke-width:0.77363557"
       d="m 52.5798,109.12409 -0.106526,0.0385 c -0.129947,0.0483 -0.253844,0.0699 -0.380774,0.0941 -0.145057,0.0272 -0.304481,0.0577 -0.464634,0.13032 -0.797814,0.38077 -1.369728,1.00293 -1.928801,1.66475 -0.253853,0.29917 -0.346782,0.68866 -0.419304,1.06639 -0.05741,0.31128 0.08462,0.44491 0.217585,0.50543 l 0.04533,0.0204 0.04533,-0.0181 c 0.628579,-0.26897 2.571356,-1.91824 2.888667,-2.4501 0.151075,-0.25989 0.275378,-0.5534 0.139391,-0.94627 z"
       id="path3355"
       inkscape:connector-curvature="0" />
    <path
       style="fill:#f8a628;fill-opacity:1;fill-rule:nonzero;stroke:none;stroke-width:0.77363557"
       d="m 47.468819,109.38701 c -0.172254,0 -0.325621,0.0385 -0.464634,0.12012 -0.722262,0.43215 -1.317599,0.91568 -1.813208,1.47777 -0.344509,0.38984 -0.480886,0.85561 -0.583627,1.26358 -0.05137,0.20851 -0.06686,0.47746 0.286714,0.67088 l 0.06346,0.0363 0.417038,-0.33544 c 0.864296,-0.67997 1.759188,-1.38334 2.433098,-2.33225 0.187434,-0.26291 0.238351,-0.52583 0.168856,-0.75248 l -0.06006,-0.0975 -0.08499,-0.0147 c -0.123903,-0.0186 -0.244791,-0.0363 -0.362642,-0.0363 z"
       id="path3351"
       inkscape:connector-curvature="0" />
    <path
       style="fill:#f8a628;fill-opacity:1;fill-rule:nonzero;stroke:none;stroke-width:0.77363557"
       d="m 242.49863,110.10322 c -0.0724,0 -0.136,0.0181 -0.19038,0.0635 l -0.13033,0.0963 c -0.87638,0.65878 -1.7864,1.34518 -2.46936,2.26084 -0.16316,0.22664 -0.32893,0.53716 -0.11446,0.9542 l 0.0397,0.0805 0.085,-0.0215 c 1.00028,-0.22967 1.85288,-0.7948 2.67788,-1.78601 0.41077,-0.49259 0.55593,-1.00106 0.4261,-1.51176 l -0.0136,-0.0544 -0.051,-0.0215 c -0.10572,-0.0428 -0.18692,-0.0601 -0.25951,-0.0601 z"
       id="path3347"
       inkscape:connector-curvature="0" />
    <path
       style="fill:#f8a628;fill-opacity:1;fill-rule:nonzero;stroke:none;stroke-width:0.77363557"
       d="m 237.87382,110.36614 c -0.24781,0 -0.40161,0.1327 -0.60402,0.30484 l -0.33545,0.28672 c -0.22967,0.19945 -0.45895,0.39934 -0.70375,0.57456 -0.36566,0.2599 -0.64332,0.59269 -0.91228,0.91907 l -0.22437,0.26518 c -0.25988,0.30219 -0.32628,0.65577 -0.18133,0.99726 l 0.0363,0.0827 0.0884,-0.0158 c 1.05167,-0.21759 2.10861,-0.93305 2.69488,-1.82454 0.34454,-0.52583 0.47782,-1.03957 0.38417,-1.48683 l -0.0147,-0.0725 -0.0725,-0.0158 c -0.0485,-0.009 -0.10087,-0.0147 -0.15526,-0.0147 z"
       id="path3345"
       inkscape:connector-curvature="0" />
    <path
       style="fill:#f8a628;fill-opacity:1;fill-rule:nonzero;stroke:none;stroke-width:0.77363557"
       d="m 52.418878,112.42866 c -0.755502,0 -1.656064,0.57115 -2.529426,1.61376 -0.383789,0.45934 -0.712821,0.93076 -0.540563,1.63189 l 0.01813,0.0725 0.07253,0.009 c 0.05136,0.007 0.09973,0.0136 0.145056,0.0136 0.305224,0 0.489576,-0.15188 0.652755,-0.28784 l 0.332044,-0.27425 c 0.353575,-0.29011 0.70753,-0.58327 1.055061,-0.87941 0.302202,-0.25385 0.577581,-0.58625 0.846542,-1.0154 0.105877,-0.1662 0.302209,-0.47824 0.126924,-0.82273 l -0.03059,-0.0544 z"
       id="path3333"
       inkscape:connector-curvature="0" />
    <path
       style="fill:#f8a628;fill-opacity:1;fill-rule:nonzero;stroke:none;stroke-width:0.77363557"
       d="m 47.65354,112.62019 c -0.06649,0.003 -0.150343,0.008 -0.228918,0.0385 -1.057706,0.43518 -1.898201,1.13402 -2.496561,2.07386 -0.211447,0.32939 -0.525828,0.82199 -0.217585,1.35991 l 0.0204,0.0385 0.04306,0.0158 c 0.06044,0.014 0.120135,0.0272 0.174521,0.0272 h 0.0012 c 0.120873,0 0.229667,-0.0431 0.326378,-0.12466 l 0.471434,-0.39551 c 0.679954,-0.56513 1.380683,-1.15139 1.963931,-1.85854 0.250822,-0.31125 0.322966,-0.68562 0.223251,-1.02106 l -0.0476,-0.0907 -0.106526,-0.0363 c -0.03627,-0.0118 -0.07554,-0.0272 -0.126925,-0.0272 z"
       id="path3329"
       inkscape:connector-curvature="0" />
    <path
       style="fill:#f8a628;fill-opacity:1;fill-rule:nonzero;stroke:none;stroke-width:0.77363557"
       d="m 242.57683,113.06102 c -0.20548,0 -0.35401,0.12995 -0.50203,0.25385 -0.48051,0.41401 -0.95723,0.83105 -1.43471,1.25111 l -0.17565,0.15413 c -0.28105,0.2448 -0.49297,0.54774 -0.71962,0.86807 -0.10965,0.1511 -0.35883,0.51035 -0.11106,0.85787 l 0.12353,0.0816 0.0748,0.0328 0.0453,10e-4 0.043,-0.007 c 1.42638,-0.39587 2.42933,-1.32629 2.97932,-2.77081 0.10582,-0.275 0.0726,-0.49333 -0.13598,-0.68675 -0.0634,-0.0233 -0.12646,-0.0363 -0.18699,-0.0363 z"
       id="path3327"
       inkscape:connector-curvature="0" />
    <path
       style="fill:#f8a628;fill-opacity:1;fill-rule:nonzero;stroke:none;stroke-width:0.77363557"
       d="m 237.90782,113.54492 c -0.2327,0 -0.39353,0.13569 -0.57797,0.29578 l -0.3139,0.26971 c -0.25386,0.21759 -0.50807,0.43441 -0.77402,0.62783 -0.36868,0.26896 -0.65239,0.61686 -0.92134,0.94626 l -0.24138,0.29012 c -0.24474,0.28407 -0.30569,0.62217 -0.17565,0.9848 l 0.0328,0.0929 0.0975,-0.0238 c 1.25112,-0.30524 2.04287,-1.06678 2.71075,-1.84948 0.27791,-0.32638 0.39284,-0.72829 0.46236,-1.04259 0.0423,-0.20851 0.0536,-0.43812 -0.17905,-0.58022 z"
       id="path3325"
       inkscape:connector-curvature="0" />
    <path
       style="fill:#f8a628;fill-opacity:1;fill-rule:nonzero;stroke:none;stroke-width:0.77363557"
       d="m 52.561668,115.65164 -0.07026,0.002 c -0.873362,0.0181 -2.051948,0.7978 -2.801407,1.84947 -0.274995,0.3868 -0.531882,0.86431 -0.326377,1.45964 l 0.02493,0.0725 0.0816,10e-4 c 0.377752,0 0.597609,-0.18468 0.809144,-0.36605 l 0.271981,-0.23571 c 0.26896,-0.22967 0.535273,-0.45894 0.819343,-0.66749 0.356599,-0.26594 0.622914,-0.60439 0.882806,-0.93381 l 0.181321,-0.23004 c 0.256886,-0.31731 0.30446,-0.60667 0.156389,-0.89074 z"
       id="path3315"
       inkscape:connector-curvature="0" />
    <path
       style="fill:#f8a628;fill-opacity:1;fill-rule:nonzero;stroke:none;stroke-width:0.77363557"
       d="m 47.632008,116.01655 c -0.256871,0 -0.398527,0.0699 -0.939469,0.38417 -0.979131,0.56814 -1.632264,1.26359 -1.997928,2.12486 -0.08765,0.20851 -0.247427,0.59193 0.03966,0.96666 l 0.0306,0.0363 0.120125,0.0102 c 0.27198,0 0.447254,-0.15788 0.634623,-0.32411 l 0.320711,-0.29012 c 0.238739,-0.22061 0.483145,-0.44095 0.740016,-0.64029 0.417037,-0.32032 0.741149,-0.72489 1.067526,-1.12985 l 0.0476,-0.0635 c 0.259888,-0.32335 0.333166,-0.65917 0.233451,-0.9644 l -0.07253,-0.10312 z"
       id="path3313"
       inkscape:connector-curvature="0" />
    <path
       style="fill:#f8a628;fill-opacity:1;fill-rule:nonzero;stroke:none;stroke-width:0.77363557"
       d="m 242.54396,116.36106 c -0.0756,0 -0.13827,0.0237 -0.19265,0.0691 -0.16621,0.14806 -0.33581,0.29079 -0.50204,0.4329 l -0.12125,0.102 c -0.67088,0.56813 -1.36255,1.15819 -1.9458,1.8472 -0.20329,0.23875 -0.2685,0.52544 -0.20512,0.87601 l 0.0102,0.0725 0.0703,0.0158 c 0.12693,0.0301 0.25607,0.0453 0.38305,0.0453 l 0.002,-0.001 c 0.6739,0 1.1612,-0.45973 1.59336,-0.86467 l 0.0929,-0.0895 c 0.52886,-0.49561 1.33,-1.24809 1.12759,-2.35717 l -0.0136,-0.0578 -0.051,-0.0238 c -0.0967,-0.0445 -0.17866,-0.0669 -0.24818,-0.0669 z"
       id="path3311"
       inkscape:connector-curvature="0" />
    <path
       style="fill:#f8a628;fill-opacity:1;fill-rule:nonzero;stroke:none;stroke-width:0.77363557"
       d="m 237.86475,116.7815 c -0.11188,0 -0.2172,0.0453 -0.31391,0.12692 -0.23875,0.20548 -0.48314,0.40187 -0.73095,0.59836 -0.60741,0.48048 -1.23337,0.97951 -1.71688,1.62622 -0.1239,0.17226 -0.24436,0.38986 -0.15072,0.77968 0.13296,0.13904 0.26886,0.19945 0.4261,0.19945 v -10e-4 c 0.12693,0 0.25014,-0.0415 0.35584,-0.0839 0.84314,-0.34149 1.44489,-0.96705 1.98887,-1.57749 0.27489,-0.3143 0.39632,-0.70187 0.47483,-1.04033 0.0333,-0.14204 0.096,-0.40428 -0.16092,-0.59156 -0.0572,-0.023 -0.1148,-0.0363 -0.17226,-0.0363 z"
       id="path3309"
       inkscape:connector-curvature="0" />
    <path
       style="fill:#f8a628;fill-opacity:1;fill-rule:nonzero;stroke:none;stroke-width:0.77363557"
       d="m 52.582067,118.89728 -0.0816,0.002 c -0.903581,0.0513 -2.127118,0.82841 -2.788941,1.77128 -0.281048,0.40495 -0.544344,0.90018 -0.356975,1.5197 l 0.01813,0.0725 0.160922,0.0102 c 0.302202,0 0.483153,-0.15374 0.631223,-0.27765 l 0.356976,-0.30824 c 0.253848,-0.22062 0.507319,-0.44194 0.776279,-0.65049 0.377753,-0.29011 0.686375,-0.64936 0.991599,-1.00293 l 0.06346,-0.0725 c 0.181318,-0.21456 0.410612,-0.54963 0.259515,-0.9848 z"
       id="path3307"
       inkscape:connector-curvature="0" />
    <path
       style="fill:#f8a628;fill-opacity:1;fill-rule:nonzero;stroke:none;stroke-width:0.77363557"
       d="m 47.816728,119.06727 -0.07593,0.017 c -1.133255,0.25989 -1.89178,0.94893 -2.484096,1.58656 -0.26896,0.2901 -0.392114,0.63159 -0.509964,0.961 l -0.103127,0.27538 c -0.08158,0.20853 -0.02985,0.4254 0.130325,0.54623 0.07252,0.0544 0.150342,0.0816 0.228917,0.0816 v 0.001 c 0.157145,0 0.290107,-0.11261 0.371708,-0.17906 l 0.393239,-0.33204 c 0.368687,-0.30523 0.733973,-0.61385 1.084525,-0.93721 0.29918,-0.27499 0.57456,-0.58022 0.87374,-0.91567 l 0.06913,-0.0782 c 0.268969,-0.30221 0.290113,-0.61648 0.06346,-0.961 z"
       id="path3305"
       inkscape:connector-curvature="0" />
    <path
       style="fill:#f8a628;fill-opacity:1;fill-rule:nonzero;stroke:none;stroke-width:0.77363557"
       d="m 242.55869,119.73363 c -0.15418,0 -0.24859,0.0638 -0.31504,0.12125 l -0.48277,0.40798 c -0.45028,0.37774 -0.90129,0.75512 -1.33044,1.15705 -0.31427,0.29314 -0.56773,0.67468 -0.77628,0.97686 -0.12676,0.19343 -0.16952,0.47674 0.0328,0.68223 0.11485,0.11491 0.24807,0.17565 0.39324,0.17565 v 0.001 c 0.0906,0 0.18141,-0.0274 0.27199,-0.0759 1.02142,-0.55 1.72254,-1.16347 2.20304,-1.93106 0.19338,-0.31731 0.52283,-0.84616 0.23572,-1.43244 l -0.0238,-0.0521 -0.0522,-0.008 c -0.0605,-0.0132 -0.11099,-0.0227 -0.15639,-0.0227 z"
       id="path3303"
       inkscape:connector-curvature="0" />
    <path
       style="fill:#f8a628;fill-opacity:1;fill-rule:nonzero;stroke:none;stroke-width:0.77363557"
       d="m 237.84435,119.98181 c -0.0664,0 -0.13293,0.0209 -0.19038,0.0691 l -0.36264,0.28784 c -0.76457,0.60439 -1.55408,1.23261 -2.20078,2.0002 -0.13312,0.15715 -0.19924,0.33881 -0.19266,0.54736 0.003,0.28099 0.18055,0.4771 0.43744,0.4771 0.0574,0 0.12079,-0.0109 0.18132,-0.0328 0.93379,-0.31127 1.72594,-0.95495 2.36057,-1.91294 0.17214,-0.25686 0.5262,-0.79553 0.20285,-1.35763 -0.0846,-0.0544 -0.16313,-0.0782 -0.23572,-0.0782 z"
       id="path3301"
       inkscape:connector-curvature="0" />
    <path
       style="fill:#f8a628;fill-opacity:1;fill-rule:nonzero;stroke:none;stroke-width:0.77363557"
       d="m 52.199026,122.20299 c -0.553028,0 -1.166497,0.3566 -1.87667,1.09699 -0.537919,0.55303 -1.142324,1.18198 -0.815944,2.21551 l 0.04873,0.153 0.126924,-0.10313 c 0.205498,-0.16923 0.417049,-0.33467 0.625557,-0.5009 0.75248,-0.5893 1.529138,-1.20011 2.13052,-1.9798 0.132982,-0.16923 0.296154,-0.43482 0.190387,-0.75815 l -0.01926,-0.0544 -0.051,-0.0181 c -0.120882,-0.036 -0.241391,-0.051 -0.359242,-0.051 z"
       id="path3299"
       inkscape:connector-curvature="0" />
    <path
       style="fill:#f8a628;fill-opacity:1;fill-rule:nonzero;stroke:none;stroke-width:0.77363557"
       d="m 47.922121,122.33218 -0.09293,0.0158 c -1.145343,0.1904 -2.08859,0.83446 -2.877336,1.97073 -0.181315,0.26292 -0.562094,0.80954 -0.18132,1.37464 0.08159,0.0386 0.157155,0.0601 0.226651,0.0601 0.09368,0 0.175661,-0.0307 0.248183,-0.0941 0.169232,-0.14504 0.341105,-0.28399 0.513364,-0.4261 l 0.112193,-0.0907 c 0.670886,-0.54397 1.365194,-1.11134 1.924267,-1.80641 0.220614,-0.27197 0.272369,-0.56889 0.157522,-0.9134 z"
       id="path3297"
       inkscape:connector-curvature="0" />
    <path
       style="fill:#f8a628;fill-opacity:1;fill-rule:nonzero;stroke:none;stroke-width:0.77363557"
       d="m 242.61309,123.08806 c -0.28105,0 -0.46241,0.16015 -0.65275,0.32638 l -0.13599,0.12126 c -0.36266,0.31427 -0.72265,0.63198 -1.09133,0.9372 -0.34452,0.28405 -0.65541,0.63425 -1.00293,1.13892 -0.23575,0.33241 -0.28135,0.63765 -0.14846,0.961 l 0.0272,0.0691 h 0.0759 v 0.001 c 0.0181,0 0.20911,0.0113 0.22665,0.0113 0.0605,0 0.1118,-0.009 0.15413,-0.0306 1.06677,-0.48354 1.89102,-1.16613 2.45916,-2.0274 0.20546,-0.31429 0.55304,-0.83748 0.26291,-1.4177 l -0.0839,-0.0907 z"
       id="path3295"
       inkscape:connector-curvature="0" />
    <path
       style="fill:#f8a628;fill-opacity:1;fill-rule:nonzero;stroke:none;stroke-width:0.77363557"
       d="m 237.85568,123.22745 c -0.12087,0 -0.21759,0.0305 -0.29917,0.10313 -0.18134,0.14809 -0.35888,0.29533 -0.56436,0.46463 -0.63461,0.52281 -1.29343,1.06451 -1.84041,1.71122 -0.0968,0.10879 -0.21145,0.25006 -0.24478,0.48276 -0.0272,0.19946 -0.0362,0.40281 0.18132,0.53263 0.0846,0.0484 0.1658,0.0725 0.25045,0.0725 0.0785,0 0.16313,-0.0211 0.26291,-0.0635 0.85524,-0.34752 1.5922,-0.9338 2.19059,-1.74068 0.25078,-0.33847 0.56208,-0.86167 0.33544,-1.4721 l -0.0238,-0.0601 -0.0601,-0.0136 c -0.0724,-0.011 -0.13373,-0.017 -0.18812,-0.017 z"
       id="path3293"
       inkscape:connector-curvature="0" />
    <path
       style="fill:#f8a628;fill-opacity:1;fill-rule:nonzero;stroke:none;stroke-width:0.77363557"
       d="m 52.597932,125.24691 -0.09633,0.0113 c -1.341774,0.16622 -2.107098,1.09737 -2.781008,1.91634 -0.386818,0.46842 -0.515995,0.99123 -0.355842,1.43244 l 0.0204,0.0601 0.06346,0.009 c 0.05438,0.0132 0.105394,0.0147 0.150723,0.0147 l 0.0012,0.001 c 0.193408,0 0.319574,-0.0726 0.491832,-0.20852 0.818965,-0.64671 1.665885,-1.31459 2.363971,-2.13959 0.223618,-0.26894 0.274249,-0.56775 0.165455,-1.00293 z"
       id="path3291"
       inkscape:connector-curvature="0" />
    <path
       style="fill:#f8a628;fill-opacity:1;fill-rule:nonzero;stroke:none;stroke-width:0.77363557"
       d="m 47.60481,125.4883 c -0.06347,0 -0.126922,0.0121 -0.190387,0.0363 -0.933803,0.36265 -1.722171,1.00256 -2.47163,2.01493 -0.178293,0.23875 -0.290114,0.56284 -0.335443,0.96779 -0.02116,0.18133 -0.0064,0.40485 0.313912,0.5077 l 0.05553,0.0136 0.051,-0.0363 c 0.909624,-0.66485 1.940132,-1.41355 2.737944,-2.41383 0.247807,-0.30825 0.307868,-0.64445 0.168855,-0.9678 l -0.01813,-0.0385 -0.03966,-0.0181 c -0.09972,-0.0423 -0.187354,-0.0657 -0.271981,-0.0657 z"
       id="path3289"
       inkscape:connector-curvature="0" />
    <path
       style="fill:#f8a628;fill-opacity:1;fill-rule:nonzero;stroke:none;stroke-width:0.77363557"
       d="m 242.63802,126.3303 -0.0941,0.0125 c -0.0544,0.003 -0.12386,0.006 -0.18132,0.0487 l -0.21418,0.15752 c -0.74948,0.55 -1.52952,1.11777 -2.17925,1.82794 -0.34452,0.37471 -0.55309,0.72605 -0.45331,1.21258 l 0.0113,0.0476 0.042,0.0238 c 0.0906,0.0544 0.17834,0.0793 0.27198,0.0793 l 0.001,-0.001 c 0.10577,0 0.19408,-0.0335 0.35131,-0.0941 0.80989,-0.26591 1.41694,-0.82161 2.01833,-1.41996 0.36868,-0.36869 0.53524,-0.82805 0.64709,-1.23298 0.0604,-0.20854 0.0899,-0.47513 -0.17906,-0.63236 z"
       id="path3281"
       inkscape:connector-curvature="0" />
    <path
       style="fill:#f8a628;fill-opacity:1;fill-rule:nonzero;stroke:none;stroke-width:0.77363557"
       d="m 237.89195,126.4697 c -0.25991,0 -0.41941,0.13901 -0.56436,0.26291 l -0.38077,0.32411 c -0.20248,0.17526 -0.40542,0.35353 -0.61989,0.5077 -0.40797,0.29011 -0.72531,0.65804 -1.03353,1.01766 l -0.16319,0.18812 c -0.29007,0.33546 -0.36536,0.67391 -0.22325,1.04259 l 0.0295,0.0782 0.0816,-0.007 c 0.97611,-0.0967 2.37302,-1.1208 2.93513,-2.14525 0.25394,-0.4654 0.30141,-0.88281 0.13825,-1.20011 l -0.0272,-0.051 -0.0544,-0.009 c -0.0421,-0.007 -0.0817,-0.009 -0.11786,-0.009 z"
       id="path3279"
       inkscape:connector-curvature="0" />
    <path
       style="fill:#f8a628;fill-opacity:1;fill-rule:nonzero;stroke:none;stroke-width:0.77363557"
       d="m 52.507272,128.42229 -0.07593,0.0147 c -1.163475,0.1934 -1.885736,1.00633 -2.583821,1.79508 l -0.07593,0.085 c -0.386919,0.4382 -0.52885,0.95458 -0.407972,1.4925 l 0.02153,0.0975 0.09973,-0.0136 c 0.06044,-0.002 0.111447,-0.006 0.150723,-0.008 0.08765,-0.003 0.142405,-0.01 0.193786,-0.043 1.166496,-0.77667 2.00624,-1.51366 2.643885,-2.32657 0.25989,-0.33242 0.284823,-0.67958 0.07026,-1.03013 z"
       id="path3277"
       inkscape:connector-curvature="0" />
    <path
       style="fill:#f8a628;fill-opacity:1;fill-rule:nonzero;stroke:none;stroke-width:0.77363557"
       d="m 47.586678,128.71241 c -0.13297,0 -0.262163,0.0393 -0.38304,0.11786 -0.08764,0.0546 -0.181706,0.1062 -0.284448,0.15752 -0.117857,0.0605 -0.232315,0.12006 -0.341109,0.19265 -0.577204,0.39287 -1.39655,1.03391 -1.852873,2.02512 -0.09972,0.2176 -0.266316,0.57758 0.051,0.89188 l 0.0272,0.0272 0.126924,0.009 c 0.293134,0 0.499393,-0.17294 0.695819,-0.34224 l 0.319578,-0.27425 c 0.232695,-0.20853 0.46539,-0.41133 0.716217,-0.59269 0.41704,-0.30219 0.735104,-0.69165 1.040329,-1.06639 l 0.05666,-0.0725 c 0.265943,-0.32336 0.317698,-0.64369 0.157523,-0.97007 l -0.02153,-0.0419 -0.04533,-0.0158 c -0.09065,-0.0301 -0.17831,-0.0453 -0.262915,-0.0453 z"
       id="path3275"
       inkscape:connector-curvature="0" />
    <path
       style="fill:#f8a628;fill-opacity:1;fill-rule:nonzero;stroke:none;stroke-width:0.77363557"
       d="m 242.57343,129.46488 c -0.1904,0 -0.30561,0.10316 -0.45671,0.23912 l -0.48956,0.41364 c 0,0 -0.59458,0.50734 -0.84541,0.71282 -0.25081,0.20851 -0.62592,0.5296 -0.95533,0.90434 -0.27189,0.3143 -0.37437,0.67995 -0.30485,1.11512 l 0.0181,0.11786 0.11445,-0.0272 c 0.38378,-0.0876 0.82464,-0.20209 1.20239,-0.4499 0.82502,-0.53489 1.65907,-1.15176 1.9764,-2.27898 0.0634,-0.22666 0.139,-0.48313 -0.136,-0.73094 -0.0454,-0.0132 -0.0873,-0.0159 -0.12352,-0.0159 z"
       id="path3273"
       inkscape:connector-curvature="0" />
    <path
       style="fill:#f8a628;fill-opacity:1;fill-rule:nonzero;stroke:none;stroke-width:0.77363557"
       d="m 237.95541,129.70061 c -0.32337,0 -0.52279,0.17228 -0.71622,0.33544 l -0.29011,0.24818 c -0.24478,0.21456 -0.48957,0.42921 -0.75248,0.61649 -0.3566,0.25386 -0.62254,0.57647 -0.87941,0.89074 -0.0785,0.10287 -0.1624,0.2028 -0.24705,0.30258 -0.25372,0.29313 -0.29995,0.62896 -0.13372,1.02786 l 0.0397,0.0997 0.10313,-0.0397 c 1.17254,-0.44726 2.45388,-1.1087 3.04619,-2.63482 0.0816,-0.21456 0.19303,-0.5081 -0.085,-0.81028 l -0.0363,-0.0363 z"
       id="path3271"
       inkscape:connector-curvature="0" />
    <path
       style="fill:#f8a628;fill-opacity:1;fill-rule:nonzero;stroke:none;stroke-width:0.77363557"
       d="m 52.264755,131.69174 c -0.09671,0 -0.196425,0.0238 -0.308245,0.0782 -0.595338,0.28105 -1.120791,0.64067 -1.565026,1.06979 -0.383796,0.36869 -0.846542,0.88924 -1.045994,1.63869 -0.06044,0.21456 -0.09595,0.44113 0.18812,0.62556 0.0423,0.009 0.08425,0.0147 0.123525,0.0147 v 10e-4 c 0.226651,0 0.392867,-0.14283 0.589292,-0.30598 0.13599,-0.11182 0.271612,-0.22675 0.404573,-0.34452 0.223629,-0.19339 0.450657,-0.3838 0.683352,-0.56208 0.377751,-0.28711 0.710173,-0.61951 1.024463,-1.02447 0.181314,-0.2327 0.404955,-0.59496 0.262915,-1.0392 l -0.01246,-0.0397 -0.03626,-0.0215 c -0.09974,-0.0603 -0.205504,-0.0907 -0.308246,-0.0907 z"
       id="path3249"
       inkscape:connector-curvature="0" />
    <path
       style="fill:#f8a628;fill-opacity:1;fill-rule:nonzero;stroke:none;stroke-width:0.77363557"
       d="m 47.823528,131.95465 -0.07593,0.0158 c -1.072814,0.2327 -2.136184,0.97008 -2.707347,1.88574 -0.326451,0.51978 -0.441211,1.02446 -0.335443,1.45963 l 0.0204,0.0839 h 0.106526 c 0.326377,0 0.525822,-0.16574 0.716217,-0.32298 l 0.34111,-0.28444 c 0.299179,-0.25084 0.601756,-0.50166 0.910004,-0.74342 0.386815,-0.29919 0.667487,-0.67957 0.966667,-1.08452 0.247806,-0.33544 0.281042,-0.65313 0.09973,-0.94627 z"
       id="path3247"
       inkscape:connector-curvature="0" />
    <path
       style="fill:#f8a628;fill-opacity:1;fill-rule:nonzero;stroke:none;stroke-width:0.77363557"
       d="m 242.66749,132.70033 -0.0782,0.007 c -0.28106,0.0242 -0.4722,0.199 -0.6233,0.34111 l -0.46237,0.41137 c -0.21456,0.1934 -0.42535,0.38293 -0.65501,0.55529 -0.38683,0.29012 -0.68904,0.6588 -0.97914,1.0154 l -0.0612,0.0725 c -0.16308,0.20248 -0.46766,0.57758 -0.23799,1.05506 l 0.0238,0.0487 0.051,0.009 c 0.0544,0.0132 0.1122,0.0215 0.16659,0.0215 l -0.001,-0.001 c 0.21759,0 0.40201,-0.10007 0.5621,-0.18472 0.0484,-0.0241 0.0974,-0.0516 0.14279,-0.0691 1.1393,-0.50468 1.90915,-1.34517 2.29597,-2.50563 0.0876,-0.27198 0.14845,-0.54974 -0.15072,-0.74908 z"
       id="path3245"
       inkscape:connector-curvature="0" />
    <path
       style="fill:#f8a628;fill-opacity:1;fill-rule:nonzero;stroke:none;stroke-width:0.77363557"
       d="m 237.91915,132.89185 c -0.28406,0.0453 -0.50847,0.21747 -0.71395,0.38984 l -0.29238,0.25045 c -0.27803,0.23875 -0.55681,0.47785 -0.84994,0.70149 -0.41402,0.31427 -0.72454,0.71622 -0.9814,1.06979 -0.22961,0.31127 -0.29017,0.62519 -0.19039,0.9848 l 0.0215,0.0793 0.14166,0.002 c 0.21155,0 0.38372,-0.0385 0.55302,-0.12013 0.75548,-0.37474 1.4264,-0.90434 2.058,-1.61149 0.26291,-0.29919 0.43738,-0.67653 0.53716,-1.15705 0.0453,-0.21154 0.0552,-0.4472 -0.28332,-0.58929 z"
       id="path3243"
       inkscape:connector-curvature="0" />
    <path
       style="fill:#f8a628;fill-opacity:1;fill-rule:nonzero;stroke:none;stroke-width:0.77363557"
       d="m 52.507272,134.77759 -0.07933,0.0181 c -1.051663,0.20249 -1.764857,0.9663 -2.339039,1.57976 -0.57721,0.61649 -0.834074,1.25149 -0.788745,1.93447 l 0.0034,0.0873 0.08726,0.0158 c 0.06649,0.009 0.132974,0.0147 0.190387,0.0147 0.241763,0 0.389838,-0.0933 0.498632,-0.18699 l 0.215319,-0.18132 c 0.782701,-0.65275 1.589201,-1.32931 2.21778,-2.17245 0.238749,-0.32335 0.250453,-0.65314 0.03286,-1.03692 z"
       id="path3241"
       inkscape:connector-curvature="0" />
    <path
       style="fill:#f8a628;fill-opacity:1;fill-rule:nonzero;stroke:none;stroke-width:0.77363557"
       d="m 47.820129,135.18216 -0.07933,0.0215 c -1.081882,0.26291 -1.958264,0.8609 -2.683549,1.82794 -0.299186,0.3989 -0.579839,0.8949 -0.38644,1.55369 l 0.0306,0.0929 c 0,0 0.198694,-0.0331 0.24705,-0.0397 0.0816,-0.009 0.139005,-0.0152 0.190387,-0.0544 0.936824,-0.69506 1.913689,-1.45284 2.690347,-2.43196 0.205505,-0.2599 0.217207,-0.58969 0.03287,-0.90094 z"
       id="path3239"
       inkscape:connector-curvature="0" />
    <path
       style="fill:#f8a628;fill-opacity:1;fill-rule:nonzero;stroke:none;stroke-width:0.77363557"
       d="m 242.81821,136.05703 -0.0997,0.002 c -0.42006,0.0121 -0.62519,0.18728 -0.80347,0.34451 l -0.97687,0.84541 c -0.4805,0.41401 -0.84579,0.78271 -1.14799,1.16045 -0.22338,0.27502 -0.45074,0.65315 -0.23911,1.10946 l 0.0272,0.0578 0.13713,0.009 c 0.69809,-0.003 1.74975,-0.71244 2.62008,-1.77014 0.40504,-0.49561 0.56588,-1.03657 0.49636,-1.65908 z"
       id="path3237"
       inkscape:connector-curvature="0" />
    <path
       style="fill:#f8a628;fill-opacity:1;fill-rule:nonzero;stroke:none;stroke-width:0.77363557"
       d="m 237.86249,136.09216 c -0.0937,0 -0.18427,0.0362 -0.27199,0.1088 -0.24478,0.21758 -0.49899,0.41974 -0.75587,0.62216 -0.44424,0.35657 -0.90359,0.72302 -1.30551,1.14911 -0.14808,0.16018 -0.29581,0.32027 -0.43177,0.48957 -0.32025,0.38985 -0.22664,0.67384 -0.0907,0.84314 0.0907,0.11185 0.20174,0.16546 0.3377,0.16546 0.12996,0 0.26281,-0.0506 0.43517,-0.12013 0.82198,-0.32335 1.40562,-0.97383 1.92541,-1.54802 0.24175,-0.26897 0.34719,-0.59156 0.46803,-0.96327 0.0454,-0.14204 0.15411,-0.47485 -0.14506,-0.71055 -0.0574,-0.0252 -0.11414,-0.0363 -0.16545,-0.0363 z"
       id="path3235"
       inkscape:connector-curvature="0" />
    <path
       style="fill:#f8a628;fill-opacity:1;fill-rule:nonzero;stroke:none;stroke-width:0.77363557"
       d="m 47.801996,138.15582 c -0.698085,0 -1.752768,0.71056 -2.620085,1.77128 -0.407975,0.49258 -0.568129,1.03617 -0.498633,1.65568 l 0.01133,0.0997 0.103126,-0.002 c 0.420062,-0.009 0.622163,-0.18727 0.803478,-0.34451 l 0.973466,-0.84314 c 0.4805,-0.41704 0.846166,-0.78571 1.151387,-1.16045 0.220586,-0.27801 0.450279,-0.65312 0.235717,-1.10946 l -0.03059,-0.0601 z"
       id="path3233"
       inkscape:connector-curvature="0" />
    <path
       style="fill:#f8a628;fill-opacity:1;fill-rule:nonzero;stroke:none;stroke-width:0.77363557"
       d="m 52.165029,138.26801 c -0.123902,0 -0.253086,0.0518 -0.428371,0.12126 -0.831055,0.32941 -1.415057,0.97913 -1.9288,1.5503 -0.238739,0.26591 -0.344131,0.58853 -0.468035,0.96326 -0.07554,0.23573 -0.114835,0.50507 0.145057,0.71055 0.05741,0.023 0.115207,0.0363 0.166589,0.0363 0.09369,0 0.184349,-0.0367 0.271981,-0.11218 0.244783,-0.21456 0.498631,-0.42007 0.77968,-0.64369 0.43819,-0.34755 0.887716,-0.70641 1.280578,-1.12646 0.148079,-0.16017 0.296916,-0.32107 0.432903,-0.4873 0.320331,-0.39287 0.226647,-0.67384 0.09066,-0.84314 -0.09066,-0.11184 -0.206257,-0.16886 -0.342243,-0.16886 z"
       id="path3231"
       inkscape:connector-curvature="0" />
    <path
       style="fill:#f8a628;fill-opacity:1;fill-rule:nonzero;stroke:none;stroke-width:0.77363557"
       d="m 242.81254,139.06243 -0.0963,0.0181 -0.15185,0.0215 c -0.0785,0.009 -0.13907,0.0152 -0.19039,0.0544 -0.93682,0.69204 -1.91559,1.45095 -2.68921,2.4331 -0.2057,0.25989 -0.21843,0.58853 -0.034,0.89981 l 0.0431,0.0703 0.0782,-0.0215 c 1.08189,-0.26292 1.95826,-0.86431 2.68355,-1.83135 0.31427,-0.41703 0.57759,-0.8945 0.38417,-1.55029 z"
       id="path3229"
       inkscape:connector-curvature="0" />
    <path
       style="fill:#f8a628;fill-opacity:1;fill-rule:nonzero;stroke:none;stroke-width:0.77363557"
       d="m 237.93161,139.31401 c -0.24478,0 -0.39578,0.0993 -0.49863,0.18699 l -0.21418,0.18132 c -0.7797,0.64973 -1.58618,1.32628 -2.21778,2.17245 -0.23882,0.32033 -0.25154,0.65011 -0.034,1.03692 l 0.0397,0.0703 0.0793,-0.0147 c 1.04864,-0.20248 1.76485,-0.96743 2.33903,-1.58089 0.57729,-0.6165 0.83334,-1.25148 0.79102,-1.93447 l -0.007,-0.0873 -0.0873,-0.0159 c -0.0695,-0.0132 -0.13293,-0.0147 -0.19039,-0.0147 z"
       id="path3227"
       inkscape:connector-curvature="0" />
    <path
       style="fill:#f8a628;fill-opacity:1;fill-rule:nonzero;stroke:none;stroke-width:0.77363557"
       d="m 52.458542,141.372 c -0.211542,0 -0.383797,0.0354 -0.553029,0.12012 -0.755504,0.37474 -1.426013,0.90359 -2.054591,1.61376 -0.265939,0.29614 -0.441222,0.67391 -0.543963,1.15139 -0.0423,0.21456 -0.05213,0.44766 0.219852,0.58362 l 0.06686,0.0306 v -0.0227 c 0.28407,-0.0483 0.508073,-0.22054 0.710551,-0.38984 l 0.299179,-0.25611 c 0.278026,-0.23573 0.556052,-0.47521 0.843142,-0.69582 0.414017,-0.31431 0.724906,-0.71622 0.984798,-1.06979 0.229672,-0.31428 0.290124,-0.62518 0.190387,-0.98481 l -0.02153,-0.0782 z"
       id="path3225"
       inkscape:connector-curvature="0" />
    <path
       style="fill:#f8a628;fill-opacity:1;fill-rule:nonzero;stroke:none;stroke-width:0.77363557"
       d="m 47.70227,141.50459 c -0.217586,0 -0.402692,0.1 -0.550762,0.17566 -0.05138,0.0303 -0.102741,0.0563 -0.154123,0.0782 -1.1393,0.50167 -1.909157,1.34519 -2.295975,2.50562 -0.08764,0.26897 -0.148457,0.54953 0.150723,0.74909 l 0.03286,0.0204 0.03966,-0.001 c 0.278025,-0.0242 0.458978,-0.18741 0.622158,-0.33544 l 0.441969,-0.39664 c 0.220608,-0.19945 0.437437,-0.39514 0.673154,-0.57343 0.392861,-0.29313 0.692418,-0.66182 0.982532,-1.01539 l 0.06006,-0.0759 c 0.163191,-0.20246 0.46879,-0.57721 0.239117,-1.05166 l -0.0238,-0.0487 -0.05213,-0.0125 c -0.05439,-0.011 -0.11107,-0.0181 -0.165456,-0.0182 z"
       id="path3223"
       inkscape:connector-curvature="0" />
    <path
       style="fill:#f8a628;fill-opacity:1;fill-rule:nonzero;stroke:none;stroke-width:0.77363557"
       d="m 242.68222,142.34206 c -0.32638,0 -0.52587,0.1629 -0.71622,0.32298 l -0.31391,0.25952 c -0.30825,0.25989 -0.6199,0.52054 -0.9372,0.76835 -0.3838,0.29616 -0.66445,0.67619 -0.96667,1.08112 -0.24781,0.33849 -0.28108,0.65956 -0.0997,0.94967 l 0.043,0.0635 0.0748,-0.0158 c 1.07583,-0.2327 2.13732,-0.97308 2.70848,-1.88574 0.32667,-0.51978 0.44114,-1.0237 0.33544,-1.4619 l -0.0227,-0.0816 z"
       id="path3221"
       inkscape:connector-curvature="0" />
    <path
       style="fill:#f8a628;fill-opacity:1;fill-rule:nonzero;stroke:none;stroke-width:0.77363557"
       d="m 237.85682,142.62198 c -0.22664,0 -0.38381,0.13269 -0.58929,0.30485 -0.13599,0.11181 -0.27168,0.22732 -0.40458,0.34224 -0.22666,0.19342 -0.44989,0.38607 -0.68562,0.56436 -0.37471,0.28708 -0.71095,0.62253 -1.02219,1.02446 -0.19647,0.25386 -0.40195,0.59873 -0.26292,1.03693 l 0.0113,0.0419 0.0363,0.0227 c 0.10274,0.0605 0.20562,0.0873 0.30825,0.0873 l 10e-4,-0.001 c 0.0997,0 0.1964,-0.0235 0.30824,-0.0748 0.59536,-0.28105 1.1208,-0.64067 1.56503,-1.06979 0.3838,-0.37171 0.84951,-0.89529 1.04599,-1.63869 0.0604,-0.21458 0.0994,-0.44112 -0.18471,-0.62555 -0.0454,-0.0132 -0.0877,-0.0147 -0.12693,-0.0147 z"
       id="path3219"
       inkscape:connector-curvature="0" />
    <path
       style="fill:#f8a628;fill-opacity:1;fill-rule:nonzero;stroke:none;stroke-width:0.77363557"
       d="m 52.536736,144.52018 -0.101992,0.0397 c -1.17254,0.44724 -2.456896,1.10944 -3.04619,2.63255 -0.08158,0.21454 -0.19719,0.51038 0.08386,0.81255 l 0.03627,0.0363 h 0.04873 c 0.320333,0 0.519792,-0.17148 0.716217,-0.33771 l 0.30258,-0.25725 c 0.238739,-0.21156 0.480123,-0.4196 0.740015,-0.60403 0.353577,-0.25385 0.619135,-0.58061 0.921337,-0.94626 l 0.202852,-0.24819 c 0.256864,-0.29313 0.302197,-0.62782 0.135991,-1.02672 z"
       id="path3217"
       inkscape:connector-curvature="0" />
    <path
       style="fill:#f8a628;fill-opacity:1;fill-rule:nonzero;stroke:none;stroke-width:0.77363557"
       d="m 47.974251,144.77403 -0.115592,0.0272 c -0.383796,0.0876 -0.824629,0.20286 -1.202384,0.44764 -0.825008,0.53489 -1.659085,1.15403 -1.976397,2.28124 -0.06346,0.22664 -0.139011,0.48314 0.135991,0.73095 0.04533,0.009 0.08425,0.0158 0.123525,0.0158 h 0.0012 c 0.187364,0 0.304472,-0.10315 0.455569,-0.23912 l 0.489566,-0.41703 c 0.281048,-0.2357 0.562474,-0.47712 0.846542,-0.71282 0.250827,-0.2055 0.622535,-0.52318 0.951934,-0.90094 0.275,-0.3143 0.374737,-0.67921 0.308246,-1.11739 z"
       id="path3215"
       inkscape:connector-curvature="0" />
    <path
       style="fill:#f8a628;fill-opacity:1;fill-rule:nonzero;stroke:none;stroke-width:0.77363557"
       d="m 242.58476,145.60471 c -0.29314,0 -0.49874,0.17488 -0.69808,0.34111 l -0.30825,0.26858 c -0.23875,0.20851 -0.47482,0.41733 -0.72868,0.60176 -0.41704,0.30219 -0.73058,0.68863 -1.0358,1.06639 l -0.0635,0.0725 c -0.26294,0.32335 -0.31195,0.64068 -0.15186,0.97007 l 0.0227,0.043 0.042,0.0125 c 0.0905,0.0329 0.17826,0.0487 0.26291,0.0487 l -0.001,-0.002 c 0.13296,0 0.26334,-0.0424 0.38418,-0.11786 0.0847,-0.0544 0.1726,-0.10006 0.28444,-0.15752 0.11787,-0.0605 0.23234,-0.12006 0.34111,-0.19265 0.57722,-0.39588 1.39957,-1.0373 1.85287,-2.02853 0.1329,-0.29011 0.23871,-0.5976 -0.0544,-0.89074 l -0.0249,-0.025 z"
       id="path3213"
       inkscape:connector-curvature="0" />
    <path
       style="fill:#f8a628;fill-opacity:1;fill-rule:nonzero;stroke:none;stroke-width:0.77363557"
       d="m 238.1288,145.83249 c 0,0 -0.20893,0.0216 -0.24818,0.0238 -0.0908,0.003 -0.14474,0.006 -0.19606,0.042 -1.16951,0.77665 -2.01039,1.51439 -2.64501,2.32431 -0.25987,0.33544 -0.28416,0.67995 -0.0725,1.03353 l 0.0397,0.0589 0.0759,-0.0102 c 1.16346,-0.19342 1.88572,-1.00632 2.58382,-1.79507 l 0.0759,-0.085 c 0.38606,-0.43821 0.52881,-0.95496 0.40797,-1.4959 z"
       id="path3211"
       inkscape:connector-curvature="0" />
    <path
       style="fill:#f8a628;fill-opacity:1;fill-rule:nonzero;stroke:none;stroke-width:0.77363557"
       d="m 52.5764,147.84855 -0.08159,0.009 c -0.97611,0.0967 -2.371904,1.11777 -2.933998,2.14525 -0.253838,0.46539 -0.302197,0.87979 -0.13599,1.20012 l 0.0238,0.051 0.0544,0.009 c 0.0423,0.007 0.08159,0.009 0.117859,0.009 0.256871,0 0.417424,-0.13901 0.565494,-0.26292 0,0 0.275006,-0.23273 0.380774,-0.32637 0.202476,-0.17527 0.404196,-0.35014 0.618757,-0.5043 0.40495,-0.28708 0.722261,-0.65917 1.033529,-1.0188 l 0.163189,-0.18698 c 0.287094,-0.32939 0.363397,-0.68297 0.224384,-1.0426 z"
       id="path3209"
       inkscape:connector-curvature="0" />
    <path
       style="fill:#f8a628;fill-opacity:1;fill-rule:nonzero;stroke:none;stroke-width:0.77363557"
       d="m 47.671672,148.00154 c -0.102748,0 -0.196053,0.0332 -0.350176,0.0907 -0.809899,0.26897 -1.418079,0.82502 -2.019461,1.42337 -0.368684,0.36566 -0.534135,0.82879 -0.645955,1.23072 -0.05741,0.21153 -0.09104,0.47738 0.177921,0.63462 l 0.07253,0.0272 0.06346,-0.0125 c 0.05438,0 0.123909,-0.003 0.181321,-0.0453 l 0.217585,-0.15979 c 0.752483,-0.55002 1.529138,-1.12155 2.17585,-1.82567 0.299178,-0.32639 0.562096,-0.69773 0.453302,-1.21145 l -0.01246,-0.0487 -0.04193,-0.0272 c -0.09067,-0.0513 -0.181323,-0.0759 -0.271981,-0.0759 z"
       id="path3207"
       inkscape:connector-curvature="0" />
    <path
       style="fill:#f8a628;fill-opacity:1;fill-rule:nonzero;stroke:none;stroke-width:0.77363557"
       d="m 242.53829,148.71209 -0.0453,0.0328 c -0.90963,0.66182 -1.94089,1.41166 -2.74475,2.41497 -0.25394,0.31428 -0.30789,0.64066 -0.16885,0.97006 l 0.017,0.0385 0.0397,0.0159 c 0.0968,0.0445 0.18733,0.0669 0.27198,0.0669 h 0.001 c 0.0634,0 0.12701,-0.0121 0.19039,-0.0363 0.93682,-0.36266 1.72216,-1.00333 2.47163,-2.01267 0.1782,-0.24177 0.29005,-0.56587 0.33544,-0.9678 0.0211,-0.18434 0.003,-0.40791 -0.31391,-0.50769 z"
       id="path3205"
       inkscape:connector-curvature="0" />
    <path
       style="fill:#f8a628;fill-opacity:1;fill-rule:nonzero;stroke:none;stroke-width:0.77363557"
       d="m 237.91348,149.05093 c -0.19645,0 -0.32367,0.0722 -0.49297,0.20513 -0.81896,0.6467 -1.66776,1.31798 -2.36283,2.14298 -0.22369,0.26594 -0.27536,0.56475 -0.16659,1.00294 l 0.025,0.0952 0.0975,-0.0136 c 1.3448,-0.16621 2.10595,-1.09737 2.77987,-1.91633 0.38685,-0.46842 0.51707,-0.99123 0.35698,-1.43244 l -0.0227,-0.0601 -0.0635,-0.0136 c -0.0544,-0.009 -0.10533,-0.0102 -0.15072,-0.0102 z"
       id="path3203"
       inkscape:connector-curvature="0" />
    <path
       style="fill:#f8a628;fill-opacity:1;fill-rule:nonzero;stroke:none;stroke-width:0.77363557"
       d="m 47.602544,151.0874 c -0.06044,0 -0.111821,0.01 -0.154123,0.0272 -1.066772,0.48654 -1.892157,1.16953 -2.460297,2.03079 -0.205502,0.31128 -0.550005,0.83749 -0.262916,1.4177 l 0.08499,0.0907 0.09066,0.001 c 0.281046,0 0.459356,-0.16048 0.652755,-0.32978 l 0.208519,-0.18132 c 0.335443,-0.29314 0.673154,-0.58969 1.017663,-0.87374 0.344511,-0.28408 0.655778,-0.63425 1.006331,-1.13892 0.232697,-0.33244 0.278017,-0.63802 0.145056,-0.9644 l -0.02719,-0.0657 h -0.0748 c -0.01812,0 -0.226651,-0.0136 -0.226651,-0.0136 z"
       id="path3201"
       inkscape:connector-curvature="0" />
    <path
       style="fill:#f8a628;fill-opacity:1;fill-rule:nonzero;stroke:none;stroke-width:0.77363557"
       d="m 52.175228,151.14746 c -0.07857,0 -0.163178,0.0208 -0.262915,0.0601 -0.855231,0.35055 -1.593358,0.93722 -2.191716,1.74408 -0.25082,0.33846 -0.561717,0.86164 -0.332043,1.4721 l 0.0204,0.0601 0.0612,0.0136 c 0.07252,0.011 0.132601,0.017 0.186987,0.017 0.120869,0 0.217579,-0.0336 0.299179,-0.10312 0.178299,-0.1511 0.360381,-0.29961 0.541697,-0.44764 0.643688,-0.52886 1.308154,-1.07205 1.864205,-1.72482 0.09369,-0.11181 0.211537,-0.25462 0.244783,-0.48729 0.03022,-0.19946 0.03929,-0.40146 -0.181321,-0.5315 -0.08462,-0.0485 -0.165823,-0.0725 -0.25045,-0.0725 z"
       id="path3199"
       inkscape:connector-curvature="0" />
    <path
       style="fill:#f8a628;fill-opacity:1;fill-rule:nonzero;stroke:none;stroke-width:0.77363557"
       d="m 242.51677,151.98833 c -0.0936,0 -0.1756,0.0303 -0.24819,0.0907 -0.19039,0.16321 -0.38041,0.31696 -0.63122,0.52243 -0.6709,0.54398 -1.36369,1.10871 -1.91973,1.80075 -0.22062,0.27502 -0.27244,0.57418 -0.15753,0.91567 l 0.0283,0.0884 0.0929,-0.0158 c 1.14836,-0.18737 2.09199,-0.83028 2.88074,-1.9696 0.18136,-0.2629 0.56209,-0.81066 0.18132,-1.37577 -0.0786,-0.0355 -0.15714,-0.0567 -0.22665,-0.0567 z"
       id="path3197"
       inkscape:connector-curvature="0" />
    <path
       style="fill:#f8a628;fill-opacity:1;fill-rule:nonzero;stroke:none;stroke-width:0.77363557"
       d="m 237.95881,152.07333 -0.12579,0.10312 c -0.20853,0.16924 -0.41708,0.335 -0.63462,0.5043 -0.74945,0.5893 -1.5235,1.19974 -2.12486,1.9764 -0.0816,0.1088 -0.30475,0.39549 -0.18699,0.75815 l 0.017,0.0544 0.0544,0.0181 c 0.11485,0.0338 0.23614,0.051 0.35698,0.051 v 0.001 c 0.55303,0 1.16649,-0.35963 1.87667,-1.097 0.53491,-0.55302 1.14233,-1.18198 0.81594,-2.21551 z"
       id="path3195"
       inkscape:connector-curvature="0" />
    <path
       style="fill:#f8a628;fill-opacity:1;fill-rule:nonzero;stroke:none;stroke-width:0.77363557"
       d="m 52.177494,154.37837 c -0.05741,0 -0.121255,0.0109 -0.18472,0.0328 -0.927759,0.31127 -1.722548,0.95495 -2.357171,1.91293 -0.172259,0.25687 -0.525077,0.79555 -0.201719,1.35764 0.08462,0.0513 0.159795,0.0782 0.232317,0.0782 0.07252,0 0.136375,-0.0237 0.193787,-0.0691 l 0.355842,-0.28445 c 0.764568,-0.60441 1.560113,-1.23296 2.209848,-2.0036 0.129934,-0.15712 0.195723,-0.34107 0.192653,-0.54963 -0.003,-0.27796 -0.183966,-0.47483 -0.440837,-0.47483 z"
       id="path3193"
       inkscape:connector-curvature="0" />
    <path
       style="fill:#f8a628;fill-opacity:1;fill-rule:nonzero;stroke:none;stroke-width:0.77363557"
       d="m 47.432555,154.4883 c -0.09066,0 -0.181323,0.0246 -0.271981,0.0759 -1.021441,0.55 -1.72217,1.16311 -2.199649,1.92767 -0.196436,0.3143 -0.526208,0.84351 -0.239116,1.43583 l 0.02493,0.0487 0.051,0.0113 c 0.06044,0.011 0.112194,0.017 0.157523,0.017 v 10e-4 c 0.154114,0 0.24742,-0.0635 0.313911,-0.11786 l 0.486167,-0.41024 c 0.450279,-0.37776 0.897915,-0.75286 1.327042,-1.15479 0.311265,-0.29313 0.565504,-0.66748 0.774013,-0.97573 0.129956,-0.1934 0.171877,-0.48094 -0.03059,-0.68335 -0.114836,-0.11491 -0.248173,-0.17566 -0.393239,-0.17566 z"
       id="path3191"
       inkscape:connector-curvature="0" />
    <path
       style="fill:#f8a628;fill-opacity:1;fill-rule:nonzero;stroke:none;stroke-width:0.77363557"
       d="m 242.50997,155.20678 c -0.15722,0 -0.29013,0.1084 -0.37171,0.17792 l -0.39324,0.33205 c -0.36566,0.30521 -0.73398,0.61384 -1.08453,0.9372 -0.30221,0.27502 -0.5806,0.58626 -0.87374,0.91566 l -0.0691,0.0782 c -0.26886,0.29916 -0.29013,0.6165 -0.0635,0.961 l 0.0453,0.0646 0.0725,-0.0159 c 1.13326,-0.25988 1.89177,-0.9489 2.48409,-1.58656 0.27197,-0.29313 0.39246,-0.635 0.53149,-1.01879 l 0.0816,-0.21986 c 0.0847,-0.2055 0.0309,-0.42312 -0.12919,-0.54396 -0.0725,-0.0544 -0.15155,-0.0816 -0.23005,-0.0816 z"
       id="path3189"
       inkscape:connector-curvature="0" />
    <path
       style="fill:#f8a628;fill-opacity:1;fill-rule:nonzero;stroke:none;stroke-width:0.77363557"
       d="m 237.98375,155.46629 c -0.3022,0 -0.48741,0.15682 -0.63236,0.27765 l -0.35924,0.31165 c -0.25387,0.22061 -0.50734,0.4416 -0.77628,0.64708 -0.37777,0.29314 -0.68335,0.64974 -0.9916,1.00634 l -0.0612,0.0725 c -0.18423,0.21457 -0.41368,0.54964 -0.25951,0.9848 l 0.0283,0.0782 0.0816,-0.007 c 0.90358,-0.0483 2.13013,-0.8284 2.78895,-1.77128 0.28108,-0.40495 0.5448,-0.90018 0.36037,-1.51969 l -0.0227,-0.0691 z"
       id="path3187"
       inkscape:connector-curvature="0" />
    <path
       style="fill:#f8a628;fill-opacity:1;fill-rule:nonzero;stroke:none;stroke-width:0.77363557"
       d="m 52.135564,157.62741 c -0.126926,0 -0.251208,0.0449 -0.356976,0.0873 -0.84314,0.33847 -1.4449,0.96703 -1.988862,1.5775 -0.275,0.30824 -0.392496,0.6977 -0.477101,1.03919 -0.03325,0.14204 -0.09368,0.40486 0.163189,0.58929 0.05744,0.0239 0.114842,0.0397 0.172255,0.0397 0.111811,0 0.217201,-0.0454 0.313912,-0.12693 0.238741,-0.20549 0.484278,-0.40161 0.741149,-0.60402 0.604401,-0.47748 1.226182,-0.97309 1.706682,-1.62283 0.123903,-0.16922 0.24554,-0.38985 0.151856,-0.77967 -0.132967,-0.13597 -0.268955,-0.19946 -0.426104,-0.19946 z"
       id="path3183"
       inkscape:connector-curvature="0" />
    <path
       style="fill:#f8a628;fill-opacity:1;fill-rule:nonzero;stroke:none;stroke-width:0.77363557"
       d="m 47.472219,157.91752 c -0.673908,0 -1.159696,0.45896 -1.588824,0.86695 l -0.09406,0.0907 c -0.531875,0.49562 -1.333093,1.24508 -1.127589,2.35717 l 0.0091,0.0578 0.051,0.0238 c 0.09671,0.0458 0.175661,0.0635 0.248183,0.0635 v 0.001 c 0.07555,0 0.1394,-0.0218 0.193787,-0.0703 0.199452,-0.17226 0.39853,-0.34115 0.622156,-0.5315 0.667867,-0.56813 1.362552,-1.15703 1.9458,-1.84607 0.202434,-0.23873 0.269717,-0.52659 0.206252,-0.87714 l -0.01246,-0.0725 -0.06913,-0.0147 c -0.129948,-0.0309 -0.257244,-0.0487 -0.384174,-0.0487 z"
       id="path3181"
       inkscape:connector-curvature="0" />
    <path
       style="fill:#f8a628;fill-opacity:1;fill-rule:nonzero;stroke:none;stroke-width:0.77363557"
       d="m 242.62782,158.20424 c -0.27197,0 -0.44734,0.15675 -0.63462,0.32298 l -0.32071,0.29011 c -0.23873,0.22062 -0.48315,0.44186 -0.74001,0.64142 -0.4231,0.32638 -0.74908,0.73398 -1.0664,1.12986 l -0.0487,0.0635 c -0.25986,0.32336 -0.33209,0.65576 -0.23231,0.961 l 0.0725,0.1054 0.22325,0.007 c 0.25686,0 0.39852,-0.0687 0.93947,-0.38303 0.97912,-0.57117 1.63189,-1.26359 1.99453,-2.12486 0.0877,-0.20851 0.25384,-0.59193 -0.0363,-0.96667 l -0.0295,-0.0397 z"
       id="path3179"
       inkscape:connector-curvature="0" />
    <path
       style="fill:#f8a628;fill-opacity:1;fill-rule:nonzero;stroke:none;stroke-width:0.77363557"
       d="m 238.04381,158.70287 c -0.37777,0 -0.59866,0.18695 -0.81028,0.36831 l -0.27198,0.23345 c -0.26895,0.2327 -0.53716,0.46234 -0.81821,0.67089 -0.35358,0.26291 -0.61991,0.60138 -0.88281,0.9338 l -0.18132,0.22892 c -0.25394,0.3143 -0.30555,0.60782 -0.15752,0.89187 l 0.0306,0.0589 0.0691,-0.001 c 0.87641,-0.0212 2.05193,-0.79781 2.80141,-1.84947 0.29017,-0.40798 0.53186,-0.86733 0.32638,-1.45963 l -0.0238,-0.0759 z"
       id="path3177"
       inkscape:connector-curvature="0" />
    <path
       style="fill:#f8a628;fill-opacity:1;fill-rule:nonzero;stroke:none;stroke-width:0.77363557"
       d="m 52.573001,160.68833 -0.09293,0.0238 c -1.254136,0.30219 -2.042883,1.06754 -2.710747,1.8472 -0.278026,0.32336 -0.392872,0.72757 -0.462368,1.04487 -0.04232,0.20853 -0.0578,0.43527 0.177921,0.58023 l 0.126925,0.0125 c 0.226651,-0.003 0.383792,-0.13569 0.57116,-0.29578 l 0.313912,-0.26971 c 0.253849,-0.21759 0.505053,-0.43441 0.774013,-0.62783 0.362641,-0.26291 0.637268,-0.60138 0.903205,-0.92473 0.08462,-0.10575 0.172257,-0.20935 0.262915,-0.31505 0.244781,-0.28405 0.302948,-0.61574 0.169988,-0.9814 z"
       id="path3175"
       inkscape:connector-curvature="0" />
    <path
       style="fill:#f8a628;fill-opacity:1;fill-rule:nonzero;stroke:none;stroke-width:0.77363557"
       d="m 47.593478,161.18697 c -1.429411,0.39287 -2.430455,1.32705 -2.980462,2.76854 -0.105774,0.27802 -0.07252,0.4922 0.135991,0.68562 0.06347,0.0252 0.127682,0.0363 0.18812,0.0363 0.208518,0 0.355855,-0.12654 0.500899,-0.25045 0.4805,-0.41401 0.957979,-0.83407 1.432435,-1.25111 l 0.179054,-0.15752 c 0.278024,-0.24176 0.48881,-0.54132 0.718484,-0.86467 0.108706,-0.15411 0.360374,-0.51034 0.115592,-0.85788 l -0.126925,-0.0816 z"
       id="path3173"
       inkscape:connector-curvature="0" />
    <path
       style="fill:#f8a628;fill-opacity:1;fill-rule:nonzero;stroke:none;stroke-width:0.77363557"
       d="m 242.56436,161.56774 c -0.12394,0 -0.22967,0.0389 -0.32637,0.12352 l -0.47144,0.39664 c -0.67995,0.56511 -1.38069,1.14837 -1.96393,1.85854 -0.25083,0.31128 -0.32417,0.6826 -0.22439,1.02106 l 0.0487,0.0873 0.10539,0.0397 c 0.0395,0.0118 0.079,0.0272 0.13033,0.0272 0.0635,-0.003 0.14814,-0.009 0.22665,-0.0397 1.0577,-0.43517 1.89744,-1.13286 2.49882,-2.07272 0.20878,-0.32938 0.52281,-0.82237 0.21759,-1.36331 l -0.0238,-0.0351 -0.0419,-0.0159 c -0.0573,-0.0184 -0.1182,-0.0272 -0.17565,-0.0272 z"
       id="path3171"
       inkscape:connector-curvature="0" />
    <path
       style="fill:#f8a628;fill-opacity:1;fill-rule:nonzero;stroke:none;stroke-width:0.77363557"
       d="m 237.92821,161.97231 c -0.30521,0 -0.48926,0.15188 -0.64935,0.28785 l -0.40797,0.33544 c -0.32941,0.27198 -0.65916,0.54019 -0.98253,0.81821 -0.3022,0.25384 -0.57645,0.58703 -0.84541,1.01313 -0.10636,0.16621 -0.30295,0.47749 -0.12466,0.82501 l 0.0272,0.0544 0.14846,0.007 c 0.75853,0 1.65909,-0.57418 2.52942,-1.61376 0.38371,-0.45934 0.71293,-0.93079 0.54056,-1.63188 l -0.017,-0.0725 -0.0725,-0.0136 c -0.0515,-0.007 -0.10079,-0.009 -0.14619,-0.009 z"
       id="path3169"
       inkscape:connector-curvature="0" />
    <path
       style="fill:#f8a628;fill-opacity:1;fill-rule:nonzero;stroke:none;stroke-width:0.77363557"
       d="m 52.563934,163.94417 -0.08726,0.017 c -1.051662,0.21459 -2.109742,0.93419 -2.696014,1.82568 -0.344518,0.52581 -0.476725,1.03957 -0.38304,1.48683 l 0.01473,0.0691 0.07253,0.0158 c 0.05136,0.011 0.102368,0.017 0.150723,0.017 v 10e-4 c 0.250827,0 0.407973,-0.13554 0.607425,-0.30484 0.09973,-0.0846 0.360375,-0.30825 0.360375,-0.30825 0.220608,-0.19039 0.444236,-0.38373 0.679953,-0.55303 0.368684,-0.26291 0.643312,-0.59571 0.91227,-0.91907 l 0.223252,-0.26518 c 0.262916,-0.30221 0.326387,-0.65993 0.181321,-0.9984 z"
       id="path3145"
       inkscape:connector-curvature="0" />
    <path
       style="fill:#f8a628;fill-opacity:1;fill-rule:nonzero;stroke:none;stroke-width:0.77363557"
       d="m 47.880191,164.18329 -0.0816,0.0215 c -1.003309,0.22666 -1.855139,0.79554 -2.680148,1.78374 -0.410971,0.4956 -0.55606,1.00294 -0.426104,1.51063 l 0.01133,0.0578 0.05213,0.0215 c 0.105769,0.0428 0.186993,0.0601 0.259515,0.0601 v -0.001 c 0.06952,0 0.136001,-0.0211 0.190387,-0.0635 l 0.130324,-0.0963 c 0.879408,-0.66183 1.785256,-1.34857 2.46823,-2.26425 0.166228,-0.22364 0.330154,-0.53489 0.115592,-0.95193 z"
       id="path3143"
       inkscape:connector-curvature="0" />
    <path
       style="fill:#f8a628;fill-opacity:1;fill-rule:nonzero;stroke:none;stroke-width:0.77363557"
       d="m 242.55529,164.78505 -0.41703,0.33205 c -0.8643,0.67995 -1.75504,1.38784 -2.43197,2.33677 -0.18683,0.25987 -0.2395,0.52281 -0.16998,0.75248 l 0.0601,0.0963 0.0884,0.0136 c 0.1209,0.0217 0.24148,0.0385 0.35924,0.0385 v -0.001 c 0.17528,0 0.32674,-0.0385 0.46577,-0.12013 0.71923,-0.43214 1.31457,-0.91603 1.81321,-1.48116 0.34752,-0.38985 0.48271,-0.85522 0.58249,-1.26018 0.0544,-0.21156 0.0669,-0.47746 -0.28671,-0.67089 z"
       id="path3141"
       inkscape:connector-curvature="0" />
    <path
       style="fill:#f8a628;fill-opacity:1;fill-rule:nonzero;stroke:none;stroke-width:0.77363557"
       d="m 237.97128,165.09783 -0.0453,0.0181 c -0.63162,0.26897 -2.57513,1.91897 -2.8864,2.44783 -0.15307,0.2599 -0.27763,0.55569 -0.14166,0.94854 l 0.0363,0.10766 0.10879,-0.0397 c 0.12693,-0.0485 0.24821,-0.0722 0.38417,-0.0963 0.1511,-0.0272 0.3048,-0.0577 0.45897,-0.13032 0.7948,-0.37774 1.36559,-1.00067 1.92767,-1.66248 0.25384,-0.29919 0.34785,-0.69166 0.42044,-1.0664 0.0574,-0.31125 -0.0875,-0.44684 -0.21759,-0.5043 z"
       id="path3139"
       inkscape:connector-curvature="0" />
    <path
       style="fill:#f8a628;fill-opacity:1;fill-rule:nonzero;stroke:none;stroke-width:0.77363557"
       d="m 52.467608,167.13996 -0.09406,0.043 c -0.126926,0.0514 -0.25348,0.0994 -0.386441,0.15073 -0.259892,0.10274 -0.507322,0.19673 -0.730949,0.33884 -0.704129,0.45329 -1.557093,1.1204 -1.874404,2.29598 -0.07555,0.27802 -0.117857,0.52282 0.172255,0.74341 l 0.103126,0.0125 c 0.175279,-0.003 0.289726,-0.11788 0.404572,-0.22665 0.299178,-0.29313 0.622537,-0.56247 0.942868,-0.82841 l 0.08839,-0.0725 c 0.163189,-0.13599 0.325991,-0.2746 0.486167,-0.41364 0.302199,-0.26594 0.565118,-0.58023 0.843141,-0.91567 0.275001,-0.32637 0.305596,-0.6554 0.09406,-1.03919 z"
       id="path3137"
       inkscape:connector-curvature="0" />
    <path
       style="fill:#f8a628;fill-opacity:1;fill-rule:nonzero;stroke:none;stroke-width:0.77363557"
       d="m 47.876791,167.4244 -0.07819,0.0147 c -1.187651,0.22364 -1.988862,0.98592 -2.614419,1.70215 -0.438189,0.50164 -0.60364,1.05166 -0.500899,1.68628 l 0.0204,0.11446 0.115592,-0.0272 c 0.06647,-0.0149 0.120126,-0.024 0.165455,-0.0306 0.09067,-0.0151 0.160165,-0.0268 0.253849,-0.0963 0.89754,-0.69507 1.828319,-1.41166 2.556624,-2.33338 0.102675,-0.12693 0.372085,-0.47106 0.121258,-0.9576 z"
       id="path3135"
       inkscape:connector-curvature="0" />
    <path
       style="fill:#f8a628;fill-opacity:1;fill-rule:nonzero;stroke:none;stroke-width:0.77363557"
       d="m 242.64255,168.20408 c -0.28405,0 -0.456,0.15409 -0.65841,0.33545 -0.45632,0.39587 -0.91304,0.79175 -1.37238,1.18765 -0.32032,0.278 -0.61573,0.61987 -0.90887,1.04599 -0.0901,0.12994 -0.33318,0.47672 -0.0975,0.89074 l 0.0374,0.0646 0.0748,-0.009 c 0.93681,-0.12693 1.95599,-0.78193 2.59061,-1.67041 0.43222,-0.60743 0.61567,-1.22996 0.50997,-1.74975 l -0.0147,-0.0816 z"
       id="path3133"
       inkscape:connector-curvature="0" />
    <path
       style="fill:#f8a628;fill-opacity:1;fill-rule:nonzero;stroke:none;stroke-width:0.77363557"
       d="m 237.93728,168.32421 -0.0748,0.0215 c -0.0485,0.006 -0.11561,0.0155 -0.16999,0.0578 -0.90057,0.67996 -1.84304,1.43204 -2.62576,2.33564 -0.20767,0.24176 -0.2777,0.53565 -0.20511,0.87714 l 0.0147,0.0816 0.085,0.007 c 0.17831,0.009 0.30219,0.017 0.3989,0.017 v -0.001 c 0.23573,0 0.33204,-0.0487 0.59496,-0.17566 0.76457,-0.36868 1.32101,-0.98481 1.87101,-1.63755 0.2628,-0.30826 0.35358,-0.71698 0.40797,-1.07659 0.0483,-0.31721 -0.11821,-0.44417 -0.25725,-0.48957 z"
       id="path3131"
       inkscape:connector-curvature="0" />
    <path
       style="fill:#f8a628;fill-opacity:1;fill-rule:nonzero;stroke:none;stroke-width:0.77363557"
       d="m 52.43701,170.47966 c -0.758526,0 -1.863828,0.71923 -2.631418,1.71348 -0.265939,0.34147 -0.59835,0.87337 -0.43517,1.57749 l 0.01473,0.0782 c 0,0 0.145435,0.009 0.175654,0.009 0.308246,0 0.477106,-0.14161 0.658421,-0.29578 0.214564,-0.18133 1.082259,-0.92247 1.082259,-0.92247 0.444237,-0.37171 0.806877,-0.73701 1.106057,-1.11172 0.139013,-0.17529 0.432149,-0.53752 0.208519,-0.9848 l -0.02493,-0.0544 c -0.05741,-0.002 -0.135921,-0.009 -0.154122,-0.009 z"
       id="path3129"
       inkscape:connector-curvature="0" />
    <path
       style="fill:#f8a628;fill-opacity:1;fill-rule:nonzero;stroke:none;stroke-width:0.77363557"
       d="m 47.484685,170.75051 c -0.0695,0 -0.139397,0.0125 -0.211919,0.0397 -0.831055,0.30825 -1.549916,0.873 -2.199648,1.72822 -0.392787,0.51072 -0.517135,0.99198 -0.384174,1.46643 l 0.01473,0.051 0.04873,0.0215 c 0.09369,0.0386 0.171888,0.0612 0.241383,0.0612 v -0.001 c 0.07555,0 0.14544,-0.0241 0.202853,-0.0725 l 0.338843,-0.26632 c 0.776656,-0.61349 1.579758,-1.25074 2.232513,-2.03646 0.211557,-0.25386 0.266312,-0.50806 0.175654,-0.76495 l -0.06913,-0.0816 c -0.114836,-0.0726 -0.229665,-0.14506 -0.38984,-0.14506 z"
       id="path3127"
       inkscape:connector-curvature="0" />
    <path
       style="fill:#f8a628;fill-opacity:1;fill-rule:nonzero;stroke:none;stroke-width:0.77363557"
       d="m 242.60403,171.45539 c -0.21759,0 -0.36607,0.12168 -0.47484,0.21532 l -0.29011,0.23572 c -0.55605,0.45331 -1.1087,0.90583 -1.64662,1.3803 -0.22665,0.19943 -0.40501,0.45633 -0.58023,0.72529 -0.19033,0.29315 -0.1662,0.57116 0.0725,0.83407 l 0.0487,0.0498 0.0669,-0.017 c 1.44754,-0.41099 2.42064,-1.20577 2.97366,-2.4297 0.12018,-0.25989 0.28025,-0.61649 0.002,-0.94286 l -0.0272,-0.0306 -0.0363,-0.007 c -0.0393,-0.007 -0.0755,-0.0136 -0.1088,-0.0136 z"
       id="path3125"
       inkscape:connector-curvature="0" />
    <path
       style="fill:#f8a628;fill-opacity:1;fill-rule:nonzero;stroke:none;stroke-width:0.77363557"
       d="m 237.95881,171.58911 c -0.29313,0 -0.45373,0.13529 -0.62896,0.28332 -0.1269,0.10581 -0.25007,0.21534 -0.37397,0.32411 -0.21757,0.18737 -0.43289,0.37441 -0.65955,0.54963 -0.35661,0.27197 -0.65881,0.60439 -0.961,0.9338 l -0.19266,0.21419 c -0.20247,0.21759 -0.40834,0.53264 -0.23005,1.03126 l 0.0306,0.0861 0.0884,-0.0136 c 1.2481,-0.17528 2.05497,-0.96441 2.73795,-1.78941 0.41099,-0.49259 0.54734,-1.00633 0.41137,-1.53216 l -0.0227,-0.0725 -0.0725,-0.008 c -0.0454,-0.007 -0.0877,-0.007 -0.12693,-0.007 z"
       id="path3123"
       inkscape:connector-curvature="0" />
    <path
       style="fill:#f8a628;fill-opacity:1;fill-rule:nonzero;stroke:none;stroke-width:0.77363557"
       d="m 52.264755,173.7287 c -0.864294,0 -1.677217,0.81821 -2.375303,1.58883 -0.477487,0.53186 -0.64672,1.09397 -0.516764,1.72255 l 0.02153,0.10539 c 0,0 0.21192,-0.0353 0.257249,-0.0419 0.07858,-0.009 0.135606,-0.0152 0.186987,-0.0544 l 0.121259,-0.0941 c 0.849186,-0.66182 1.727834,-1.34781 2.450097,-2.18491 0.238739,-0.27803 0.338834,-0.59157 0.284447,-0.90888 l -0.01246,-0.0703 -0.06573,-0.017 c -0.114838,-0.0301 -0.233458,-0.0453 -0.351309,-0.0453 z"
       id="path3121"
       inkscape:connector-curvature="0" />
    <path
       style="fill:#f8a628;fill-opacity:1;fill-rule:nonzero;stroke:none;stroke-width:0.77363557"
       d="m 47.486951,173.98255 c -0.142035,0 -0.289361,0.0603 -0.410238,0.10879 -0.837099,0.34149 -1.438856,0.97233 -1.979797,1.58883 -0.235721,0.26594 -0.344138,0.5991 -0.43177,0.9134 -0.04836,0.1662 -0.13599,0.47445 0.117859,0.75248 l 0.154122,0.0147 c 0.19038,-0.003 0.313905,-0.10581 0.395506,-0.17226 l 0.413638,-0.3445 c 0.426106,-0.3536 0.855228,-0.70414 1.269246,-1.0698 0.247803,-0.22361 0.492967,-0.48051 0.764947,-0.81594 0.214562,-0.26595 0.241388,-0.5685 0.06913,-0.79215 -0.09671,-0.1239 -0.214571,-0.18359 -0.362642,-0.18359 z"
       id="path3119"
       inkscape:connector-curvature="0" />
    <path
       style="fill:#f8a628;fill-opacity:1;fill-rule:nonzero;stroke:none;stroke-width:0.77363557"
       d="m 242.62556,174.57071 c -0.20851,0 -0.34519,0.12661 -0.4601,0.23232 l -0.0782,0.0703 -1.28398,1.08452 c -0.2901,0.24178 -0.65274,0.54397 -0.95193,0.89754 -0.30522,0.36266 -0.40576,0.71924 -0.30598,1.08793 l 0.009,0.0397 0.0328,0.0215 c 0.10882,0.0756 0.21453,0.11446 0.32638,0.11446 l 0.001,-0.001 c 0.11489,0 0.2206,-0.0423 0.29011,-0.0725 0.77667,-0.35055 1.47701,-0.90095 2.14186,-1.68062 0.32035,-0.38077 0.45324,-0.82199 0.55302,-1.20578 0.0725,-0.28106 0.006,-0.46791 -0.19605,-0.5859 z"
       id="path3117"
       inkscape:connector-curvature="0" />
    <path
       style="fill:#f8a628;fill-opacity:1;fill-rule:nonzero;stroke:none;stroke-width:0.77363557"
       d="m 237.89195,174.81662 c -0.19342,0 -0.33846,0.10202 -0.46237,0.21079 -0.20248,0.17527 -0.40768,0.3422 -0.62216,0.52357 -0.58324,0.47748 -1.18728,0.97573 -1.68288,1.59222 -0.26579,0.33243 -0.32043,0.63727 -0.19038,1.04826 l 0.0306,0.0997 0.102,-0.0272 c 1.19974,-0.3143 2.00662,-1.04524 2.57475,-1.64662 0.33241,-0.35058 0.46806,-0.78648 0.57683,-1.20352 0.0997,-0.36868 -0.0755,-0.51079 -0.22665,-0.58929 -0.0364,-0.007 -0.0695,-0.008 -0.0997,-0.008 z"
       id="path3115"
       inkscape:connector-curvature="0" />
    <path
       style="fill:#f8a628;fill-opacity:1;fill-rule:nonzero;stroke:none;stroke-width:0.77363557"
       d="m 52.616064,176.84289 -0.103126,0.0227 c -1.172542,0.25386 -2.321284,1.05998 -2.859203,2.01493 -0.278026,0.49561 -0.353572,0.96704 -0.217585,1.36898 l 0.0306,0.085 0.08726,-0.0125 c 0.29918,-0.0363 0.480504,-0.18393 0.616491,-0.29578 l 0.179055,-0.14619 c 0.477478,-0.38984 0.954578,-0.7793 1.410902,-1.19331 0.259893,-0.23873 0.471049,-0.52923 0.676554,-0.81028 0.217565,-0.29919 0.287853,-0.61308 0.206252,-0.9304 z"
       id="path3113"
       inkscape:connector-curvature="0" />
    <path
       style="fill:#f8a628;fill-opacity:1;fill-rule:nonzero;stroke:none;stroke-width:0.77363557"
       d="m 47.874525,177.06161 -0.08839,0.0238 c -1.931068,0.51978 -3.318172,2.03985 -3.09152,3.38163 l 0.01813,0.0941 h 0.09406 c 0.305223,-0.006 0.495611,-0.13902 0.679953,-0.29012 0.501653,-0.40797 0.997263,-0.81859 1.495897,-1.22958 0.344509,-0.28708 0.604035,-0.64368 0.812544,-0.95193 0.226644,-0.33849 0.266324,-0.6471 0.121258,-0.94627 z"
       id="path3111"
       inkscape:connector-curvature="0" />
    <path
       style="fill:#f8a628;fill-opacity:1;fill-rule:nonzero;stroke:none;stroke-width:0.77363557"
       d="m 242.5893,177.93761 c -0.29617,0 -0.48007,0.15415 -0.67656,0.31731 -0.44724,0.37474 -0.89414,0.74983 -1.33837,1.12759 -0.38985,0.3294 -0.69246,0.7317 -0.91001,1.046 -0.24261,0.34752 -0.23956,0.63765 0.002,0.88847 l 0.0465,0.0453 0.0612,-0.0158 c 1.11816,-0.27197 2.22344,-1.0698 2.74927,-1.98546 0.27509,-0.48353 0.36028,-0.94892 0.24252,-1.34177 l -0.0227,-0.0725 z"
       id="path3109"
       inkscape:connector-curvature="0" />
    <path
       style="fill:#f8a628;fill-opacity:1;fill-rule:nonzero;stroke:none;stroke-width:0.77363557"
       d="m 237.90442,178.06794 c -0.2599,0 -0.4688,0.1722 -0.61989,0.29918 0,0 -1.15735,0.95448 -1.34178,1.11172 -0.40193,0.33544 -0.67926,0.65654 -0.88167,1.00406 -0.13399,0.23573 -0.29955,0.52884 -0.12126,0.95193 l 0.0363,0.0816 0.0884,-0.0158 c 0.77064,-0.16321 1.4468,-0.54434 2.06932,-1.16385 l 0.0601,-0.0601 c 0.39587,-0.39587 0.80764,-0.80121 0.98593,-1.46303 0.0574,-0.20248 0.13523,-0.47673 -0.14279,-0.73661 z"
       id="path3107"
       inkscape:connector-curvature="0" />
    <path
       style="fill:#f8a628;fill-opacity:1;fill-rule:nonzero;stroke:none;stroke-width:0.77363557"
       d="m 52.162762,180.10213 c -0.07556,0 -0.156756,0.0186 -0.241383,0.0578 -0.918691,0.40193 -1.656063,1.0241 -2.193982,1.84607 -0.287103,0.44123 -0.529612,0.92775 -0.342243,1.50496 l 0.02153,0.0669 0.06573,0.009 c 0.04533,0.007 0.08538,0.008 0.124659,0.008 v 10e-4 c 0.305223,0 0.480499,-0.15988 0.634623,-0.30484 0,0 0.292751,-0.26059 0.404571,-0.36037 0.205498,-0.1904 0.414018,-0.38034 0.634623,-0.54963 0.347533,-0.272 0.617246,-0.6044 0.92247,-0.97914 0.07555,-0.0936 0.153743,-0.18707 0.232318,-0.27764 0.241754,-0.28406 0.299171,-0.55641 0.18132,-0.81935 l -0.09406,-0.0873 c -0.10577,-0.0546 -0.211163,-0.11559 -0.350176,-0.11559 z"
       id="path3105"
       inkscape:connector-curvature="0" />
    <path
       style="fill:#f8a628;fill-opacity:1;fill-rule:nonzero;stroke:none;stroke-width:0.77363557"
       d="m 47.883591,180.29931 -0.09746,0.0272 c -1.967332,0.56813 -3.344991,2.04891 -3.069989,3.30003 l 0.01473,0.0725 0.07593,0.0113 c 0.04533,0.007 0.08765,0.009 0.126925,0.009 v 0.001 c 0.284068,0 0.465764,-0.15174 0.638023,-0.29691 l 0.43517,-0.36831 c 0.247806,-0.21154 0.49561,-0.42282 0.752481,-0.62216 0.293136,-0.2327 0.531874,-0.51072 0.770614,-0.78875 l 0.17792,-0.20285 c 0.29011,-0.33544 0.359989,-0.67655 0.211919,-1.04826 z"
       id="path3103"
       inkscape:connector-curvature="0" />
    <path
       style="fill:#f8a628;fill-opacity:1;fill-rule:nonzero;stroke:none;stroke-width:0.77363557"
       d="m 238.16167,181.09599 -0.1394,0.0669 c -0.73131,0.35963 -2.57173,1.91219 -2.93739,2.4773 -0.1329,0.21156 -0.29957,0.53527 -0.20286,0.9372 l 0.0227,0.085 h 0.0907 c 0.99121,-0.0151 1.64963,-0.64444 2.18152,-1.14911 0.56208,-0.53187 1.14537,-1.19068 1.00633,-2.26651 z"
       id="path3101"
       inkscape:connector-curvature="0" />
    <path
       style="fill:#f8a628;fill-opacity:1;fill-rule:nonzero;stroke:none;stroke-width:0.77363557"
       d="m 242.50657,181.21045 c -0.10569,0 -0.18726,0.0273 -0.26292,0.0907 l -0.19265,0.15752 c -0.80991,0.66485 -1.65078,1.35349 -2.34584,2.18152 -0.26601,0.31732 -0.29015,0.65879 -0.0816,1.0698 l 0.0363,0.0737 0.0816,-0.0147 c 1.22393,-0.20854 1.956,-1.07887 2.66315,-1.922 0.35958,-0.42913 0.51682,-0.95836 0.44424,-1.4993 l -0.009,-0.0691 -0.0669,-0.0227 c -0.10586,-0.0301 -0.19373,-0.0453 -0.26631,-0.0453 z"
       id="path3099"
       inkscape:connector-curvature="0" />
    <path
       style="fill:#f8a628;fill-opacity:1;fill-rule:nonzero;stroke:none;stroke-width:0.77363557"
       d="m 52.5764,183.4441 -0.06913,0.002 c -0.991222,0.0121 -2.314863,1.13327 -2.883001,2.13052 -0.311273,0.54397 -0.378516,1.00937 -0.188121,1.34178 l 0.02719,0.0453 0.04873,0.009 c 0.04836,0.007 0.08802,0.0125 0.130325,0.0125 0.235717,0 0.386443,-0.12929 0.52243,-0.24705 0.504678,-0.4382 1.005953,-0.87941 1.501563,-1.32364 0.275004,-0.24478 0.526209,-0.55039 0.801211,-0.9644 0.160066,-0.2448 0.323733,-0.57116 0.139391,-0.94287 z"
       id="path3097"
       inkscape:connector-curvature="0" />
    <path
       style="fill:#f8a628;fill-opacity:1;fill-rule:nonzero;stroke:none;stroke-width:0.77363557"
       d="m 47.417823,183.58802 c -0.09671,0 -0.196043,0.0276 -0.29578,0.085 -1.006329,0.5621 -1.671929,1.14194 -2.155451,1.88233 -0.241759,0.36263 -0.537166,0.81594 -0.319578,1.34178 l 0.01473,0.0363 0.04193,0.0227 c 0.07858,0.0355 0.160915,0.0567 0.242517,0.0567 0.117857,0 0.231942,-0.0454 0.33771,-0.136 0.184342,-0.15715 0.372468,-0.30827 0.568894,-0.47143 0.640666,-0.52281 1.29871,-1.06412 1.842673,-1.71688 0.250833,-0.29917 0.308236,-0.57985 0.145056,-0.9304 -0.10577,-0.0787 -0.247419,-0.16999 -0.422704,-0.16999 z"
       id="path3095"
       inkscape:connector-curvature="0" />
    <path
       style="fill:#f8a628;fill-opacity:1;fill-rule:nonzero;stroke:none;stroke-width:0.77363557"
       d="m 237.87382,184.44476 c -0.0726,0 -0.13487,0.0234 -0.18926,0.0657 l -0.34451,0.27538 c -0.77363,0.61043 -1.57484,1.24167 -2.22457,2.0274 -0.22367,0.26896 -0.30832,0.56586 -0.26292,0.87713 l 0.051,0.12353 0.11673,0.001 c 1.2632,0 2.00889,-0.87034 2.66768,-1.64096 l 0.10312,-0.11786 c 0.3981,-0.46539 0.54354,-1.00027 0.39551,-1.46869 l -0.0125,-0.0453 -0.043,-0.0227 c -0.0968,-0.0484 -0.18159,-0.0748 -0.25725,-0.0748 z"
       id="path3093"
       inkscape:connector-curvature="0" />
    <path
       style="fill:#f8a628;fill-opacity:1;fill-rule:nonzero;stroke:none;stroke-width:0.77363557"
       d="m 242.5825,184.56829 c -0.30825,0 -0.4892,0.11781 -0.6403,0.24478 l -0.30484,0.25952 c -0.40798,0.34754 -0.82237,0.6958 -1.21825,1.05845 -0.23875,0.2206 -0.48012,0.48015 -0.75815,0.82162 -0.2329,0.28407 -0.25113,0.61912 -0.0487,0.85787 0.0937,0.1057 0.20507,0.16092 0.33204,0.16092 v 0.001 c 0.15713,0 0.30609,-0.0813 0.45104,-0.15979 0.83408,-0.45934 1.51932,-1.04865 2.04213,-1.74974 0.33534,-0.45634 0.47229,-0.92245 0.39663,-1.39391 l -0.0158,-0.0816 -0.0816,-0.0125 c -0.0544,-0.005 -0.10566,-0.007 -0.15412,-0.007 z"
       id="path3091"
       inkscape:connector-curvature="0" />
    <path
       style="fill:#f8a628;fill-opacity:1;fill-rule:nonzero;stroke:none;stroke-width:0.77363557"
       d="m 52.516338,186.67501 -0.251583,0.15412 -0.08726,-0.007 c -0.06344,0 -0.114833,0.0121 -0.163188,0.0363 -1.078858,0.53791 -1.849849,1.2001 -2.360571,2.02513 -0.223533,0.36564 -0.531117,0.86769 -0.228917,1.40863 l 0.0238,0.0453 0.04873,0.0125 c 0.05138,0.009 0.09633,0.0113 0.141657,0.0113 0.253848,0 0.416656,-0.14429 0.604025,-0.31052 l 0.362642,-0.32071 c 0.202475,-0.18131 0.40192,-0.35686 0.607424,-0.52923 0.462368,-0.38379 0.867319,-0.81819 1.205784,-1.28964 0.1632,-0.22968 0.318056,-0.53528 0.233451,-1.00973 z"
       id="path3089"
       inkscape:connector-curvature="0" />
    <path
       style="fill:#f8a628;fill-opacity:1;fill-rule:nonzero;stroke:none;stroke-width:0.77363557"
       d="m 47.414423,186.83479 c -0.0967,0 -0.193029,0.0269 -0.286714,0.0782 -0.652754,0.36568 -1.589956,0.961 -2.206447,1.922 -0.172257,0.26594 -0.495234,0.76532 -0.232318,1.29418 l 0.07253,0.0295 c 0.06649,0.0301 0.132961,0.0453 0.199452,0.0453 0.157146,0 0.269343,-0.0879 0.311646,-0.12126 l 0.190387,-0.15072 c 0.770612,-0.61046 1.564646,-1.2394 2.232512,-1.99793 0.22068,-0.25081 0.284454,-0.52281 0.202853,-0.86128 l -0.0091,-0.0351 -0.03286,-0.0249 c -0.111816,-0.0816 -0.266685,-0.17793 -0.44197,-0.17793 z"
       id="path3087"
       inkscape:connector-curvature="0" />
    <path
       style="fill:#f8a628;fill-opacity:1;fill-rule:nonzero;stroke:none;stroke-width:0.77363557"
       d="m 242.65162,187.62014 c -0.26894,0 -0.42006,0.13634 -0.54396,0.24819 l -0.0691,0.0601 c -0.48353,0.39587 -0.96365,0.79818 -1.4381,1.20918 -0.25384,0.22059 -0.51978,0.45899 -0.75248,0.72189 -0.22559,0.26293 -0.46274,0.6316 -0.23912,1.19671 l 0.0328,0.085 0.0907,-0.0181 c 1.26622,-0.24478 2.06062,-1.17821 2.69828,-1.92767 0.37168,-0.43517 0.52354,-0.97346 0.41476,-1.48116 l -0.0181,-0.0782 -0.0748,-0.009 c -0.0364,-0.005 -0.0706,-0.007 -0.10085,-0.007 z"
       id="path3085"
       inkscape:connector-curvature="0" />
    <path
       style="fill:#f8a628;fill-opacity:1;fill-rule:nonzero;stroke:none;stroke-width:0.77363557"
       d="m 237.91008,187.6904 c -0.2478,0.003 -0.4322,0.16629 -0.58023,0.29918 l -0.27424,0.23572 c -0.25989,0.22362 -0.51677,0.44395 -0.77968,0.65843 -0.38079,0.30521 -0.74076,0.66144 -1.07319,1.05732 -0.22654,0.272 -0.44469,0.62556 -0.32978,1.16045 l 0.0306,0.13033 0.12126,-0.051 c 0.12087,-0.0544 0.23826,-0.0721 0.3683,-0.0941 0.1511,-0.0241 0.29274,-0.0479 0.43177,-0.13259 0.69507,-0.40798 1.29079,-0.89225 1.82568,-1.47549 0.32336,-0.35055 0.45285,-0.76721 0.56776,-1.20239 0.0695,-0.26289 -0.0212,-0.46813 -0.30825,-0.58589 z"
       id="path3083"
       inkscape:connector-curvature="0" />
    <path
       style="fill:#f8a628;fill-opacity:1;fill-rule:nonzero;stroke:none;stroke-width:0.77363557"
       d="m 47.405357,190.07591 c -0.09672,0 -0.193403,0.0246 -0.290113,0.0759 -0.761547,0.40193 -1.353862,0.85183 -1.813209,1.37464 -0.03334,0.0381 -0.05885,0.0747 -0.08953,0.11219 h 2.039859 c 0.181831,-0.20008 0.341458,-0.40889 0.482767,-0.60175 0.09969,-0.13902 0.304849,-0.42233 0.08726,-0.80915 -0.102748,-0.0695 -0.244779,-0.15185 -0.417038,-0.15185 z"
       id="path3071"
       inkscape:connector-curvature="0" />
    <path
       style="fill:#f8a628;fill-opacity:1;fill-rule:nonzero;stroke:none;stroke-width:0.77363557"
       d="m 52.304419,190.16203 c -0.05439,0 -0.111807,0.0121 -0.163189,0.0363 -0.808628,0.35294 -1.479584,0.83584 -2.008128,1.44036 h 2.001329 c 0.09857,-0.11746 0.20159,-0.2305 0.291247,-0.35584 0.145065,-0.20852 0.323352,-0.52847 0.217584,-0.9576 l -0.0091,-0.042 -0.03627,-0.0249 c -0.09671,-0.0633 -0.193795,-0.0963 -0.29351,-0.0963 z"
       id="path3069"
       inkscape:connector-curvature="0" />
    <path
       style="fill:#f8a628;fill-opacity:1;fill-rule:nonzero;stroke:none;stroke-width:0.77363557"
       d="m 238.01887,190.71167 c -0.2266,0 -0.33845,0.11213 -0.43517,0.21191 -0.24868,0.25074 -0.51857,0.4848 -0.79214,0.71508 h 1.33951 c 0.0909,-0.25057 0.13523,-0.53192 0.043,-0.8454 l -0.0215,-0.0725 z"
       id="path3067"
       inkscape:connector-curvature="0" />
    <path
       style="fill:#f8a628;fill-opacity:1;fill-rule:nonzero;stroke:none;stroke-width:0.77363557"
       d="m 242.54056,190.82046 -0.13599,0.034 c -0.3538,0.25552 -0.69769,0.51599 -1.03352,0.78421 h 1.41316 c 0.0102,-0.033 0.024,-0.0657 0.034,-0.0986 l 0.0657,-0.21419 c 0.0338,-0.10566 0.0284,-0.21427 -0.017,-0.30484 -0.0483,-0.0936 -0.13067,-0.16046 -0.24252,-0.19379 z"
       id="path1640"
       inkscape:connector-curvature="0" />
  </g>
</svg>
