<?xml version="1.0" encoding="UTF-8" standalone="no"?>
<svg
   xmlns:dc="http://purl.org/dc/elements/1.1/"
   xmlns:cc="http://creativecommons.org/ns#"
   xmlns:rdf="http://www.w3.org/1999/02/22-rdf-syntax-ns#"
   xmlns:svg="http://www.w3.org/2000/svg"
   xmlns="http://www.w3.org/2000/svg"
   xmlns:sodipodi="http://sodipodi.sourceforge.net/DTD/sodipodi-0.dtd"
   xmlns:inkscape="http://www.inkscape.org/namespaces/inkscape"
   width="297mm"
   height="210mm"
   viewBox="0 0 297 210"
   version="1.1"
   id="svg8"
   inkscape:version="1.0.2 (e86c870879, 2021-01-15, custom)"
   sodipodi:docname="neon.svg">
  <defs
     id="defs2" />
  <sodipodi:namedview
     id="base"
     pagecolor="#000000"
     bordercolor="#666666"
     borderopacity="1.0"
     inkscape:pageopacity="0"
     inkscape:pageshadow="2"
     inkscape:zoom="0.49497475"
     inkscape:cx="142.25547"
     inkscape:cy="480.00859"
     inkscape:document-units="mm"
     inkscape:current-layer="layer1"
     inkscape:document-rotation="0"
     showgrid="false"
     inkscape:window-width="1680"
     inkscape:window-height="981"
     inkscape:window-x="0"
     inkscape:window-y="32"
     inkscape:window-maximized="1"
     inkscape:object-nodes="false" />
  <metadata
     id="metadata5">
    <rdf:RDF>
      <cc:Work
         rdf:about="">
        <dc:format>image/svg+xml</dc:format>
        <dc:type
           rdf:resource="http://purl.org/dc/dcmitype/StillImage" />
        <dc:title></dc:title>
      </cc:Work>
    </rdf:RDF>
  </metadata>
  <g
     inkscape:label="Layer 1"
     inkscape:groupmode="layer"
     id="layer1">
    <g
       aria-label="You're
so cute"
       id="g977"
       style="font-style:normal;font-variant:normal;font-weight:normal;font-stretch:normal;font-size:52.2068px;line-height:0.65;font-family:'Grand Hotel';-inkscape-font-specification:'Grand Hotel';text-align:end;letter-spacing:0px;word-spacing:0px;writing-mode:lr-tb;text-anchor:end;fill:#0000ff;stroke-width:0.978877"
       transform="translate(-19.240845,6.746752)">
      <path
         d="m 123.62985,104.63342 v 1.58048 q 0.73925,-0.12746 1.42752,-0.17844 0.71377,-0.051 1.32557,-0.10197 0.6118,-0.0255 0.9177,0.25492 0.33139,0.2804 0.40786,0.73925 0.0765,0.45885 -0.051,0.99417 -0.12746,0.53533 -0.40787,0.99418 -0.28041,0.48434 -0.68827,0.81573 -0.38237,0.33139 -0.84122,0.33139 -0.58631,0 -1.12163,0.0255 -0.50984,0.0255 -1.01967,0.0765 -0.12746,2.26875 -0.50983,4.51201 -0.35688,2.26875 -1.19811,4.07865 -0.84122,1.8354 -2.26875,2.95703 -1.42753,1.14712 -3.69628,1.14712 -1.35105,0 -2.44719,-0.48434 -1.07065,-0.45885 -1.8354,-1.30007 -0.76475,-0.81573 -1.17261,-1.93736 -0.40787,-1.12163 -0.40787,-2.44719 0,-1.98835 0.81573,-3.51785 0.81573,-1.52949 2.1413,-2.70211 1.32556,-1.17261 3.0335,-1.98834 1.70794,-0.79024 3.51784,-1.32556 v -0.58631 -7.214123 q -0.81573,1.351053 -1.73343,2.549163 -0.9177,1.17261 -1.93736,2.06482 -0.99417,0.86671 -2.06482,1.35105 -1.07065,0.50983 -2.19228,0.50983 -0.56081,0 -1.1981,-0.22942 -0.6118,-0.22943 -1.14713,-0.76475 -0.50983,-0.50983 -0.86671,-1.37655 -0.33139,-0.86671 -0.33139,-2.16678 V 71.902202 q -1.75892,0.229425 -3.3394,0.994173 -1.55499,0.764748 -2.7276,2.090311 -1.14712,1.325563 -1.8354,3.211942 -0.662779,1.886378 -0.662779,4.359064 0,1.580479 0.331391,2.855059 0.331388,1.249088 0.790238,2.141294 0.45885,0.866715 0.9177,1.351055 0.45885,0.484341 0.71376,0.484341 0.22943,0 0.43336,-0.101967 0.20393,-0.101966 0.40787,-0.101966 0.40786,0 0.40786,0.63729 0,0.815731 -0.38237,1.580479 -0.35688,0.739256 -0.9177,1.223597 -0.56081,0.458849 -1.2236,0.586307 -0.66278,0.127458 -1.223593,-0.280408 -0.688273,-0.458849 -1.478513,-1.402038 -0.764748,-0.943189 -1.42753,-2.268752 -0.63729,-1.351055 -1.070647,-3.033501 -0.407866,-1.682446 -0.407866,-3.67079 0,-2.753093 0.662782,-4.919879 0.662782,-2.192278 1.758921,-3.823741 1.12163,-1.631462 2.600146,-2.778584 1.47851,-1.147122 3.10997,-1.860887 1.63146,-0.713765 3.31391,-1.019664 1.68245,-0.331391 3.21194,-0.331391 0.40787,0 0.79024,0.178441 0.38238,0.15295 0.66278,0.458849 0.28041,0.280408 0.45885,0.688274 0.17844,0.407865 0.17844,0.866714 v 30.972296 q 0,0.50983 0.15295,0.63729 0.17844,0.10197 0.33139,0.10197 0.38238,0 1.04516,-0.53533 0.66278,-0.56081 1.42753,-1.453019 0.79024,-0.917698 1.58048,-2.090312 0.79024,-1.198105 1.42753,-2.472685 0.63729,-1.27458 1.04515,-2.54916 0.40787,-1.27458 0.40787,-2.396211 V 70.398198 q 0,-0.739256 -0.10197,-1.070647 -0.10196,-0.331391 -0.10196,-0.611799 0,-0.382374 0.38237,-0.63729 0.40787,-0.254916 0.96868,-0.254916 1.30007,0 2.1158,0.688273 0.81574,0.662782 0.81574,1.631463 z m -7.62199,14.19882 q 0.86671,0 1.47851,-0.63729 0.6118,-0.63729 1.01966,-1.73343 0.40787,-1.07065 0.6118,-2.49818 0.22943,-1.40203 0.33139,-2.95702 -2.60014,0.79024 -3.97669,2.19228 -1.35105,1.42753 -1.35105,3.39038 0,1.1981 0.53532,1.70794 0.56082,0.53532 1.35106,0.53532 z"
         style="font-style:normal;font-variant:normal;font-weight:normal;font-stretch:normal;font-family:'Grand Hotel';-inkscape-font-specification:'Grand Hotel';text-align:end;text-anchor:end;fill:#0000ff;stroke-width:0.978877"
         id="path955" />
      <path
         d="m 147.79588,95.762341 q 0.051,-0.305899 0.33139,-0.509832 0.3059,-0.203933 0.68828,-0.280408 0.38237,-0.07648 0.79024,0 0.43335,0.07648 0.73925,0.356883 0.33139,0.254916 0.45885,0.739256 0.15295,0.458849 -0.0255,1.198105 -0.22942,1.070647 -0.76475,2.013837 -0.50983,0.917698 -1.30007,1.631458 -0.79024,0.71377 -1.86089,1.12163 -1.07064,0.40787 -2.39621,0.40787 -0.71376,0 -1.35105,-0.0765 -0.6118,-0.0765 -1.19811,-0.28041 -0.96868,1.68244 -2.49817,2.70211 -1.5295,1.04515 -3.77276,1.04515 -1.98835,0 -3.41588,-0.79024 -1.42753,-0.76474 -2.37071,-2.09031 -0.94319,-1.35105 -1.40204,-3.109973 -0.43336,-1.758921 -0.43336,-3.721774 0,-2.880551 0.66278,-5.149303 0.68827,-2.294244 1.58048,-3.874723 0.89221,-1.605971 1.75892,-2.447194 0.89221,-0.841223 1.32556,-0.841223 0.50984,0 0.9177,0.458849 0.43336,0.433357 0.6118,1.045155 0.20393,0.586307 0.10197,1.198106 -0.0765,0.611798 -0.58631,0.943189 -0.3059,0.48434 -0.73926,1.12163 -0.40786,0.63729 -0.79024,1.605971 -0.35688,0.943189 -0.61179,2.319736 -0.25492,1.376546 -0.25492,3.313908 0,1.656954 0.28041,2.880551 0.3059,1.223597 0.81573,2.064815 0.53532,0.81574 1.1981,1.2236 0.68828,0.40787 1.45303,0.40787 1.12163,0 1.83539,-0.53533 0.73926,-0.56081 1.24909,-1.45302 -1.8354,-1.580477 -2.80408,-4.002179 -0.94319,-2.447194 -0.94319,-5.276762 0,-1.223596 0.25492,-2.319735 0.28041,-1.121631 0.79024,-1.962853 0.53532,-0.841223 1.32556,-1.325564 0.79024,-0.509832 1.8354,-0.509832 0.9177,0 1.73343,0.662782 0.81573,0.662781 1.42753,1.835395 0.61179,1.172614 0.94319,2.778585 0.35688,1.60597 0.35688,3.492349 0,1.453021 -0.17844,2.880551 -0.17844,1.427529 -0.56082,2.753093 0.28041,0.101966 0.50983,0.127458 0.25492,0 0.53533,0 0.84122,0 1.47851,-0.305899 0.66278,-0.3059 1.12163,-0.815732 0.45885,-0.509832 0.73926,-1.198105 0.2804,-0.688273 0.40786,-1.453021 z m -9.96721,-4.843404 q 0,1.75892 0.53532,3.339399 0.56082,1.58048 1.45302,2.753093 0.15295,-1.249088 0.15295,-2.39621 0,-1.325563 -0.051,-2.447194 -0.0255,-1.147122 -0.17844,-1.962853 -0.12746,-0.815731 -0.38238,-1.27458 -0.22942,-0.484341 -0.63729,-0.484341 -0.8922,0 -0.8922,2.472686 z"
         style="font-style:normal;font-variant:normal;font-weight:normal;font-stretch:normal;font-family:'Grand Hotel';-inkscape-font-specification:'Grand Hotel';text-align:end;text-anchor:end;fill:#0000ff;stroke-width:0.978877"
         id="path957" />
      <path
         id="path959"
         style="font-style:normal;font-variant:normal;font-weight:normal;font-stretch:normal;font-family:'Grand Hotel';-inkscape-font-specification:'Grand Hotel';text-align:end;text-anchor:end;fill:#0000ff;stroke-width:3.69969"
         d="m 660.78906,308.65625 c -1.28462,0 -2.53549,0.22616 -3.75586,0.67578 -1.22037,0.38538 -2.28046,0.99508 -3.17968,1.83008 -0.89927,0.77077 -1.63872,1.73447 -2.2168,2.89062 -0.51375,1.09193 -0.77149,2.31131 -0.77149,3.66016 0,2.89039 0.80439,5.39601 2.41016,7.51563 1.60577,2.05538 3.62758,3.75662 6.06836,5.10546 -0.0643,2.505 0.67829,4.14983 -1.19141,8.19727 -1.83462,3.96551 -3.74461,7.94639 -5.73242,11.94336 -1.89365,3.94026 -3.80555,7.68011 -5.73633,11.2168 -1.89569,3.45473 -3.62319,6.35067 -5.81391,9.63593 -2.19071,3.28526 -4.06105,5.42087 -6.03374,7.30547 -2.09556,2.08464 -4.20033,3.65549 -6.31641,4.71289 -2.05784,1.08439 -10.02641,3.64063 -12.01758,3.64063 -1.28462,0 -2.27978,-0.38546 -2.98633,-1.15625 -0.70654,-0.77076 -1.21975,-1.66954 -1.54101,-2.69727 -0.32107,-1.02765 -0.51387,-2.02285 -0.57813,-2.98633 -0.0661,-1.02765 -0.0957,-1.76718 -0.0957,-2.21679 v -50.09961 c 0,-2.37654 -0.96371,-4.40031 -2.89062,-6.07031 -1.86271,-1.73424 -4.43323,-2.60157 -7.70899,-2.60157 -0.70654,0 -1.44408,0.0649 -2.21484,0.19336 -0.70651,0.0642 -1.38111,0.19205 -2.02344,0.38477 -0.64233,0.19269 -1.15562,0.41885 -1.54101,0.67578 -0.38533,0.25692 -0.57813,0.54409 -0.57813,0.86523 0,0.38539 0.0963,0.7394 0.28906,1.06055 0.25686,0.25692 0.48107,0.6424 0.67383,1.15625 0.25686,0.44962 0.48107,1.09274 0.67383,1.92774 0.25689,0.83499 0.38672,1.95801 0.38672,3.37109 v 31.79492 c -0.57808,3.46847 -1.38247,6.80799 -2.41016,10.01953 -1.02769,3.14731 -2.2471,5.9735 -3.66015,8.47852 -1.34888,2.44078 -2.89077,4.39965 -4.625,5.87695 -1.66999,1.4773 -3.50102,2.2168 -5.49219,2.2168 -2.8904,0 -5.13837,-1.38065 -6.74414,-4.14258 -1.54156,-2.76193 -2.3125,-6.84095 -2.3125,-12.23633 0,-4.11077 0.12971,-7.8043 0.38672,-11.08008 0.25693,-3.34 0.60898,-6.52021 1.05859,-9.53906 0.51383,-3.08308 1.12353,-6.13349 1.83008,-9.15234 0.70654,-3.01885 1.51093,-6.35838 2.41015,-10.01953 0.19272,-0.77077 0.57818,-1.76595 1.15625,-2.98633 0.64226,-1.22039 1.02775,-2.41026 1.15625,-3.56641 0.19272,-1.15615 -0.0649,-2.15133 -0.77148,-2.98633 -0.70655,-0.89923 -2.27992,-1.34765 -4.7207,-1.34765 -2.63347,0 -4.59233,0.22421 -5.87696,0.67383 -1.22037,0.44961 -2.11918,1.02783 -2.69726,1.73437 -0.57801,0.70654 -0.9635,1.50897 -1.15625,2.4082 -0.12847,0.835 -0.35452,1.67086 -0.67578,2.50586 -1.34888,4.62462 -2.53677,9.4097 -3.56446,14.35547 -0.89922,4.23924 -1.73314,8.99089 -2.5039,14.25781 -0.70643,5.26693 -1.06055,10.50238 -1.06055,15.70508 0,4.30346 0.45038,8.22122 1.34961,11.75391 0.96344,3.46847 2.34409,6.45594 4.14258,8.96094 1.79845,2.44078 3.98153,4.33475 6.55078,5.68359 2.63346,1.34887 5.58749,2.02344 8.86328,2.02344 4.36766,0 8.1576,-1.31576 11.36914,-3.94922 3.21154,-2.63346 6.00628,-6.03788 8.38281,-10.21289 0.32115,1.99117 0.93086,3.85365 1.83008,5.58789 0.89926,1.67002 2.02421,3.11556 3.37305,4.33594 1.41309,1.28462 3.01795,2.27978 4.8164,2.98632 1.86271,0.7064 3.91796,1.0586 6.16602,1.0586 4.23923,0 7.16022,-0.1856 11.10938,-1.22852 3.94915,-1.04296 7.77218,-2.88347 11.46874,-5.52344 3.28876,-2.34866 6.39228,-5.13177 9.33204,-8.30078 4.72206,-4.88955 8.9374,-10.50457 11.61523,-15.56445 2.67783,-5.05988 4.29399,-7.42406 6.26563,-11.14844 2.17591,-4.11042 4.12783,-8.02648 5.85742,-11.74609 1.78858,-3.69439 3.50801,-10.65316 3.57226,-12.58008 h 2.2168 15.0293 c -3.21154,8.5427 -5.68374,16.37819 -7.41797,23.50781 -1.66999,7.06539 -2.50586,13.77787 -2.50586,20.13672 0,4.3677 0.60971,7.99633 1.83008,10.88672 1.28462,2.82614 2.89144,5.10561 4.81836,6.83984 1.99116,1.73424 4.17425,2.95557 6.55078,3.66211 2.44078,0.7064 4.81854,1.0586 7.13086,1.0586 4.23923,-4e-5 7.93279,-0.9952 11.08007,-2.98633 3.14733,-1.99117 5.8437,-4.49485 8.0918,-7.51367 2.24806,-3.01886 4.0791,-6.32693 5.49219,-9.92383 1.4773,-3.59694 2.66523,-7.03477 3.56445,-10.31055 0,-0.19267 0.0334,-0.3854 0.0977,-0.57812 0.0661,-0.19269 0.0957,-0.44839 0.0957,-0.76953 0,-0.96347 -0.22421,-1.92717 -0.67383,-2.89063 -0.38539,-0.96346 -0.93212,-1.83079 -1.63867,-2.60156 -0.64229,-0.77077 -1.38178,-1.38046 -2.2168,-1.83008 -0.83501,-0.51383 -1.63744,-0.77148 -2.4082,-0.77148 -0.96348,0 -1.89374,0.48185 -2.79297,1.44531 -0.89922,0.89923 -1.54233,2.37625 -1.92773,4.43164 -0.44961,2.18385 -1.02783,4.5282 -1.73438,7.0332 -0.64233,2.44077 -1.50965,4.72217 -2.60156,6.8418 -1.09194,2.1196 -2.4411,3.88574 -4.04687,5.29883 -1.60577,1.41309 -3.5312,2.11914 -5.7793,2.11914 -1.34884,0 -2.53872,-0.28911 -3.56641,-0.86719 -0.96344,-0.57808 -1.76587,-1.34902 -2.4082,-2.3125 -0.64229,-1.02769 -1.12405,-2.18416 -1.44531,-3.46875 -0.32111,-1.28466 -0.48047,-2.60038 -0.48047,-3.94922 0,-3.27577 0.22421,-6.6153 0.67383,-10.01953 0.44961,-3.46846 0.99634,-6.80994 1.63867,-10.02148 0.64233,-3.21154 1.34838,-6.26196 2.11914,-9.15235 0.77076,-2.95462 1.47681,-5.55661 2.11914,-7.80469 0.64233,-2.24807 1.18906,-4.11058 1.63867,-5.58789 0.44954,-1.4773 0.67383,-2.40758 0.67383,-2.79296 0.19268,-1.15616 -0.0964,-2.3775 -0.86719,-3.66211 -0.7065,-1.28462 -1.60532,-2.47253 -2.69726,-3.56446 -1.09195,-1.15615 -2.21689,-2.08838 -3.37305,-2.79492 -1.09191,-0.70653 -1.92583,-1.05859 -2.50391,-1.05859 h -10.31054 -1.54102 c -0.51383,0 -1.15502,-0.0315 -1.92578,-0.0957 -0.77076,-0.0642 -1.73447,-0.12914 -2.89063,-0.19336 -1.0919,-0.12845 -2.4411,-0.2897 -4.04687,-0.48242 -0.57808,-1.99115 -1.31757,-3.66092 -2.2168,-5.00976 -0.89922,-1.34885 -1.92587,-2.44039 -3.08203,-3.27539 -1.09194,-0.835 -2.27983,-1.41323 -3.56445,-1.73438 -1.22037,-0.32114 -2.41025,-0.48242 -3.56641,-0.48242 z"
         sodipodi:nodetypes="scccsccccccccssccsscscssscccsccccscsccsccccscsccccscccssccccsssczscccccscccssscccscccscccssscccscscssccccscssccsccss"
         transform="scale(0.26458333)" />
      <path
         d="m 168.97089,79.065342 q 0,0.382374 -0.53532,0.662782 -0.53533,0.254916 -1.17262,0.331391 -0.63729,0.07647 -1.17261,-0.05098 -0.53533,-0.152949 -0.56082,-0.586306 v -9.024027 q 0,-0.229424 -0.0765,-0.356882 -0.051,-0.127458 -0.12746,-0.203933 -0.051,-0.07648 -0.12746,-0.127458 -0.051,-0.07648 -0.051,-0.203933 0,-0.280408 0.40786,-0.433357 0.40787,-0.15295 1.12163,-0.15295 0.35689,0 0.73926,0.05098 0.40787,0.02549 0.73926,0.127458 0.35688,0.101967 0.5863,0.280408 0.22943,0.178441 0.22943,0.433357 z"
         style="font-style:normal;font-variant:normal;font-weight:normal;font-stretch:normal;font-family:'Grand Hotel';-inkscape-font-specification:'Grand Hotel';text-align:end;text-anchor:end;fill:#0000ff;stroke-width:0.978877"
         id="path961" />
      <path
         d="m 201.82956,89.185508 q 0,1.453021 -0.50983,2.982517 -0.48435,1.529496 -1.47852,2.906043 -0.96868,1.351054 -2.4217,2.447193 -1.42753,1.070647 -3.31391,1.631463 0.25492,0.662781 0.66278,1.274576 0.43336,0.58631 1.01967,1.01967 0.5863,0.43336 1.35105,0.68827 0.79024,0.25492 1.80991,0.25492 1.52949,0 2.62563,-0.56082 1.09614,-0.58631 1.8354,-1.52949 0.76474,-0.943193 1.22359,-2.115807 0.45885,-1.172614 0.68828,-2.370719 0.17844,-0.866714 0.71376,-1.147122 0.56082,-0.305899 1.12163,-0.15295 0.58631,0.15295 0.99417,0.662782 0.43336,0.48434 0.35689,1.172614 -0.10197,0.790239 -0.35689,1.809903 -0.22942,1.019664 -0.71376,2.064819 -0.48434,1.04516 -1.24909,2.06482 -0.73926,0.99417 -1.83539,1.78441 -1.09614,0.79024 -2.57466,1.27458 -1.47851,0.48434 -3.39038,0.48434 -1.78441,0 -3.46686,-0.71376 -1.65695,-0.68827 -2.95702,-1.98835 -1.27458,-1.32556 -2.06482,-3.23743 -0.76475,-1.937362 -0.76475,-4.384555 0,-2.472685 0.68827,-4.588488 0.68828,-2.141295 1.80991,-3.696282 1.12163,-1.554988 2.54916,-2.421703 1.42753,-0.892206 2.93153,-0.892206 1.09614,0 1.96285,0.382374 0.89221,0.382374 1.50401,1.096139 0.6118,0.688273 0.9177,1.656954 0.33139,0.968681 0.33139,2.141295 z m -8.41223,6.168967 q 0,0.229425 0.0255,0.458849 0.0255,0.229424 0.0255,0.48434 0.96868,-0.458848 1.75892,-1.172613 0.79024,-0.713765 1.35106,-1.631463 0.56081,-0.917697 0.86671,-1.988345 0.3059,-1.096138 0.3059,-2.268752 0,-0.866714 -0.3059,-1.351055 -0.28041,-0.48434 -0.79024,-0.48434 -0.63729,0 -1.14712,0.433357 -0.48434,0.433357 -0.86671,1.147122 -0.35689,0.688273 -0.6118,1.580479 -0.22943,0.866715 -0.38238,1.758921 -0.15295,0.892206 -0.20393,1.707937 -0.051,0.79024 -0.0255,1.325563 z"
         style="font-style:normal;font-variant:normal;font-weight:normal;font-stretch:normal;font-family:'Grand Hotel';-inkscape-font-specification:'Grand Hotel';text-align:end;text-anchor:end;fill:#0000ff;stroke-width:0.978877"
         id="path963" />
      <path
         d="m 140.03058,126.94955 q -0.20393,0.81573 -0.76475,1.01966 -0.56081,0.17845 -1.12163,-0.051 -0.53532,-0.22942 -0.91769,-0.79024 -0.35689,-0.56081 -0.20394,-1.2236 0.38238,-1.73342 1.09614,-3.82374 0.73926,-2.1158 1.45302,-4.20611 -0.38237,-0.58631 -0.61179,-1.17261 -0.22943,-0.6118 -0.22943,-1.27458 0,-0.66279 0.48434,-1.37655 0.50983,-0.73926 1.19811,-1.35106 0.71376,-0.61179 1.45302,-0.99417 0.76475,-0.40786 1.30007,-0.40786 0.94319,0 1.40204,0.63729 0.48434,0.63729 0.48434,1.70793 0,0.58631 -0.20393,1.17262 -0.17845,0.56081 -0.40787,1.07065 -0.22942,0.48434 -0.43336,0.84122 -0.17844,0.35688 -0.20393,0.45885 0.9177,1.63146 1.91187,2.88055 0.99417,1.24909 1.8099,2.47268 0.84123,1.2236 1.37655,2.60015 0.53532,1.37654 0.53532,3.23743 0,0.45885 -0.0765,0.94319 -0.051,0.48434 -0.17844,0.9177 0.91769,-0.17844 1.60597,-0.56082 0.71376,-0.38237 1.22359,-0.86671 0.53533,-0.50984 0.86672,-1.09614 0.35688,-0.58631 0.58631,-1.2236 0.2804,-0.73926 0.56081,-1.07065 0.28041,-0.33139 0.63729,-0.33139 0.33139,0 0.66278,0.22943 0.35689,0.20393 0.6118,0.53532 0.28041,0.33139 0.43336,0.68827 0.17844,0.35689 0.17844,0.63729 0,0.38238 -0.20393,0.9177 -0.20394,0.53533 -0.56082,1.09614 -0.33139,0.56082 -0.76475,1.09614 -0.43335,0.50983 -0.8922,0.89221 -1.2236,0.99417 -2.88055,1.68244 -1.65696,0.66278 -4.10415,0.84122 -0.94319,0.81574 -2.24326,1.32557 -1.27458,0.53532 -2.88055,0.53532 -0.81573,0 -1.68245,-0.20393 -0.84122,-0.20393 -1.63146,-0.53533 -0.76475,-0.30589 -1.40204,-0.68827 -0.63729,-0.38237 -1.01966,-0.76475 -0.96868,-0.91769 -1.24909,-1.83539 -0.2804,-0.94319 -0.12745,-1.68245 0.12745,-0.73925 0.53532,-1.1981 0.40786,-0.48434 0.84122,-0.48434 0.25491,0 0.79024,0.22942 0.56081,0.20393 1.27458,0.56082 0.71376,0.33139 1.55498,0.71376 0.84123,0.38238 1.68245,0.73926 0.84122,0.33139 1.63146,0.56081 0.81573,0.20394 1.47852,0.20394 0.43335,-0.50984 0.79024,-1.35106 0.35688,-0.84122 0.35688,-1.83539 0,-1.2236 -0.33139,-2.26876 -0.33139,-1.04515 -0.86672,-1.93736 -0.53532,-0.8922 -1.22359,-1.65695 -0.66279,-0.79024 -1.35106,-1.47852 -0.6118,1.50401 -1.07065,2.98252 -0.45885,1.45302 -0.96868,3.31391 z"
         style="font-style:normal;font-variant:normal;font-weight:normal;font-stretch:normal;font-family:'Grand Hotel';-inkscape-font-specification:'Grand Hotel';text-align:end;text-anchor:end;fill:#0000ff;stroke-width:0.978877"
         id="path965" />
      <path
         d="m 172.81278,125.49653 q 0.051,-0.3059 0.33139,-0.50983 0.3059,-0.20394 0.68828,-0.28041 0.38237,-0.0765 0.79023,0 0.43336,0.0765 0.73926,0.35688 0.33139,0.25492 0.45885,0.73926 0.15295,0.45885 -0.0255,1.1981 -0.22943,1.07065 -0.76475,2.01384 -0.50983,0.9177 -1.30007,1.63146 -0.79024,0.71377 -1.86089,1.12163 -1.07065,0.40787 -2.39621,0.40787 -0.71376,0 -1.35105,-0.0765 -0.6118,-0.0765 -1.19811,-0.2804 -0.96868,1.68244 -2.49818,2.70211 -1.52949,1.04515 -3.77275,1.04515 -1.98835,0 -3.41588,-0.79024 -1.42753,-0.76475 -2.37072,-2.09031 -0.94319,-1.35105 -1.40203,-3.10998 -0.43336,-1.75892 -0.43336,-3.72177 0,-2.88055 0.66278,-5.1493 0.68827,-2.29425 1.58048,-3.87473 0.89221,-1.60597 1.75892,-2.44719 0.89221,-0.84122 1.32556,-0.84122 0.50984,0 0.9177,0.45885 0.43336,0.43335 0.6118,1.04515 0.20393,0.58631 0.10197,1.19811 -0.0765,0.6118 -0.58631,0.94319 -0.3059,0.48434 -0.73926,1.12163 -0.40786,0.63729 -0.79024,1.60597 -0.35688,0.94319 -0.6118,2.31973 -0.25491,1.37655 -0.25491,3.31391 0,1.65696 0.28041,2.88055 0.3059,1.2236 0.81573,2.06482 0.53532,0.81573 1.1981,1.2236 0.68828,0.40786 1.45302,0.40786 1.12163,0 1.8354,-0.53532 0.73926,-0.56081 1.24909,-1.45302 -1.8354,-1.58048 -2.80408,-4.00218 -0.94319,-2.4472 -0.94319,-5.27676 0,-1.2236 0.25492,-2.31974 0.28041,-1.12163 0.79024,-1.96285 0.53532,-0.84122 1.32556,-1.32556 0.79024,-0.50984 1.8354,-0.50984 0.91769,0 1.73343,0.66278 0.81573,0.66279 1.42752,1.8354 0.6118,1.17261 0.94319,2.77858 0.35689,1.60598 0.35689,3.49235 0,1.45302 -0.17844,2.88055 -0.17845,1.42753 -0.56082,2.7531 0.28041,0.10196 0.50983,0.12746 0.25492,0 0.53533,0 0.84122,0 1.47851,-0.3059 0.66278,-0.3059 1.12163,-0.81573 0.45885,-0.50984 0.73926,-1.19811 0.2804,-0.68827 0.40786,-1.45302 z m -9.96721,-4.84341 q 0,1.75892 0.53532,3.3394 0.56081,1.58048 1.45302,2.7531 0.15295,-1.24909 0.15295,-2.39621 0,-1.32557 -0.051,-2.4472 -0.0255,-1.14712 -0.17844,-1.96285 -0.12746,-0.81573 -0.38238,-1.27458 -0.22942,-0.48434 -0.63729,-0.48434 -0.8922,0 -0.8922,2.47268 z"
         style="font-style:normal;font-variant:normal;font-weight:normal;font-stretch:normal;font-family:'Grand Hotel';-inkscape-font-specification:'Grand Hotel';text-align:end;text-anchor:end;fill:#0000ff;stroke-width:0.978877"
         id="path967" />
      <path
         d="m 192.67074,135.56571 q -1.73343,0 -3.36489,-0.63729 -1.63146,-0.63729 -2.90604,-1.88638 -1.24909,-1.24909 -2.01384,-3.08448 -0.73926,-1.8354 -0.73926,-4.2571 0,-2.24326 0.63729,-4.41005 0.63729,-2.16678 1.75892,-3.84923 1.12163,-1.70793 2.67662,-2.75309 1.58048,-1.04516 3.44137,-1.04516 1.35105,0 2.29424,0.56082 0.94319,0.53532 1.5295,1.32556 0.5863,0.76475 0.84122,1.65696 0.28041,0.8922 0.28041,1.58048 0,0.50983 -0.28041,0.91769 -0.25492,0.40787 -0.63729,0.68828 -0.38237,0.2804 -0.84122,0.43335 -0.45885,0.12746 -0.81573,0.10197 -0.35689,-0.0255 -0.58631,-0.25492 -0.20393,-0.22942 -0.12746,-0.68827 -0.10197,-0.33139 -0.20393,-0.81573 -0.0765,-0.48434 -0.3059,-0.9177 -0.20393,-0.45885 -0.58631,-0.76475 -0.38237,-0.33139 -1.04515,-0.33139 -0.71377,0 -1.40204,0.68828 -0.66278,0.66278 -1.19811,1.83539 -0.50983,1.17262 -0.84122,2.7276 -0.3059,1.55499 -0.3059,3.31391 0,1.55499 0.38238,2.75309 0.40786,1.19811 1.12163,2.01384 0.71376,0.81573 1.68244,1.24909 0.99417,0.40786 2.1413,0.40786 1.52949,0 2.65112,-0.56081 1.14712,-0.58631 1.93736,-1.5295 0.79024,-0.94319 1.27458,-2.1158 0.48434,-1.17261 0.71377,-2.37072 0.17844,-0.86671 0.71376,-1.14712 0.56082,-0.3059 1.12163,-0.15295 0.58631,0.15295 0.99418,0.66278 0.43335,0.48434 0.35688,1.17262 -0.10197,0.79024 -0.38237,1.8099 -0.25492,1.01966 -0.76475,2.06482 -0.50983,1.04515 -1.30007,2.06482 -0.76475,0.99417 -1.88638,1.78441 -1.12163,0.79024 -2.62564,1.27458 -1.47851,0.48434 -3.39038,0.48434 z"
         style="font-style:normal;font-variant:normal;font-weight:normal;font-stretch:normal;font-family:'Grand Hotel';-inkscape-font-specification:'Grand Hotel';text-align:end;text-anchor:end;fill:#0000ff;stroke-width:0.978877"
         id="path969" />
      <path
         d="m 214.18565,135.56571 q -0.89221,0 -1.63146,-0.28041 -0.71377,-0.2804 -1.27458,-0.79024 -0.53533,-0.48434 -0.89221,-1.14712 -0.35688,-0.68827 -0.48434,-1.47851 -0.94319,1.65695 -2.21777,2.70211 -1.27458,1.04515 -3.00801,1.04515 -1.30007,0 -2.34522,-0.53532 -1.01967,-0.53532 -1.73343,-1.504 -0.71377,-0.99418 -1.09614,-2.37072 -0.35688,-1.40204 -0.35688,-3.10998 0,-2.06482 0.2804,-4.15513 0.3059,-2.09031 0.66279,-3.77276 0.40786,-1.96285 0.94318,-3.79824 0.12746,-0.3314 0.17845,-0.66279 0.0765,-0.35688 0.3059,-0.63729 0.22942,-0.2804 0.71376,-0.45884 0.50983,-0.17845 1.55499,-0.17845 0.96868,0 1.24909,0.35689 0.2804,0.33139 0.20393,0.79024 -0.051,0.45884 -0.3059,0.94319 -0.22942,0.48434 -0.3059,0.79023 -0.35688,1.45303 -0.63729,2.65113 -0.28041,1.19811 -0.48434,2.4217 -0.17844,1.19811 -0.28041,2.52367 -0.10196,1.30007 -0.10196,2.93154 0,2.14129 0.61179,3.23743 0.63729,1.09614 1.78442,1.09614 0.79024,0 1.45302,-0.58631 0.68827,-0.58631 1.22359,-1.55499 0.56082,-0.99417 0.96869,-2.24326 0.40786,-1.27458 0.63729,-2.65112 v -8.41223 q 0,-0.56082 -0.10197,-0.89221 -0.0765,-0.33139 -0.17844,-0.50983 -0.0765,-0.20393 -0.17844,-0.3059 -0.0765,-0.12746 -0.0765,-0.28041 0,-0.12745 0.15295,-0.22942 0.15295,-0.10197 0.40787,-0.17844 0.25491,-0.0765 0.53532,-0.10197 0.3059,-0.051 0.58631,-0.051 1.30007,0 2.03933,0.68827 0.76474,0.66278 0.76474,1.60597 v 13.25563 q 0,0.17845 0.0255,0.58631 0.0255,0.38238 0.15294,0.79024 0.12746,0.40787 0.40787,0.71377 0.28041,0.30589 0.79024,0.30589 0.79024,0 1.35105,-0.56081 0.58631,-0.56082 0.99418,-1.40204 0.43335,-0.84122 0.68827,-1.8099 0.28041,-0.99417 0.45885,-1.86089 0.15295,-0.81573 0.50983,-1.17261 0.35688,-0.38238 0.73926,-0.38238 0.3059,0 0.63729,0.20394 0.33139,0.17844 0.5863,0.48434 0.28041,0.3059 0.43336,0.68827 0.17844,0.38237 0.17844,0.76475 0,0.051 0,0.12746 0,0.0765 -0.051,0.22942 -0.35688,1.30007 -0.94319,2.7276 -0.56081,1.42753 -1.45302,2.62564 -0.89221,1.1981 -2.1413,1.98834 -1.24908,0.79024 -2.93153,0.79024 z"
         style="font-style:normal;font-variant:normal;font-weight:normal;font-stretch:normal;font-family:'Grand Hotel';-inkscape-font-specification:'Grand Hotel';text-align:end;text-anchor:end;fill:#0000ff;stroke-width:0.978877"
         id="path971" />
      <path
         d="m 214.10917,109.56428 q 0.58631,0.051 1.30008,0.0765 0.61179,0.051 1.47851,0.0765 0.86671,0 1.93736,0.0255 v -8.84559 q 0,-0.56081 -0.10197,-0.8922 -0.0765,-0.331392 -0.17844,-0.509832 -0.0765,-0.20394 -0.17844,-0.3059 -0.0765,-0.12746 -0.0765,-0.25492 0,-0.15295 0.15295,-0.25492 0.15295,-0.10196 0.40786,-0.17844 0.25492,-0.0765 0.53533,-0.10196 0.3059,-0.051 0.5863,-0.051 1.30007,0 2.03933,0.68828 0.76475,0.66278 0.76475,1.605972 v 9.15148 q 2.39621,0 5.04734,-0.051 2.67661,-0.051 5.35323,-0.17844 0.35688,-0.38238 0.56082,-0.28041 0.22942,0.10197 0.28041,0.48434 0.0765,0.38237 0.0255,0.94319 -0.051,0.56082 -0.20394,1.09614 -0.15295,0.50983 -0.43335,0.8922 -0.25492,0.38238 -0.58631,0.38238 -3.13547,0.0765 -5.55717,0.10197 -2.39621,0 -4.48652,0 v 16.54404 q 0,1.27458 0.48434,1.8354 0.48434,0.56081 1.30007,0.56081 0.79024,0 1.35106,-0.56081 0.5863,-0.56082 0.99417,-1.40204 0.43336,-0.84122 0.68827,-1.8099 0.28041,-0.99417 0.45885,-1.86089 0.15295,-0.81573 0.50983,-1.17261 0.35688,-0.38238 0.73926,-0.38238 0.3059,0 0.63729,0.20394 0.33139,0.17844 0.58631,0.48434 0.2804,0.3059 0.43335,0.68827 0.17844,0.38237 0.17844,0.76475 0,0.051 0,0.12746 0,0.0765 -0.051,0.22942 -0.33139,1.30007 -0.9177,2.7276 -0.56081,1.42753 -1.47851,2.62564 -0.89221,1.1981 -2.14129,1.98834 -1.24909,0.79024 -2.93154,0.79024 -1.04515,0 -1.93736,-0.33139 -0.86671,-0.3059 -1.504,-1.01966 -0.63729,-0.68828 -0.99418,-1.78442 -0.35688,-1.09613 -0.35688,-2.65112 v -16.59503 q -0.86671,0 -1.55499,0 -0.66278,-0.0255 -1.12163,-0.051 -0.53532,-0.0255 -0.94319,-0.051 -0.61179,0 -1.07064,-0.53532 -0.48434,-0.56082 -0.66279,-1.2236 -0.20393,-0.66278 -0.051,-1.19811 0.12746,-0.56081 0.68827,-0.56081 z"
         style="font-style:normal;font-variant:normal;font-weight:normal;font-stretch:normal;font-family:'Grand Hotel';-inkscape-font-specification:'Grand Hotel';text-align:end;text-anchor:end;fill:#0000ff;stroke-width:0.978877"
         id="path973" />
      <path
         d="m 240.28905,118.9197 q 0,1.45302 -0.50983,2.98251 -0.48435,1.5295 -1.47852,2.90605 -0.96868,1.35105 -2.4217,2.44719 -1.42753,1.07065 -3.31391,1.63146 0.25492,0.66278 0.66278,1.27458 0.43336,0.58631 1.01967,1.01967 0.5863,0.43335 1.35105,0.68827 0.79024,0.25491 1.80991,0.25491 1.52949,0 2.62563,-0.56081 1.09614,-0.58631 1.8354,-1.5295 0.76474,-0.94319 1.22359,-2.1158 0.45885,-1.17261 0.68828,-2.37072 0.17844,-0.86671 0.71376,-1.14712 0.56082,-0.3059 1.12163,-0.15295 0.58631,0.15295 0.99417,0.66278 0.43336,0.48434 0.35689,1.17262 -0.10197,0.79024 -0.35689,1.8099 -0.22942,1.01966 -0.71376,2.06482 -0.48434,1.04515 -1.24909,2.06482 -0.73926,0.99417 -1.83539,1.78441 -1.09614,0.79024 -2.57466,1.27458 -1.47851,0.48434 -3.39038,0.48434 -1.78441,0 -3.46686,-0.71376 -1.65695,-0.68828 -2.95702,-1.98835 -1.27458,-1.32556 -2.06482,-3.23743 -0.76475,-1.93736 -0.76475,-4.38456 0,-2.47268 0.68827,-4.58849 0.68828,-2.14129 1.80991,-3.69628 1.12163,-1.55499 2.54916,-2.4217 1.42753,-0.89221 2.93153,-0.89221 1.09614,0 1.96285,0.38238 0.89221,0.38237 1.50401,1.09614 0.6118,0.68827 0.9177,1.65695 0.33139,0.96868 0.33139,2.1413 z m -8.41223,6.16896 q 0,0.22943 0.0255,0.45885 0.0255,0.22943 0.0255,0.48434 0.96868,-0.45885 1.75892,-1.17261 0.79024,-0.71377 1.35106,-1.63146 0.56081,-0.9177 0.86671,-1.98835 0.3059,-1.09614 0.3059,-2.26875 0,-0.86672 -0.3059,-1.35106 -0.28041,-0.48434 -0.79024,-0.48434 -0.63729,0 -1.14712,0.43336 -0.48434,0.43336 -0.86671,1.14712 -0.35689,0.68828 -0.6118,1.58048 -0.22943,0.86672 -0.38238,1.75892 -0.15295,0.89221 -0.20393,1.70794 -0.051,0.79024 -0.0255,1.32556 z"
         style="font-style:normal;font-variant:normal;font-weight:normal;font-stretch:normal;font-family:'Grand Hotel';-inkscape-font-specification:'Grand Hotel';text-align:end;text-anchor:end;fill:#0000ff;stroke-width:0.978877"
         id="path975" />
    </g>
    <g
       aria-label="You're
so cute"
       id="text843"
       style="font-style:normal;font-variant:normal;font-weight:normal;font-stretch:normal;font-size:52.2068px;line-height:0.65;font-family:'Grand Hotel';-inkscape-font-specification:'Grand Hotel';text-align:end;letter-spacing:0px;word-spacing:0px;writing-mode:lr-tb;text-anchor:end;fill:#00ffff;stroke-width:0.978877"
       transform="translate(-22.682225,3.279882)">
      <path
         d="m 123.62985,104.63342 v 1.58048 q 0.73925,-0.12746 1.42752,-0.17844 0.71377,-0.051 1.32557,-0.10197 0.6118,-0.0255 0.9177,0.25492 0.33139,0.2804 0.40786,0.73925 0.0765,0.45885 -0.051,0.99417 -0.12746,0.53533 -0.40787,0.99418 -0.28041,0.48434 -0.68827,0.81573 -0.38237,0.33139 -0.84122,0.33139 -0.58631,0 -1.12163,0.0255 -0.50984,0.0255 -1.01967,0.0765 -0.12746,2.26875 -0.50983,4.51201 -0.35688,2.26875 -1.19811,4.07865 -0.84122,1.8354 -2.26875,2.95703 -1.42753,1.14712 -3.69628,1.14712 -1.35105,0 -2.44719,-0.48434 -1.07065,-0.45885 -1.8354,-1.30007 -0.76475,-0.81573 -1.17261,-1.93736 -0.40787,-1.12163 -0.40787,-2.44719 0,-1.98835 0.81573,-3.51785 0.81573,-1.52949 2.1413,-2.70211 1.32556,-1.17261 3.0335,-1.98834 1.70794,-0.79024 3.51784,-1.32556 v -0.58631 -7.214123 q -0.81573,1.351053 -1.73343,2.549163 -0.9177,1.17261 -1.93736,2.06482 -0.99417,0.86671 -2.06482,1.35105 -1.07065,0.50983 -2.19228,0.50983 -0.56081,0 -1.1981,-0.22942 -0.6118,-0.22943 -1.14713,-0.76475 -0.50983,-0.50983 -0.86671,-1.37655 -0.33139,-0.86671 -0.33139,-2.16678 V 71.902202 q -1.75892,0.229425 -3.3394,0.994173 -1.55499,0.764748 -2.7276,2.090311 -1.14712,1.325563 -1.8354,3.211942 -0.662779,1.886378 -0.662779,4.359064 0,1.580479 0.331391,2.855059 0.331388,1.249088 0.790238,2.141294 0.45885,0.866715 0.9177,1.351055 0.45885,0.484341 0.71376,0.484341 0.22943,0 0.43336,-0.101967 0.20393,-0.101966 0.40787,-0.101966 0.40786,0 0.40786,0.63729 0,0.815731 -0.38237,1.580479 -0.35688,0.739256 -0.9177,1.223597 -0.56081,0.458849 -1.2236,0.586307 -0.66278,0.127458 -1.223593,-0.280408 -0.688273,-0.458849 -1.478513,-1.402038 -0.764748,-0.943189 -1.42753,-2.268752 -0.63729,-1.351055 -1.070647,-3.033501 -0.407866,-1.682446 -0.407866,-3.67079 0,-2.753093 0.662782,-4.919879 0.662782,-2.192278 1.758921,-3.823741 1.12163,-1.631462 2.600146,-2.778584 1.47851,-1.147122 3.10997,-1.860887 1.63146,-0.713765 3.31391,-1.019664 1.68245,-0.331391 3.21194,-0.331391 0.40787,0 0.79024,0.178441 0.38238,0.15295 0.66278,0.458849 0.28041,0.280408 0.45885,0.688274 0.17844,0.407865 0.17844,0.866714 v 30.972296 q 0,0.50983 0.15295,0.63729 0.17844,0.10197 0.33139,0.10197 0.38238,0 1.04516,-0.53533 0.66278,-0.56081 1.42753,-1.453019 0.79024,-0.917698 1.58048,-2.090312 0.79024,-1.198105 1.42753,-2.472685 0.63729,-1.27458 1.04515,-2.54916 0.40787,-1.27458 0.40787,-2.396211 V 70.398198 q 0,-0.739256 -0.10197,-1.070647 -0.10196,-0.331391 -0.10196,-0.611799 0,-0.382374 0.38237,-0.63729 0.40787,-0.254916 0.96868,-0.254916 1.30007,0 2.1158,0.688273 0.81574,0.662782 0.81574,1.631463 z m -7.62199,14.19882 q 0.86671,0 1.47851,-0.63729 0.6118,-0.63729 1.01966,-1.73343 0.40787,-1.07065 0.6118,-2.49818 0.22943,-1.40203 0.33139,-2.95702 -2.60014,0.79024 -3.97669,2.19228 -1.35105,1.42753 -1.35105,3.39038 0,1.1981 0.53532,1.70794 0.56082,0.53532 1.35106,0.53532 z"
         style="font-style:normal;font-variant:normal;font-weight:normal;font-stretch:normal;font-family:'Grand Hotel';-inkscape-font-specification:'Grand Hotel';text-align:end;text-anchor:end;fill:#00ffff;stroke-width:0.978877"
         id="path929" />
      <path
         d="m 147.79588,95.762341 q 0.051,-0.305899 0.33139,-0.509832 0.3059,-0.203933 0.68828,-0.280408 0.38237,-0.07648 0.79024,0 0.43335,0.07648 0.73925,0.356883 0.33139,0.254916 0.45885,0.739256 0.15295,0.458849 -0.0255,1.198105 -0.22942,1.070647 -0.76475,2.013837 -0.50983,0.917698 -1.30007,1.631458 -0.79024,0.71377 -1.86089,1.12163 -1.07064,0.40787 -2.39621,0.40787 -0.71376,0 -1.35105,-0.0765 -0.6118,-0.0765 -1.19811,-0.28041 -0.96868,1.68244 -2.49817,2.70211 -1.5295,1.04515 -3.77276,1.04515 -1.98835,0 -3.41588,-0.79024 -1.42753,-0.76474 -2.37071,-2.09031 -0.94319,-1.35105 -1.40204,-3.109973 -0.43336,-1.758921 -0.43336,-3.721774 0,-2.880551 0.66278,-5.149303 0.68827,-2.294244 1.58048,-3.874723 0.89221,-1.605971 1.75892,-2.447194 0.89221,-0.841223 1.32556,-0.841223 0.50984,0 0.9177,0.458849 0.43336,0.433357 0.6118,1.045155 0.20393,0.586307 0.10197,1.198106 -0.0765,0.611798 -0.58631,0.943189 -0.3059,0.48434 -0.73926,1.12163 -0.40786,0.63729 -0.79024,1.605971 -0.35688,0.943189 -0.61179,2.319736 -0.25492,1.376546 -0.25492,3.313908 0,1.656954 0.28041,2.880551 0.3059,1.223597 0.81573,2.064815 0.53532,0.81574 1.1981,1.2236 0.68828,0.40787 1.45303,0.40787 1.12163,0 1.83539,-0.53533 0.73926,-0.56081 1.24909,-1.45302 -1.8354,-1.580477 -2.80408,-4.002179 -0.94319,-2.447194 -0.94319,-5.276762 0,-1.223596 0.25492,-2.319735 0.28041,-1.121631 0.79024,-1.962853 0.53532,-0.841223 1.32556,-1.325564 0.79024,-0.509832 1.8354,-0.509832 0.9177,0 1.73343,0.662782 0.81573,0.662781 1.42753,1.835395 0.61179,1.172614 0.94319,2.778585 0.35688,1.60597 0.35688,3.492349 0,1.453021 -0.17844,2.880551 -0.17844,1.427529 -0.56082,2.753093 0.28041,0.101966 0.50983,0.127458 0.25492,0 0.53533,0 0.84122,0 1.47851,-0.305899 0.66278,-0.3059 1.12163,-0.815732 0.45885,-0.509832 0.73926,-1.198105 0.2804,-0.688273 0.40786,-1.453021 z m -9.96721,-4.843404 q 0,1.75892 0.53532,3.339399 0.56082,1.58048 1.45302,2.753093 0.15295,-1.249088 0.15295,-2.39621 0,-1.325563 -0.051,-2.447194 -0.0255,-1.147122 -0.17844,-1.962853 -0.12746,-0.815731 -0.38238,-1.27458 -0.22942,-0.484341 -0.63729,-0.484341 -0.8922,0 -0.8922,2.472686 z"
         style="font-style:normal;font-variant:normal;font-weight:normal;font-stretch:normal;font-family:'Grand Hotel';-inkscape-font-specification:'Grand Hotel';text-align:end;text-anchor:end;fill:#00ffff;stroke-width:0.978877"
         id="path931" />
      <path
         id="path933"
         style="font-style:normal;font-variant:normal;font-weight:normal;font-stretch:normal;font-family:'Grand Hotel';-inkscape-font-specification:'Grand Hotel';text-align:end;text-anchor:end;fill:#00ffff;stroke-width:3.69969"
         d="m 660.78906,308.65625 c -1.28462,0 -2.53549,0.22616 -3.75586,0.67578 -1.22037,0.38538 -2.28046,0.99508 -3.17968,1.83008 -0.89927,0.77077 -1.63872,1.73447 -2.2168,2.89062 -0.51375,1.09193 -0.77149,2.31131 -0.77149,3.66016 0,2.89039 0.80439,5.39601 2.41016,7.51563 1.60577,2.05538 3.62758,3.75662 6.06836,5.10546 -0.0643,2.505 0.67829,4.14983 -1.19141,8.19727 -1.83462,3.96551 -3.74461,7.94639 -5.73242,11.94336 -1.89365,3.94026 -3.80555,7.68011 -5.73633,11.2168 -1.89569,3.45473 -3.62319,6.35067 -5.81391,9.63593 -2.19071,3.28526 -4.06105,5.42087 -6.03374,7.30547 -2.09556,2.08464 -4.20033,3.65549 -6.31641,4.71289 -2.05784,1.08439 -10.02641,3.64063 -12.01758,3.64063 -1.28462,0 -2.27978,-0.38546 -2.98633,-1.15625 -0.70654,-0.77076 -1.21975,-1.66954 -1.54101,-2.69727 -0.32107,-1.02765 -0.51387,-2.02285 -0.57813,-2.98633 -0.0661,-1.02765 -0.0957,-1.76718 -0.0957,-2.21679 v -50.09961 c 0,-2.37654 -0.96371,-4.40031 -2.89062,-6.07031 -1.86271,-1.73424 -4.43323,-2.60157 -7.70899,-2.60157 -0.70654,0 -1.44408,0.0649 -2.21484,0.19336 -0.70651,0.0642 -1.38111,0.19205 -2.02344,0.38477 -0.64233,0.19269 -1.15562,0.41885 -1.54101,0.67578 -0.38533,0.25692 -0.57813,0.54409 -0.57813,0.86523 0,0.38539 0.0963,0.7394 0.28906,1.06055 0.25686,0.25692 0.48107,0.6424 0.67383,1.15625 0.25686,0.44962 0.48107,1.09274 0.67383,1.92774 0.25689,0.83499 0.38672,1.95801 0.38672,3.37109 v 31.79492 c -0.57808,3.46847 -1.38247,6.80799 -2.41016,10.01953 -1.02769,3.14731 -2.2471,5.9735 -3.66015,8.47852 -1.34888,2.44078 -2.89077,4.39965 -4.625,5.87695 -1.66999,1.4773 -3.50102,2.2168 -5.49219,2.2168 -2.8904,0 -5.13837,-1.38065 -6.74414,-4.14258 -1.54156,-2.76193 -2.3125,-6.84095 -2.3125,-12.23633 0,-4.11077 0.12971,-7.8043 0.38672,-11.08008 0.25693,-3.34 0.60898,-6.52021 1.05859,-9.53906 0.51383,-3.08308 1.12353,-6.13349 1.83008,-9.15234 0.70654,-3.01885 1.51093,-6.35838 2.41015,-10.01953 0.19272,-0.77077 0.57818,-1.76595 1.15625,-2.98633 0.64226,-1.22039 1.02775,-2.41026 1.15625,-3.56641 0.19272,-1.15615 -0.0649,-2.15133 -0.77148,-2.98633 -0.70655,-0.89923 -2.27992,-1.34765 -4.7207,-1.34765 -2.63347,0 -4.59233,0.22421 -5.87696,0.67383 -1.22037,0.44961 -2.11918,1.02783 -2.69726,1.73437 -0.57801,0.70654 -0.9635,1.50897 -1.15625,2.4082 -0.12847,0.835 -0.35452,1.67086 -0.67578,2.50586 -1.34888,4.62462 -2.53677,9.4097 -3.56446,14.35547 -0.89922,4.23924 -1.73314,8.99089 -2.5039,14.25781 -0.70643,5.26693 -1.06055,10.50238 -1.06055,15.70508 0,4.30346 0.45038,8.22122 1.34961,11.75391 0.96344,3.46847 2.34409,6.45594 4.14258,8.96094 1.79845,2.44078 3.98153,4.33475 6.55078,5.68359 2.63346,1.34887 5.58749,2.02344 8.86328,2.02344 4.36766,0 8.1576,-1.31576 11.36914,-3.94922 3.21154,-2.63346 6.00628,-6.03788 8.38281,-10.21289 0.32115,1.99117 0.93086,3.85365 1.83008,5.58789 0.89926,1.67002 2.02421,3.11556 3.37305,4.33594 1.41309,1.28462 3.01795,2.27978 4.8164,2.98632 1.86271,0.7064 3.91796,1.0586 6.16602,1.0586 4.23923,0 7.16022,-0.1856 11.10938,-1.22852 3.94915,-1.04296 7.77218,-2.88347 11.46874,-5.52344 3.28876,-2.34866 6.39228,-5.13177 9.33204,-8.30078 4.72206,-4.88955 8.9374,-10.50457 11.61523,-15.56445 2.67783,-5.05988 4.29399,-7.42406 6.26563,-11.14844 2.17591,-4.11042 4.12783,-8.02648 5.85742,-11.74609 1.78858,-3.69439 3.50801,-10.65316 3.57226,-12.58008 h 2.2168 15.0293 c -3.21154,8.5427 -5.68374,16.37819 -7.41797,23.50781 -1.66999,7.06539 -2.50586,13.77787 -2.50586,20.13672 0,4.3677 0.60971,7.99633 1.83008,10.88672 1.28462,2.82614 2.89144,5.10561 4.81836,6.83984 1.99116,1.73424 4.17425,2.95557 6.55078,3.66211 2.44078,0.7064 4.81854,1.0586 7.13086,1.0586 4.23923,-4e-5 7.93279,-0.9952 11.08007,-2.98633 3.14733,-1.99117 5.8437,-4.49485 8.0918,-7.51367 2.24806,-3.01886 4.0791,-6.32693 5.49219,-9.92383 1.4773,-3.59694 2.66523,-7.03477 3.56445,-10.31055 0,-0.19267 0.0334,-0.3854 0.0977,-0.57812 0.0661,-0.19269 0.0957,-0.44839 0.0957,-0.76953 0,-0.96347 -0.22421,-1.92717 -0.67383,-2.89063 -0.38539,-0.96346 -0.93212,-1.83079 -1.63867,-2.60156 -0.64229,-0.77077 -1.38178,-1.38046 -2.2168,-1.83008 -0.83501,-0.51383 -1.63744,-0.77148 -2.4082,-0.77148 -0.96348,0 -1.89374,0.48185 -2.79297,1.44531 -0.89922,0.89923 -1.54233,2.37625 -1.92773,4.43164 -0.44961,2.18385 -1.02783,4.5282 -1.73438,7.0332 -0.64233,2.44077 -1.50965,4.72217 -2.60156,6.8418 -1.09194,2.1196 -2.4411,3.88574 -4.04687,5.29883 -1.60577,1.41309 -3.5312,2.11914 -5.7793,2.11914 -1.34884,0 -2.53872,-0.28911 -3.56641,-0.86719 -0.96344,-0.57808 -1.76587,-1.34902 -2.4082,-2.3125 -0.64229,-1.02769 -1.12405,-2.18416 -1.44531,-3.46875 -0.32111,-1.28466 -0.48047,-2.60038 -0.48047,-3.94922 0,-3.27577 0.22421,-6.6153 0.67383,-10.01953 0.44961,-3.46846 0.99634,-6.80994 1.63867,-10.02148 0.64233,-3.21154 1.34838,-6.26196 2.11914,-9.15235 0.77076,-2.95462 1.47681,-5.55661 2.11914,-7.80469 0.64233,-2.24807 1.18906,-4.11058 1.63867,-5.58789 0.44954,-1.4773 0.67383,-2.40758 0.67383,-2.79296 0.19268,-1.15616 -0.0964,-2.3775 -0.86719,-3.66211 -0.7065,-1.28462 -1.60532,-2.47253 -2.69726,-3.56446 -1.09195,-1.15615 -2.21689,-2.08838 -3.37305,-2.79492 -1.09191,-0.70653 -1.92583,-1.05859 -2.50391,-1.05859 h -10.31054 -1.54102 c -0.51383,0 -1.15502,-0.0315 -1.92578,-0.0957 -0.77076,-0.0642 -1.73447,-0.12914 -2.89063,-0.19336 -1.0919,-0.12845 -2.4411,-0.2897 -4.04687,-0.48242 -0.57808,-1.99115 -1.31757,-3.66092 -2.2168,-5.00976 -0.89922,-1.34885 -1.92587,-2.44039 -3.08203,-3.27539 -1.09194,-0.835 -2.27983,-1.41323 -3.56445,-1.73438 -1.22037,-0.32114 -2.41025,-0.48242 -3.56641,-0.48242 z"
         sodipodi:nodetypes="scccsccccccccssccsscscssscccsccccscsccsccccscsccccscccssccccsssczscccccscccssscccscccscccssscccscscssccccscssccsccss"
         transform="scale(0.26458333)" />
      <path
         d="m 168.97089,79.065342 q 0,0.382374 -0.53532,0.662782 -0.53533,0.254916 -1.17262,0.331391 -0.63729,0.07647 -1.17261,-0.05098 -0.53533,-0.152949 -0.56082,-0.586306 v -9.024027 q 0,-0.229424 -0.0765,-0.356882 -0.051,-0.127458 -0.12746,-0.203933 -0.051,-0.07648 -0.12746,-0.127458 -0.051,-0.07648 -0.051,-0.203933 0,-0.280408 0.40786,-0.433357 0.40787,-0.15295 1.12163,-0.15295 0.35689,0 0.73926,0.05098 0.40787,0.02549 0.73926,0.127458 0.35688,0.101967 0.5863,0.280408 0.22943,0.178441 0.22943,0.433357 z"
         style="font-style:normal;font-variant:normal;font-weight:normal;font-stretch:normal;font-family:'Grand Hotel';-inkscape-font-specification:'Grand Hotel';text-align:end;text-anchor:end;fill:#00ffff;stroke-width:0.978877"
         id="path935" />
      <path
         d="m 201.82956,89.185508 q 0,1.453021 -0.50983,2.982517 -0.48435,1.529496 -1.47852,2.906043 -0.96868,1.351054 -2.4217,2.447193 -1.42753,1.070647 -3.31391,1.631463 0.25492,0.662781 0.66278,1.274576 0.43336,0.58631 1.01967,1.01967 0.5863,0.43336 1.35105,0.68827 0.79024,0.25492 1.80991,0.25492 1.52949,0 2.62563,-0.56082 1.09614,-0.58631 1.8354,-1.52949 0.76474,-0.943193 1.22359,-2.115807 0.45885,-1.172614 0.68828,-2.370719 0.17844,-0.866714 0.71376,-1.147122 0.56082,-0.305899 1.12163,-0.15295 0.58631,0.15295 0.99417,0.662782 0.43336,0.48434 0.35689,1.172614 -0.10197,0.790239 -0.35689,1.809903 -0.22942,1.019664 -0.71376,2.064819 -0.48434,1.04516 -1.24909,2.06482 -0.73926,0.99417 -1.83539,1.78441 -1.09614,0.79024 -2.57466,1.27458 -1.47851,0.48434 -3.39038,0.48434 -1.78441,0 -3.46686,-0.71376 -1.65695,-0.68827 -2.95702,-1.98835 -1.27458,-1.32556 -2.06482,-3.23743 -0.76475,-1.937362 -0.76475,-4.384555 0,-2.472685 0.68827,-4.588488 0.68828,-2.141295 1.80991,-3.696282 1.12163,-1.554988 2.54916,-2.421703 1.42753,-0.892206 2.93153,-0.892206 1.09614,0 1.96285,0.382374 0.89221,0.382374 1.50401,1.096139 0.6118,0.688273 0.9177,1.656954 0.33139,0.968681 0.33139,2.141295 z m -8.41223,6.168967 q 0,0.229425 0.0255,0.458849 0.0255,0.229424 0.0255,0.48434 0.96868,-0.458848 1.75892,-1.172613 0.79024,-0.713765 1.35106,-1.631463 0.56081,-0.917697 0.86671,-1.988345 0.3059,-1.096138 0.3059,-2.268752 0,-0.866714 -0.3059,-1.351055 -0.28041,-0.48434 -0.79024,-0.48434 -0.63729,0 -1.14712,0.433357 -0.48434,0.433357 -0.86671,1.147122 -0.35689,0.688273 -0.6118,1.580479 -0.22943,0.866715 -0.38238,1.758921 -0.15295,0.892206 -0.20393,1.707937 -0.051,0.79024 -0.0255,1.325563 z"
         style="font-style:normal;font-variant:normal;font-weight:normal;font-stretch:normal;font-family:'Grand Hotel';-inkscape-font-specification:'Grand Hotel';text-align:end;text-anchor:end;fill:#00ffff;stroke-width:0.978877"
         id="path939" />
      <path
         d="m 140.03058,126.94955 q -0.20393,0.81573 -0.76475,1.01966 -0.56081,0.17845 -1.12163,-0.051 -0.53532,-0.22942 -0.91769,-0.79024 -0.35689,-0.56081 -0.20394,-1.2236 0.38238,-1.73342 1.09614,-3.82374 0.73926,-2.1158 1.45302,-4.20611 -0.38237,-0.58631 -0.61179,-1.17261 -0.22943,-0.6118 -0.22943,-1.27458 0,-0.66279 0.48434,-1.37655 0.50983,-0.73926 1.19811,-1.35106 0.71376,-0.61179 1.45302,-0.99417 0.76475,-0.40786 1.30007,-0.40786 0.94319,0 1.40204,0.63729 0.48434,0.63729 0.48434,1.70793 0,0.58631 -0.20393,1.17262 -0.17845,0.56081 -0.40787,1.07065 -0.22942,0.48434 -0.43336,0.84122 -0.17844,0.35688 -0.20393,0.45885 0.9177,1.63146 1.91187,2.88055 0.99417,1.24909 1.8099,2.47268 0.84123,1.2236 1.37655,2.60015 0.53532,1.37654 0.53532,3.23743 0,0.45885 -0.0765,0.94319 -0.051,0.48434 -0.17844,0.9177 0.91769,-0.17844 1.60597,-0.56082 0.71376,-0.38237 1.22359,-0.86671 0.53533,-0.50984 0.86672,-1.09614 0.35688,-0.58631 0.58631,-1.2236 0.2804,-0.73926 0.56081,-1.07065 0.28041,-0.33139 0.63729,-0.33139 0.33139,0 0.66278,0.22943 0.35689,0.20393 0.6118,0.53532 0.28041,0.33139 0.43336,0.68827 0.17844,0.35689 0.17844,0.63729 0,0.38238 -0.20393,0.9177 -0.20394,0.53533 -0.56082,1.09614 -0.33139,0.56082 -0.76475,1.09614 -0.43335,0.50983 -0.8922,0.89221 -1.2236,0.99417 -2.88055,1.68244 -1.65696,0.66278 -4.10415,0.84122 -0.94319,0.81574 -2.24326,1.32557 -1.27458,0.53532 -2.88055,0.53532 -0.81573,0 -1.68245,-0.20393 -0.84122,-0.20393 -1.63146,-0.53533 -0.76475,-0.30589 -1.40204,-0.68827 -0.63729,-0.38237 -1.01966,-0.76475 -0.96868,-0.91769 -1.24909,-1.83539 -0.2804,-0.94319 -0.12745,-1.68245 0.12745,-0.73925 0.53532,-1.1981 0.40786,-0.48434 0.84122,-0.48434 0.25491,0 0.79024,0.22942 0.56081,0.20393 1.27458,0.56082 0.71376,0.33139 1.55498,0.71376 0.84123,0.38238 1.68245,0.73926 0.84122,0.33139 1.63146,0.56081 0.81573,0.20394 1.47852,0.20394 0.43335,-0.50984 0.79024,-1.35106 0.35688,-0.84122 0.35688,-1.83539 0,-1.2236 -0.33139,-2.26876 -0.33139,-1.04515 -0.86672,-1.93736 -0.53532,-0.8922 -1.22359,-1.65695 -0.66279,-0.79024 -1.35106,-1.47852 -0.6118,1.50401 -1.07065,2.98252 -0.45885,1.45302 -0.96868,3.31391 z"
         style="font-style:normal;font-variant:normal;font-weight:normal;font-stretch:normal;font-family:'Grand Hotel';-inkscape-font-specification:'Grand Hotel';text-align:end;text-anchor:end;fill:#00ffff;stroke-width:0.978877"
         id="path941" />
      <path
         d="m 172.81278,125.49653 q 0.051,-0.3059 0.33139,-0.50983 0.3059,-0.20394 0.68828,-0.28041 0.38237,-0.0765 0.79023,0 0.43336,0.0765 0.73926,0.35688 0.33139,0.25492 0.45885,0.73926 0.15295,0.45885 -0.0255,1.1981 -0.22943,1.07065 -0.76475,2.01384 -0.50983,0.9177 -1.30007,1.63146 -0.79024,0.71377 -1.86089,1.12163 -1.07065,0.40787 -2.39621,0.40787 -0.71376,0 -1.35105,-0.0765 -0.6118,-0.0765 -1.19811,-0.2804 -0.96868,1.68244 -2.49818,2.70211 -1.52949,1.04515 -3.77275,1.04515 -1.98835,0 -3.41588,-0.79024 -1.42753,-0.76475 -2.37072,-2.09031 -0.94319,-1.35105 -1.40203,-3.10998 -0.43336,-1.75892 -0.43336,-3.72177 0,-2.88055 0.66278,-5.1493 0.68827,-2.29425 1.58048,-3.87473 0.89221,-1.60597 1.75892,-2.44719 0.89221,-0.84122 1.32556,-0.84122 0.50984,0 0.9177,0.45885 0.43336,0.43335 0.6118,1.04515 0.20393,0.58631 0.10197,1.19811 -0.0765,0.6118 -0.58631,0.94319 -0.3059,0.48434 -0.73926,1.12163 -0.40786,0.63729 -0.79024,1.60597 -0.35688,0.94319 -0.6118,2.31973 -0.25491,1.37655 -0.25491,3.31391 0,1.65696 0.28041,2.88055 0.3059,1.2236 0.81573,2.06482 0.53532,0.81573 1.1981,1.2236 0.68828,0.40786 1.45302,0.40786 1.12163,0 1.8354,-0.53532 0.73926,-0.56081 1.24909,-1.45302 -1.8354,-1.58048 -2.80408,-4.00218 -0.94319,-2.4472 -0.94319,-5.27676 0,-1.2236 0.25492,-2.31974 0.28041,-1.12163 0.79024,-1.96285 0.53532,-0.84122 1.32556,-1.32556 0.79024,-0.50984 1.8354,-0.50984 0.91769,0 1.73343,0.66278 0.81573,0.66279 1.42752,1.8354 0.6118,1.17261 0.94319,2.77858 0.35689,1.60598 0.35689,3.49235 0,1.45302 -0.17844,2.88055 -0.17845,1.42753 -0.56082,2.7531 0.28041,0.10196 0.50983,0.12746 0.25492,0 0.53533,0 0.84122,0 1.47851,-0.3059 0.66278,-0.3059 1.12163,-0.81573 0.45885,-0.50984 0.73926,-1.19811 0.2804,-0.68827 0.40786,-1.45302 z m -9.96721,-4.84341 q 0,1.75892 0.53532,3.3394 0.56081,1.58048 1.45302,2.7531 0.15295,-1.24909 0.15295,-2.39621 0,-1.32557 -0.051,-2.4472 -0.0255,-1.14712 -0.17844,-1.96285 -0.12746,-0.81573 -0.38238,-1.27458 -0.22942,-0.48434 -0.63729,-0.48434 -0.8922,0 -0.8922,2.47268 z"
         style="font-style:normal;font-variant:normal;font-weight:normal;font-stretch:normal;font-family:'Grand Hotel';-inkscape-font-specification:'Grand Hotel';text-align:end;text-anchor:end;fill:#00ffff;stroke-width:0.978877"
         id="path943" />
      <path
         d="m 192.67074,135.56571 q -1.73343,0 -3.36489,-0.63729 -1.63146,-0.63729 -2.90604,-1.88638 -1.24909,-1.24909 -2.01384,-3.08448 -0.73926,-1.8354 -0.73926,-4.2571 0,-2.24326 0.63729,-4.41005 0.63729,-2.16678 1.75892,-3.84923 1.12163,-1.70793 2.67662,-2.75309 1.58048,-1.04516 3.44137,-1.04516 1.35105,0 2.29424,0.56082 0.94319,0.53532 1.5295,1.32556 0.5863,0.76475 0.84122,1.65696 0.28041,0.8922 0.28041,1.58048 0,0.50983 -0.28041,0.91769 -0.25492,0.40787 -0.63729,0.68828 -0.38237,0.2804 -0.84122,0.43335 -0.45885,0.12746 -0.81573,0.10197 -0.35689,-0.0255 -0.58631,-0.25492 -0.20393,-0.22942 -0.12746,-0.68827 -0.10197,-0.33139 -0.20393,-0.81573 -0.0765,-0.48434 -0.3059,-0.9177 -0.20393,-0.45885 -0.58631,-0.76475 -0.38237,-0.33139 -1.04515,-0.33139 -0.71377,0 -1.40204,0.68828 -0.66278,0.66278 -1.19811,1.83539 -0.50983,1.17262 -0.84122,2.7276 -0.3059,1.55499 -0.3059,3.31391 0,1.55499 0.38238,2.75309 0.40786,1.19811 1.12163,2.01384 0.71376,0.81573 1.68244,1.24909 0.99417,0.40786 2.1413,0.40786 1.52949,0 2.65112,-0.56081 1.14712,-0.58631 1.93736,-1.5295 0.79024,-0.94319 1.27458,-2.1158 0.48434,-1.17261 0.71377,-2.37072 0.17844,-0.86671 0.71376,-1.14712 0.56082,-0.3059 1.12163,-0.15295 0.58631,0.15295 0.99418,0.66278 0.43335,0.48434 0.35688,1.17262 -0.10197,0.79024 -0.38237,1.8099 -0.25492,1.01966 -0.76475,2.06482 -0.50983,1.04515 -1.30007,2.06482 -0.76475,0.99417 -1.88638,1.78441 -1.12163,0.79024 -2.62564,1.27458 -1.47851,0.48434 -3.39038,0.48434 z"
         style="font-style:normal;font-variant:normal;font-weight:normal;font-stretch:normal;font-family:'Grand Hotel';-inkscape-font-specification:'Grand Hotel';text-align:end;text-anchor:end;fill:#00ffff;stroke-width:0.978877"
         id="path945" />
      <path
         d="m 214.18565,135.56571 q -0.89221,0 -1.63146,-0.28041 -0.71377,-0.2804 -1.27458,-0.79024 -0.53533,-0.48434 -0.89221,-1.14712 -0.35688,-0.68827 -0.48434,-1.47851 -0.94319,1.65695 -2.21777,2.70211 -1.27458,1.04515 -3.00801,1.04515 -1.30007,0 -2.34522,-0.53532 -1.01967,-0.53532 -1.73343,-1.504 -0.71377,-0.99418 -1.09614,-2.37072 -0.35688,-1.40204 -0.35688,-3.10998 0,-2.06482 0.2804,-4.15513 0.3059,-2.09031 0.66279,-3.77276 0.40786,-1.96285 0.94318,-3.79824 0.12746,-0.3314 0.17845,-0.66279 0.0765,-0.35688 0.3059,-0.63729 0.22942,-0.2804 0.71376,-0.45884 0.50983,-0.17845 1.55499,-0.17845 0.96868,0 1.24909,0.35689 0.2804,0.33139 0.20393,0.79024 -0.051,0.45884 -0.3059,0.94319 -0.22942,0.48434 -0.3059,0.79023 -0.35688,1.45303 -0.63729,2.65113 -0.28041,1.19811 -0.48434,2.4217 -0.17844,1.19811 -0.28041,2.52367 -0.10196,1.30007 -0.10196,2.93154 0,2.14129 0.61179,3.23743 0.63729,1.09614 1.78442,1.09614 0.79024,0 1.45302,-0.58631 0.68827,-0.58631 1.22359,-1.55499 0.56082,-0.99417 0.96869,-2.24326 0.40786,-1.27458 0.63729,-2.65112 v -8.41223 q 0,-0.56082 -0.10197,-0.89221 -0.0765,-0.33139 -0.17844,-0.50983 -0.0765,-0.20393 -0.17844,-0.3059 -0.0765,-0.12746 -0.0765,-0.28041 0,-0.12745 0.15295,-0.22942 0.15295,-0.10197 0.40787,-0.17844 0.25491,-0.0765 0.53532,-0.10197 0.3059,-0.051 0.58631,-0.051 1.30007,0 2.03933,0.68827 0.76474,0.66278 0.76474,1.60597 v 13.25563 q 0,0.17845 0.0255,0.58631 0.0255,0.38238 0.15294,0.79024 0.12746,0.40787 0.40787,0.71377 0.28041,0.30589 0.79024,0.30589 0.79024,0 1.35105,-0.56081 0.58631,-0.56082 0.99418,-1.40204 0.43335,-0.84122 0.68827,-1.8099 0.28041,-0.99417 0.45885,-1.86089 0.15295,-0.81573 0.50983,-1.17261 0.35688,-0.38238 0.73926,-0.38238 0.3059,0 0.63729,0.20394 0.33139,0.17844 0.5863,0.48434 0.28041,0.3059 0.43336,0.68827 0.17844,0.38237 0.17844,0.76475 0,0.051 0,0.12746 0,0.0765 -0.051,0.22942 -0.35688,1.30007 -0.94319,2.7276 -0.56081,1.42753 -1.45302,2.62564 -0.89221,1.1981 -2.1413,1.98834 -1.24908,0.79024 -2.93153,0.79024 z"
         style="font-style:normal;font-variant:normal;font-weight:normal;font-stretch:normal;font-family:'Grand Hotel';-inkscape-font-specification:'Grand Hotel';text-align:end;text-anchor:end;fill:#00ffff;stroke-width:0.978877"
         id="path947" />
      <path
         d="m 214.10917,109.56428 q 0.58631,0.051 1.30008,0.0765 0.61179,0.051 1.47851,0.0765 0.86671,0 1.93736,0.0255 v -8.84559 q 0,-0.56081 -0.10197,-0.8922 -0.0765,-0.331392 -0.17844,-0.509832 -0.0765,-0.20394 -0.17844,-0.3059 -0.0765,-0.12746 -0.0765,-0.25492 0,-0.15295 0.15295,-0.25492 0.15295,-0.10196 0.40786,-0.17844 0.25492,-0.0765 0.53533,-0.10196 0.3059,-0.051 0.5863,-0.051 1.30007,0 2.03933,0.68828 0.76475,0.66278 0.76475,1.605972 v 9.15148 q 2.39621,0 5.04734,-0.051 2.67661,-0.051 5.35323,-0.17844 0.35688,-0.38238 0.56082,-0.28041 0.22942,0.10197 0.28041,0.48434 0.0765,0.38237 0.0255,0.94319 -0.051,0.56082 -0.20394,1.09614 -0.15295,0.50983 -0.43335,0.8922 -0.25492,0.38238 -0.58631,0.38238 -3.13547,0.0765 -5.55717,0.10197 -2.39621,0 -4.48652,0 v 16.54404 q 0,1.27458 0.48434,1.8354 0.48434,0.56081 1.30007,0.56081 0.79024,0 1.35106,-0.56081 0.5863,-0.56082 0.99417,-1.40204 0.43336,-0.84122 0.68827,-1.8099 0.28041,-0.99417 0.45885,-1.86089 0.15295,-0.81573 0.50983,-1.17261 0.35688,-0.38238 0.73926,-0.38238 0.3059,0 0.63729,0.20394 0.33139,0.17844 0.58631,0.48434 0.2804,0.3059 0.43335,0.68827 0.17844,0.38237 0.17844,0.76475 0,0.051 0,0.12746 0,0.0765 -0.051,0.22942 -0.33139,1.30007 -0.9177,2.7276 -0.56081,1.42753 -1.47851,2.62564 -0.89221,1.1981 -2.14129,1.98834 -1.24909,0.79024 -2.93154,0.79024 -1.04515,0 -1.93736,-0.33139 -0.86671,-0.3059 -1.504,-1.01966 -0.63729,-0.68828 -0.99418,-1.78442 -0.35688,-1.09613 -0.35688,-2.65112 v -16.59503 q -0.86671,0 -1.55499,0 -0.66278,-0.0255 -1.12163,-0.051 -0.53532,-0.0255 -0.94319,-0.051 -0.61179,0 -1.07064,-0.53532 -0.48434,-0.56082 -0.66279,-1.2236 -0.20393,-0.66278 -0.051,-1.19811 0.12746,-0.56081 0.68827,-0.56081 z"
         style="font-style:normal;font-variant:normal;font-weight:normal;font-stretch:normal;font-family:'Grand Hotel';-inkscape-font-specification:'Grand Hotel';text-align:end;text-anchor:end;fill:#00ffff;stroke-width:0.978877"
         id="path949" />
      <path
         d="m 240.28905,118.9197 q 0,1.45302 -0.50983,2.98251 -0.48435,1.5295 -1.47852,2.90605 -0.96868,1.35105 -2.4217,2.44719 -1.42753,1.07065 -3.31391,1.63146 0.25492,0.66278 0.66278,1.27458 0.43336,0.58631 1.01967,1.01967 0.5863,0.43335 1.35105,0.68827 0.79024,0.25491 1.80991,0.25491 1.52949,0 2.62563,-0.56081 1.09614,-0.58631 1.8354,-1.5295 0.76474,-0.94319 1.22359,-2.1158 0.45885,-1.17261 0.68828,-2.37072 0.17844,-0.86671 0.71376,-1.14712 0.56082,-0.3059 1.12163,-0.15295 0.58631,0.15295 0.99417,0.66278 0.43336,0.48434 0.35689,1.17262 -0.10197,0.79024 -0.35689,1.8099 -0.22942,1.01966 -0.71376,2.06482 -0.48434,1.04515 -1.24909,2.06482 -0.73926,0.99417 -1.83539,1.78441 -1.09614,0.79024 -2.57466,1.27458 -1.47851,0.48434 -3.39038,0.48434 -1.78441,0 -3.46686,-0.71376 -1.65695,-0.68828 -2.95702,-1.98835 -1.27458,-1.32556 -2.06482,-3.23743 -0.76475,-1.93736 -0.76475,-4.38456 0,-2.47268 0.68827,-4.58849 0.68828,-2.14129 1.80991,-3.69628 1.12163,-1.55499 2.54916,-2.4217 1.42753,-0.89221 2.93153,-0.89221 1.09614,0 1.96285,0.38238 0.89221,0.38237 1.50401,1.09614 0.6118,0.68827 0.9177,1.65695 0.33139,0.96868 0.33139,2.1413 z m -8.41223,6.16896 q 0,0.22943 0.0255,0.45885 0.0255,0.22943 0.0255,0.48434 0.96868,-0.45885 1.75892,-1.17261 0.79024,-0.71377 1.35106,-1.63146 0.56081,-0.9177 0.86671,-1.98835 0.3059,-1.09614 0.3059,-2.26875 0,-0.86672 -0.3059,-1.35106 -0.28041,-0.48434 -0.79024,-0.48434 -0.63729,0 -1.14712,0.43336 -0.48434,0.43336 -0.86671,1.14712 -0.35689,0.68828 -0.6118,1.58048 -0.22943,0.86672 -0.38238,1.75892 -0.15295,0.89221 -0.20393,1.70794 -0.051,0.79024 -0.0255,1.32556 z"
         style="font-style:normal;font-variant:normal;font-weight:normal;font-stretch:normal;font-family:'Grand Hotel';-inkscape-font-specification:'Grand Hotel';text-align:end;text-anchor:end;fill:#00ffff;stroke-width:0.978877"
         id="path951" />
    </g>
  </g>
</svg>
