<?xml version="1.0" encoding="UTF-8" standalone="no"?>
<!-- Created with Inkscape (http://www.inkscape.org/) -->

<svg
   xmlns:dc="http://purl.org/dc/elements/1.1/"
   xmlns:cc="http://creativecommons.org/ns#"
   xmlns:rdf="http://www.w3.org/1999/02/22-rdf-syntax-ns#"
   xmlns:svg="http://www.w3.org/2000/svg"
   xmlns="http://www.w3.org/2000/svg"
   xmlns:sodipodi="http://sodipodi.sourceforge.net/DTD/sodipodi-0.dtd"
   xmlns:inkscape="http://www.inkscape.org/namespaces/inkscape"
   width="6in"
   height="4.5in"
   viewBox="0 0 152.4 114.3"
   version="1.1"
   id="svg8"
   inkscape:version="0.92.4 5da689c313, 2019-01-14"
   sodipodi:docname="wedding-rsvp.svg">
  <defs
     id="defs2">
    <inkscape:path-effect
       effect="roughen"
       id="path-effect874"
       is_visible="true"
       method="size"
       max_segment_size="0.1"
       segments="2"
       displace_x="0.05;1"
       displace_y="0.05;1"
       global_randomize="0.5;746414070"
       handles="along"
       shift_nodes="true"
       fixed_displacement="false"
       spray_tool_friendly="false" />
    <inkscape:path-effect
       effect="roughen"
       id="path-effect1189"
       is_visible="true"
       method="size"
       max_segment_size="1"
       segments="2"
       displace_x="0.1;1"
       displace_y="0.1;1"
       global_randomize="1;3102517725"
       handles="along"
       shift_nodes="true"
       fixed_displacement="false"
       spray_tool_friendly="false" />
    <inkscape:path-effect
       effect="roughen"
       id="path-effect1186"
       is_visible="true"
       method="size"
       max_segment_size="1"
       segments="2"
       displace_x="0.1;1"
       displace_y="0.1;1"
       global_randomize="1;3461071083"
       handles="along"
       shift_nodes="true"
       fixed_displacement="false"
       spray_tool_friendly="false" />
    <inkscape:path-effect
       effect="roughen"
       id="path-effect1183"
       is_visible="true"
       method="size"
       max_segment_size="1"
       segments="2"
       displace_x="0.1;1"
       displace_y="0.1;1"
       global_randomize="1;1"
       handles="along"
       shift_nodes="true"
       fixed_displacement="false"
       spray_tool_friendly="false" />
    <inkscape:path-effect
       effect="roughen"
       id="path-effect1180"
       is_visible="true"
       method="size"
       max_segment_size="1"
       segments="2"
       displace_x="0.1;1"
       displace_y="0.1;1"
       global_randomize="1;1"
       handles="along"
       shift_nodes="true"
       fixed_displacement="false"
       spray_tool_friendly="false" />
    <inkscape:path-effect
       effect="roughen"
       id="path-effect1177"
       is_visible="true"
       method="size"
       max_segment_size="1"
       segments="2"
       displace_x="0.1;1"
       displace_y="0.1;1"
       global_randomize="1;3094631454"
       handles="along"
       shift_nodes="true"
       fixed_displacement="false"
       spray_tool_friendly="false" />
    <inkscape:path-effect
       effect="roughen"
       id="path-effect1174"
       is_visible="true"
       method="size"
       max_segment_size="1"
       segments="2"
       displace_x="0.1;1"
       displace_y="0.1;1"
       global_randomize="1;328966585"
       handles="along"
       shift_nodes="true"
       fixed_displacement="false"
       spray_tool_friendly="false" />
    <inkscape:path-effect
       effect="roughen"
       id="path-effect1172"
       is_visible="true"
       method="size"
       max_segment_size="1"
       segments="2"
       displace_x="0.1;1"
       displace_y="0.1;1"
       global_randomize="1;1"
       handles="along"
       shift_nodes="true"
       fixed_displacement="false"
       spray_tool_friendly="false" />
    <inkscape:path-effect
       effect="roughen"
       id="path-effect1170"
       is_visible="true"
       method="size"
       max_segment_size="1"
       segments="2"
       displace_x="0.1;1"
       displace_y="0.1;1"
       global_randomize="1;2168086311"
       handles="along"
       shift_nodes="true"
       fixed_displacement="false"
       spray_tool_friendly="false" />
    <inkscape:path-effect
       effect="roughen"
       id="path-effect1167"
       is_visible="true"
       method="size"
       max_segment_size="1"
       segments="2"
       displace_x="0.1;1314223932"
       displace_y="0.1;1884803063"
       global_randomize="1;1037770540"
       handles="along"
       shift_nodes="true"
       fixed_displacement="false"
       spray_tool_friendly="false" />
  </defs>
  <sodipodi:namedview
     id="base"
     pagecolor="#ffffff"
     bordercolor="#666666"
     borderopacity="1.0"
     inkscape:pageopacity="0.0"
     inkscape:pageshadow="2"
     inkscape:zoom="0.93999997"
     inkscape:cx="173.0184"
     inkscape:cy="272.56653"
     inkscape:document-units="mm"
     inkscape:current-layer="layer1"
     showgrid="false"
     units="in"
     inkscape:window-width="1680"
     inkscape:window-height="986"
     inkscape:window-x="0"
     inkscape:window-y="27"
     inkscape:window-maximized="1"
     showguides="true"
     inkscape:guide-bbox="true" />
  <metadata
     id="metadata5">
    <rdf:RDF>
      <cc:Work
         rdf:about="">
        <dc:format>image/svg+xml</dc:format>
        <dc:type
           rdf:resource="http://purl.org/dc/dcmitype/StillImage" />
        <dc:title></dc:title>
      </cc:Work>
    </rdf:RDF>
  </metadata>
  <g
     inkscape:label="Layer 1"
     inkscape:groupmode="layer"
     id="layer1"
     transform="translate(0,-182.69998)">
    <path
       style="opacity:1;fill:none;fill-opacity:1;stroke:#000000;stroke-width:0.19911146;stroke-miterlimit:4;stroke-dasharray:none;stroke-opacity:1"
       d="m 12.887225,264.15994 0.104653,0.011 0.07589,0.008 0.104691,0.002 0.116764,10e-4 0.09358,0.004 0.09622,0.0114 0.118741,0.008 0.08794,0.0114 0.09453,-0.005 0.102878,0.002 0.112501,-0.0116 0.08488,0.007 0.09962,0.001 0.10526,10e-4 0.08824,10e-4 0.110121,-0.006 0.101703,-8.8e-4 0.100217,5.7e-4 0.100768,0.006 0.09447,-0.006 0.106602,-0.002 0.09657,-10e-4 0.09861,0.004 0.101512,3.2e-4 0.10777,-0.008 0.08646,-0.0215 0.115818,0.002 0.108693,0.008 0.09248,0.005 0.08833,4e-5 0.09592,-0.006 0.100982,0.002 0.09876,-0.002 0.09968,-10e-4 0.109298,-0.008 0.09596,-0.004 0.07938,0.005 0.119592,-0.001 0.101621,-0.003 0.110338,-0.0172 0.0862,0.004 0.104648,0.004 0.104765,0.0129 0.102319,-0.006 0.105874,0.01 0.08636,-0.008 0.09707,-2e-5 0.09309,-0.005 0.10557,-2e-4 0.09602,0.004 0.104677,0.003 0.103869,-0.006 0.08246,0.004 0.106559,0.005 0.106772,-7.8e-4 0.100654,0.0116 0.112793,-0.0128 0.06856,0.0133 0.123308,0.006 0.09268,-0.004 0.09997,-0.004 0.09789,-0.0149 0.123941,0.0142 0.08154,10e-4 0.07578,-0.0162 0.125948,0.007 0.09643,0.0125 0.09973,0.006 0.111399,-0.0136 0.08589,-10e-4 0.111169,-0.002 0.07353,-0.0168 0.100806,-0.005 0.117299,0.006 0.09699,-0.003 0.111482,-2.9e-4 0.08306,0.016 0.10056,-0.0158 0.117241,-6.9e-4 0.08723,-1.5e-4 0.11399,0.007 0.06208,0.002 0.128304,-0.003 0.08108,0.003 0.122482,-0.008 0.08812,-0.003 0.109556,0.008 0.108911,-0.0156 0.08463,-0.004 0.08325,0.002 0.118105,-0.004 0.09392,-0.003 0.10178,0.002 0.09838,0.008 0.105261,0.002 0.08527,-0.007 0.113605,-7.9e-4 0.07992,-0.003 0.118264,-1.7e-4 0.09733,-0.0105 0.09374,0.008 0.10936,-0.005 0.08867,-0.008 0.10707,-10e-4 0.09625,-0.002 0.110194,-2e-4 0.0952,0.001 0.112475,-0.022 0.08471,-10e-6 0.104863,0.003 0.09982,0.018 0.08359,6.5e-4 0.119665,-0.0101 0.09559,-0.0132 0.105936,0.0158 0.09931,0.003 0.09459,-6.4e-4 0.09849,0.001 0.09766,0.0138 0.102349,-0.004 0.09503,-0.002 0.100469,0.005 0.114665,-0.005 0.07334,-0.0164 0.107022,-0.006 0.10853,3e-5 0.08335,0.0183 0.117422,0.011 0.09988,-0.0204 0.09222,-0.013 0.121373,-0.0153 0.07628,-6.9e-4 0.119167,0.0132 0.08587,-0.001 0.09851,0.007 0.08891,-0.007 0.120472,0.0104 0.108002,0.006 0.09495,1.2e-4 0.08256,0.002 0.107797,0.0119 0.102981,-3.6e-4 0.09969,0.007 0.100364,0.001 0.0991,6e-5 0.102746,0.004 0.107391,-7.3e-4 0.102733,0.0126 0.09065,-4e-4 0.09566,4.8e-4 0.100141,0.003 0.09206,8.2e-4 0.106952,-4.7e-4 0.120959,-0.0109 0.07544,0.003 0.09961,0.006 0.116191,-0.008 0.08213,10e-4 0.105331,-0.002 0.105706,-0.005 0.08611,-0.008 0.123404,-0.007 0.09325,-0.008 0.09819,-0.004 0.08798,-0.006 0.0998,-0.004 0.111269,-0.0132 0.08572,-0.001 0.108435,-0.003 0.103103,0.002 0.0938,-0.004 0.102115,2.2e-4 0.103137,4.2e-4 0.09697,1.1e-4 0.108026,0.008 0.108356,0.0202 0.08322,-4.1e-4 0.10083,-0.008 0.08747,-0.017 0.103267,0.003 0.107655,6.9e-4 0.10481,-0.008 0.09559,2.5e-4 0.09303,-0.007 0.11001,-0.006 0.09458,0.007 0.108914,0.0236 0.09557,0.007 0.100299,10e-4 0.09226,0.002 0.120652,0.0182 0.07797,0.011 0.116502,-0.002 0.08222,-0.0174 0.107263,0.002 0.119326,-0.0181 0.0725,-0.0119 0.09564,-0.0163 0.09629,0.008 0.115853,-5e-5 0.111971,-0.001 0.08423,0.003 0.116561,0.0125 0.08292,-0.0109 0.09888,0.0138 0.100556,-0.002 0.08422,-0.009 0.123692,0.004 0.08975,0.011 0.100647,0.0154 0.08924,-0.006 0.115932,0.002 0.105918,4.2e-4 0.08828,-3e-4 0.112548,0.009 0.09093,2.4e-4 0.09261,0.0152 0.109325,0.001 0.100199,10e-4 0.08483,0.0129 0.127517,-0.005 0.08286,-0.003 0.09092,0.0168 0.103735,-0.009 0.102985,2e-5 0.09809,0.005 0.109459,0.002 0.08214,2.8e-4 0.104758,-0.004 0.100136,-0.005 0.110839,-2.9e-4 0.08021,-0.01 0.119144,5.6e-4 0.09709,-1.8e-4 0.102677,-6.6e-4 0.09517,-0.003 0.09499,-0.007 0.124353,0.0102 0.07767,0.01 0.103062,-0.005 0.09732,0.007 0.109491,-0.008 0.113582,0.0134 0.08128,0.013 0.116379,0.003 0.07014,-0.0153 0.114129,-0.002 0.09784,0.007 0.106775,-0.0154 0.0919,-10e-4 0.08748,0.0133 0.109992,0.0132 0.120013,-2.6e-4 0.08387,5.7e-4 0.09506,0.01 0.109775,9e-4 0.09177,0.005 0.09867,5.4e-4 0.111707,-0.0104 0.101309,-0.008 0.09197,-0.002 0.09982,-0.003 0.09124,-0.0161 0.124592,-0.0131 0.08441,-0.004 0.09756,0.004 0.101496,-3.9e-4 h 0.102344 l 0.09667,0.002 0.109177,-0.006 0.0872,0.003 0.103287,-8e-5 0.113506,-0.0189 0.106177,-0.0204 0.0809,-0.005 0.110005,-0.007 0.104863,0.009 0.08011,0.022 0.09001,-0.008 0.115163,0.002 0.09934,2.1e-4 0.105835,0.005 0.08022,0.0222 0.114743,-0.0124 0.09084,0.009 0.114791,-0.002 0.08406,-0.0183 0.113333,-0.005 0.09572,0.005 0.09634,8.8e-4 0.101519,3.3e-4 0.100299,-3.6e-4 0.09909,7e-4 0.100173,7.3e-4 0.100366,-5.3e-4 0.09904,-0.002 0.103309,-0.009 0.07923,0.009 0.12186,0.0102 0.104549,4.5e-4 0.09078,4.4e-4 0.09597,-0.0189 0.10634,0.005 0.101263,-5e-5 0.08769,0.007 0.123144,-0.001 0.08494,0.0119 0.107989,0.014 0.088,0.0156 0.103907,-0.002 0.117056,0.0207 0.09,-0.0128 0.08968,-0.001 0.09735,-0.009 h 0.102399 l 0.08904,0.007 0.109089,0.0148 0.08687,-0.0138 0.109613,-0.001 0.106088,8.1e-4 0.10116,-0.005 0.09915,-7e-5 0.116202,0.0194 0.08491,-0.0136 0.109352,0.007 0.08866,-1.9e-4 0.109733,0.006 0.107327,-0.007 0.08188,10e-6 0.09787,-1.7e-4 0.113683,-0.007 0.09185,-0.001 0.08898,-0.007 0.112347,3.7e-4 0.08242,-0.0165 0.11303,-10e-4 0.102922,0.009 0.09622,0.009 0.10893,0.0113 0.09117,4.7e-4 0.104616,-0.003 0.102187,-0.0109 0.09007,-0.017 0.123696,0.0128 0.08877,-0.0168 0.09228,10e-4 0.107449,-0.002 0.08606,-0.006 0.105988,0.002 0.100224,0.0107 0.09096,0.002 0.10699,8e-5 0.08686,0.007 0.111495,-4e-4 0.102589,-0.003 0.09615,0.005 0.100732,0.0131 0.106676,-0.0105 0.09362,-0.004 0.09958,-0.004 0.108003,0.003 0.09833,0.005 0.08255,-0.0115 0.130872,0.002 0.08705,-0.006 0.110488,0.0109 0.0954,-5.5e-4 0.09998,-10e-4 0.08324,0.0112 0.103803,0.008 0.09205,0.0108 0.09844,0.0116 0.09975,0.004 0.12055,0.003 0.09906,0.005 0.09036,-9.1e-4 0.101051,-0.005 0.09197,0.0139 0.09939,-0.006 0.108822,-0.004 0.09202,0.01 0.123023,0.0125 0.07792,0.007 0.10464,-0.003 0.117533,-0.002 0.07334,0.01 0.109766,-2.8e-4 0.0998,0.002 0.100704,-0.003 0.09147,0.003 0.108063,-0.004 0.09313,0.002 0.09396,-0.0191 0.09732,0.006 0.123673,0.008 0.09617,-0.007 0.100507,0.007 0.101757,-0.002 0.09305,-0.005 0.08996,-0.0177 0.102094,0.009 0.106422,-0.004 0.100702,-0.004 0.09715,-0.003 0.108902,0.005 0.08562,0.0157 0.107724,-0.009 0.09247,0.007 0.116363,-0.022 0.07535,-0.0212 0.09998,-0.005 0.09726,0.008 0.135347,-0.0285 0.09133,0.0165 0.0875,-0.0102"
       id="path868"
       inkscape:connector-curvature="0"
       inkscape:path-effect="#path-effect874"
       inkscape:original-d="M 12.887225,264.15994 H 54.335327"
       transform="matrix(1.0072313,0,0,1.0017015,-0.39290219,-0.44945022)" />
    <text
       xml:space="preserve"
       style="font-style:normal;font-variant:normal;font-weight:normal;font-stretch:normal;font-size:4.93080664px;line-height:1.25;font-family:'Trade Winds';-inkscape-font-specification:'Trade Winds';font-variant-ligatures:normal;font-variant-caps:normal;font-variant-numeric:normal;font-feature-settings:normal;text-align:center;letter-spacing:0px;word-spacing:0px;writing-mode:lr-tb;text-anchor:middle;fill:#000000;fill-opacity:1;stroke:none;stroke-width:0.26458332"
       x="120.30057"
       y="267.44824"
       id="text5685"><tspan
         sodipodi:role="line"
         id="tspan5683"
         x="120.30057"
         y="267.44824"
         style="font-size:4.93888903px;text-align:center;text-anchor:middle;stroke-width:0.26458332">Stuart and Tiare</tspan><tspan
         sodipodi:role="line"
         x="120.30057"
         y="273.62186"
         style="font-size:4.93888903px;text-align:center;text-anchor:middle;stroke-width:0.26458332"
         id="tspan5687">500 Wall St, Apt. 403</tspan><tspan
         sodipodi:role="line"
         x="120.30057"
         y="279.79547"
         style="font-size:4.93888903px;text-align:center;text-anchor:middle;stroke-width:0.26458332"
         id="tspan5689">Seattle, WA 98121</tspan></text>
    <text
       id="text5717"
       y="251.99367"
       x="93.196198"
       style="font-style:normal;font-variant:normal;font-weight:normal;font-stretch:normal;font-size:4.53664875px;line-height:1.25;font-family:'Trade Winds';-inkscape-font-specification:'Trade Winds';font-variant-ligatures:normal;font-variant-caps:normal;font-variant-numeric:normal;font-feature-settings:normal;text-align:start;letter-spacing:0px;word-spacing:0px;writing-mode:lr-tb;text-anchor:start;fill:#000000;fill-opacity:1;stroke:none;stroke-width:0.26458332"
       xml:space="preserve"><tspan
         style="font-size:4.23333311px;stroke-width:0.26458332"
         y="251.99367"
         x="93.196198"
         id="tspan5715"
         sodipodi:role="line">Kindly respond by June 12</tspan></text>
    <path
       style="opacity:1;fill:none;fill-opacity:1;stroke:#000000;stroke-width:0.99999994;stroke-miterlimit:4;stroke-dasharray:none;stroke-opacity:1"
       d="m 88.13,185.87498 0.04256,1.06095 -0.08017,0.95359 -0.0427,1.05031 0.01456,0.94964 -0.01267,0.99851 -0.04564,1.01022 0.04733,1.04818 -0.06867,0.95247 -9.37e-4,0.97043 -0.01638,1.01115 0.01255,0.98578 -0.0043,1.00409 -0.01719,1.05125 -0.03518,1.02105 -0.03511,0.9278 -0.01398,0.98198 0.0054,1.01364 0.0053,1.003 0.05908,1.00084 -0.0024,0.96689 0.009,1.02546 -0.0034,0.99776 -0.01414,1.01141 0.0022,0.99351 0.0026,0.99185 -0.01898,0.95842 0.02425,1.0779 0.0088,1.02228 0.03448,0.98396 0.0027,0.96315 -0.008,0.95127 -0.04899,1.06277 -0.02303,0.96208 -0.01574,1.00762 0.03255,1.01019 0.01649,0.97978 -0.05481,1.05072 0.0045,0.96645 0.01661,0.992 0.05951,1.01009 -0.0282,1.03778 0.02009,0.97495 0.07047,1.06485 0.06764,0.85218 0.03344,1.15939 0.01596,0.88025 0.0012,1.03254 -0.004,0.97549 -2.13e-4,1.01876 -7.3e-4,1.01252 0.0092,0.99568 0.04979,0.98087 -0.03374,1.0159 -0.0077,1.06446 0.0011,0.92605 0.05698,1.04722 0.02906,0.92039 -0.05596,1.04963 0.0029,0.98547 -0.03151,0.99057 -0.0051,1.00095 -0.03822,0.94333 0.05997,1.08912 0.02099,0.99119 -0.08052,0.91676 0.07417,1.11711 0.08164,0.97318 0.01773,1.03135 0.04368,0.89966 -0.0089,1.03458 0.0381,0.999 -0.09102,0.97264 -0.0042,0.99894 0.0099,1.05084 -0.01753,0.98068 0.01543,0.96384 -0.0075,1.1175 -0.03751,0.89333 0.03597,1.00277 -0.0047,1.02038 0.02442,1.05276 -0.100613,0.98565 0.02309,0.9123 -0.04276,1.09747 0.01334,0.93244 -0.01795,1.0164 0.03645,1.00618 0.03136,0.91374 -0.0047,1.06108 -0.09647,1.04992 0.0013,0.93295 -0.0026,1.00928 -0.0098,1.03425 -0.08495,1.02436 0.01345,0.97407 -0.05761,0.95664 0.0152,1.03079 0.0026,0.92134 0.01146,1.07913 -0.03779,0.99601 -0.01553,1.01942 0.04686,0.96892 -0.03504,0.9951 0.01288,1.00737 -0.0078,0.97425 0.05927,1.03878 0.03488,1.00137 0.124112,0.99433"
       id="path5719"
       inkscape:connector-curvature="0"
       inkscape:path-effect="#path-effect1172"
       inkscape:original-d="m 88.13,185.87498 v 107.95" />
    <text
       xml:space="preserve"
       style="font-style:normal;font-variant:normal;font-weight:normal;font-stretch:normal;font-size:14.11111069px;line-height:1.25;font-family:'Trade Winds';-inkscape-font-specification:'Trade Winds';font-variant-ligatures:normal;font-variant-caps:normal;font-variant-numeric:normal;font-feature-settings:normal;text-align:start;letter-spacing:0px;word-spacing:0px;writing-mode:lr-tb;text-anchor:start;fill:#000000;fill-opacity:1;stroke:none;stroke-width:0.26458332"
       x="18.575233"
       y="207.46469"
       id="text4545"><tspan
         sodipodi:role="line"
         id="tspan4543"
         x="18.575233"
         y="218.89203"
         style="stroke-width:0.26458332" /></text>
    <text
       xml:space="preserve"
       style="font-style:normal;font-variant:normal;font-weight:normal;font-stretch:normal;font-size:15.24121857px;line-height:1.25;font-family:'Trade Winds';-inkscape-font-specification:'Trade Winds';font-variant-ligatures:normal;font-variant-caps:normal;font-variant-numeric:normal;font-feature-settings:normal;text-align:start;letter-spacing:0px;word-spacing:0px;writing-mode:lr-tb;text-anchor:start;fill:#000000;fill-opacity:1;stroke:none;stroke-width:0.26458332"
       x="100.48044"
       y="244.38313"
       id="text4573"><tspan
         sodipodi:role="line"
         id="tspan4571"
         x="100.48044"
         y="244.38313"
         style="stroke-width:0.26458332">RSVP</tspan></text>
    <text
       xml:space="preserve"
       style="font-style:normal;font-variant:normal;font-weight:normal;font-stretch:normal;font-size:4.23333311px;line-height:1.25;font-family:'Trade Winds';-inkscape-font-specification:'Trade Winds';font-variant-ligatures:normal;font-variant-caps:normal;font-variant-numeric:normal;font-feature-settings:normal;text-align:start;letter-spacing:0px;word-spacing:0px;writing-mode:lr-tb;text-anchor:start;fill:#000000;fill-opacity:1;stroke:none;stroke-width:0.26458332"
       x="5.3082242"
       y="190.07698"
       id="text5677"><tspan
         sodipodi:role="line"
         id="tspan5675"
         x="5.3082242"
         y="190.07698"
         style="font-size:4.23333311px;stroke-width:0.26458332">Our names: </tspan></text>
    <path
       style="opacity:1;fill:none;fill-opacity:1;stroke:#000000;stroke-width:0.5;stroke-miterlimit:4;stroke-dasharray:none;stroke-opacity:1"
       d="M 6.2150002,192.27235 H 81.914997 v 15.375 H 6.2150002 Z"
       id="rect4593" />
    <text
       id="text4661"
       y="272.77341"
       x="5.3082242"
       style="font-style:normal;font-variant:normal;font-weight:normal;font-stretch:normal;font-size:4.23333311px;line-height:1.25;font-family:'Trade Winds';-inkscape-font-specification:'Trade Winds';font-variant-ligatures:normal;font-variant-caps:normal;font-variant-numeric:normal;font-feature-settings:normal;text-align:start;letter-spacing:0px;word-spacing:0px;writing-mode:lr-tb;text-anchor:start;fill:#000000;fill-opacity:1;stroke:none;stroke-width:0.26458332"
       xml:space="preserve"><tspan
         style="font-size:4.23333311px;stroke-width:0.26458332"
         y="272.77341"
         x="5.3082242"
         id="tspan4659"
         sodipodi:role="line">Dietary needs and/or song requests: </tspan></text>
    <path
       style="opacity:1;fill:none;fill-opacity:1;stroke:#000000;stroke-width:0.5;stroke-miterlimit:4;stroke-dasharray:none;stroke-opacity:1"
       d="M 6.2150002,275.27023 H 81.914997 v 15.375 H 6.2150002 Z"
       id="rect4663" />
    <path
       style="opacity:1;fill:none;fill-opacity:1;stroke:#000000;stroke-width:0.5;stroke-miterlimit:4;stroke-dasharray:none;stroke-opacity:1"
       d="m 8.300024,213.53685 h 5.858631 v 5.85863 H 8.300024 Z"
       id="rect4547" />
    <text
       xml:space="preserve"
       style="font-style:normal;font-variant:normal;font-weight:normal;font-stretch:normal;font-size:5.39704514px;line-height:1.25;font-family:'Trade Winds';-inkscape-font-specification:'Trade Winds';font-variant-ligatures:normal;font-variant-caps:normal;font-variant-numeric:normal;font-feature-settings:normal;text-align:start;letter-spacing:0px;word-spacing:0px;writing-mode:lr-tb;text-anchor:start;fill:#000000;fill-opacity:1;stroke:none;stroke-width:0.26458332"
       x="18.224915"
       y="218.2661"
       id="text4551"><tspan
         sodipodi:role="line"
         id="tspan4549"
         x="18.224915"
         y="218.2661"
         style="font-size:5.34105539px;stroke-width:0.26458332">Expect us</tspan></text>
    <path
       style="opacity:1;fill:none;fill-opacity:1;stroke:#000000;stroke-width:0.5;stroke-miterlimit:4;stroke-dasharray:none;stroke-opacity:1"
       d="m 8.300024,222.0343 h 5.858631 v 5.85863 H 8.300024 Z"
       id="rect4575" />
    <text
       id="text4579"
       y="227.08836"
       x="18.011065"
       style="font-style:normal;font-variant:normal;font-weight:normal;font-stretch:normal;font-size:5.39704514px;line-height:1.25;font-family:'Trade Winds';-inkscape-font-specification:'Trade Winds';font-variant-ligatures:normal;font-variant-caps:normal;font-variant-numeric:normal;font-feature-settings:normal;text-align:start;letter-spacing:0px;word-spacing:0px;writing-mode:lr-tb;text-anchor:start;fill:#000000;fill-opacity:1;stroke:none;stroke-width:0.26458332"
       xml:space="preserve"><tspan
         style="font-size:5.34105539px;stroke-width:0.26458332"
         y="227.08836"
         x="18.011065"
         id="tspan4577"
         sodipodi:role="line">We'll be there in spirit</tspan></text>
    <path
       style="opacity:1;fill:#ffffff;fill-opacity:1;stroke:none;stroke-width:0.20000002;stroke-miterlimit:4;stroke-dasharray:none;stroke-opacity:1"
       d="m 20.282592,263.80505 2.254548,0.18197 -0.695232,0.61369 -0.701121,0.0634 z"
       id="rect870"
       inkscape:connector-curvature="0"
       sodipodi:nodetypes="ccccc" />
    <text
       xml:space="preserve"
       style="font-style:normal;font-variant:normal;font-weight:normal;font-stretch:normal;font-size:4.23333311px;line-height:1.25;font-family:'Trade Winds';-inkscape-font-specification:'Trade Winds';font-variant-ligatures:normal;font-variant-caps:normal;font-variant-numeric:normal;font-feature-settings:normal;text-align:start;letter-spacing:0px;word-spacing:0px;writing-mode:lr-tb;text-anchor:start;fill:#000000;fill-opacity:1;stroke:none;stroke-width:0.26458332"
       x="5.1818013"
       y="236.69585"
       id="text4612"><tspan
         sodipodi:role="line"
         id="tspan4610"
         x="5.1818013"
         y="236.69585"
         style="font-size:4.23333311px;stroke-width:0.26458332">We'll be staying at:</tspan></text>
    <text
       id="text5693"
       y="244.09689"
       x="16.776743"
       style="font-style:normal;font-variant:normal;font-weight:normal;font-stretch:normal;font-size:5.36166906px;line-height:1.25;font-family:'Trade Winds';-inkscape-font-specification:'Trade Winds';font-variant-ligatures:normal;font-variant-caps:normal;font-variant-numeric:normal;font-feature-settings:normal;text-align:start;letter-spacing:0px;word-spacing:0px;writing-mode:lr-tb;text-anchor:start;fill:#000000;fill-opacity:1;stroke:none;stroke-width:0.26458332"
       xml:space="preserve"
       transform="scale(0.99897904,1.001022)"><tspan
         style="font-size:4.93888903px;stroke-width:0.26458332"
         y="244.09689"
         x="16.776743"
         sodipodi:role="line"
         id="tspan5695">Moxy</tspan><tspan
         style="font-size:4.93888903px;stroke-width:0.26458332"
         y="250.79898"
         x="16.776743"
         sodipodi:role="line"
         id="tspan4618">The Westin</tspan><tspan
         style="font-size:4.93888903px;stroke-width:0.26458332"
         y="257.50104"
         x="16.776743"
         sodipodi:role="line"
         id="tspan5701">Elsewhere:</tspan></text>
    <path
       style="opacity:1;fill:none;fill-opacity:1;stroke:#000000;stroke-width:0.49999997;stroke-miterlimit:4;stroke-dasharray:none;stroke-opacity:1"
       d="m 8.8204651,240.37573 h 4.5799999 v 4.58 H 8.8204651 Z"
       id="rect4547-3" />
    <path
       style="opacity:1;fill:none;fill-opacity:1;stroke:#000000;stroke-width:0.5;stroke-miterlimit:4;stroke-dasharray:none;stroke-opacity:1"
       d="M 46.864591,258.50643 H 79.559532"
       id="path4669"
       inkscape:connector-curvature="0" />
    <path
       style="opacity:1;fill:none;fill-opacity:1;stroke:#000000;stroke-width:0.49999997;stroke-miterlimit:4;stroke-dasharray:none;stroke-opacity:1"
       d="m 8.8204651,246.994 h 4.5799999 v 4.58 H 8.8204651 Z"
       id="rect4687" />
    <path
       style="opacity:1;fill:none;fill-opacity:1;stroke:#000000;stroke-width:0.49999997;stroke-miterlimit:4;stroke-dasharray:none;stroke-opacity:1"
       d="m 8.8204651,253.61226 h 4.5799999 v 4.58 H 8.8204651 Z"
       id="rect4689" />
    <path
       style="opacity:1;fill:#ffffff;fill-opacity:1;stroke:none;stroke-width:0.20000002;stroke-miterlimit:4;stroke-dasharray:none;stroke-opacity:1"
       d="m 33.459797,263.80786 2.226559,0.24728 -0.763648,0.53905 -0.604716,0.0727 z"
       id="rect870-4"
       inkscape:connector-curvature="0"
       sodipodi:nodetypes="ccccc" />
    <text
       xml:space="preserve"
       style="font-style:normal;font-variant:normal;font-weight:normal;font-stretch:normal;font-size:3.26873255px;line-height:1.25;font-family:'Trade Winds';-inkscape-font-specification:'Trade Winds';font-variant-ligatures:normal;font-variant-caps:normal;font-variant-numeric:normal;font-feature-settings:normal;text-align:start;letter-spacing:0px;word-spacing:0px;writing-mode:lr-tb;text-anchor:start;fill:#000000;fill-opacity:1;stroke:none;stroke-width:0.26458332"
       x="5.6618586"
       y="263.73041"
       id="text4616"><tspan
         sodipodi:role="line"
         id="tspan4614"
         x="5.6618586"
         y="263.73041"
         style="font-size:3.17499995px;stroke-width:0.26458332">(see stuartandtiare.com/hotels for booking info)</tspan></text>
  </g>
  <g
     inkscape:groupmode="layer"
     id="layer3"
     inkscape:label="guides"
     style="display:none;opacity:0.1"
     sodipodi:insensitive="true">
    <rect
       transform="translate(0,-182.69998)"
       style="opacity:1;fill:none;fill-opacity:1;stroke:#000000;stroke-width:0.52916664;stroke-miterlimit:4;stroke-dasharray:none;stroke-opacity:1"
       id="rect4671"
       width="50.799999"
       height="31.75"
       x="95.147949"
       y="189.29036" />
    <rect
       transform="translate(0,-182.69998)"
       style="opacity:1;fill:none;fill-opacity:1;stroke:#000000;stroke-width:0.49999997;stroke-miterlimit:4;stroke-dasharray:none;stroke-opacity:1"
       id="rect4675"
       width="146.05"
       height="107.95"
       x="3.1749985"
       y="185.87498" />
    <rect
       y="4.7624993"
       x="4.7624998"
       height="104.775"
       width="142.875"
       id="rect4681"
       style="opacity:1;fill:none;fill-opacity:1;stroke:#000000;stroke-width:0.49999997;stroke-miterlimit:4;stroke-dasharray:none;stroke-opacity:1" />
  </g>
</svg>
