<?xml version="1.0" encoding="UTF-8" standalone="no"?>
<!-- Created with Inkscape (http://www.inkscape.org/) -->

<svg
   xmlns:dc="http://purl.org/dc/elements/1.1/"
   xmlns:cc="http://creativecommons.org/ns#"
   xmlns:rdf="http://www.w3.org/1999/02/22-rdf-syntax-ns#"
   xmlns:svg="http://www.w3.org/2000/svg"
   xmlns="http://www.w3.org/2000/svg"
   xmlns:sodipodi="http://sodipodi.sourceforge.net/DTD/sodipodi-0.dtd"
   xmlns:inkscape="http://www.inkscape.org/namespaces/inkscape"
   width="6in"
   height="4.5in"
   viewBox="0 0 152.4 114.3"
   version="1.1"
   id="svg8"
   inkscape:version="0.92.4 5da689c313, 2019-01-14"
   sodipodi:docname="wedding-rsvp.svg">
  <defs
     id="defs2">
    <inkscape:path-effect
       effect="roughen"
       id="path-effect1189"
       is_visible="true"
       method="size"
       max_segment_size="1"
       segments="2"
       displace_x="0.1;1"
       displace_y="0.1;1"
       global_randomize="1;3102517725"
       handles="along"
       shift_nodes="true"
       fixed_displacement="false"
       spray_tool_friendly="false" />
    <inkscape:path-effect
       effect="roughen"
       id="path-effect1186"
       is_visible="true"
       method="size"
       max_segment_size="1"
       segments="2"
       displace_x="0.1;1"
       displace_y="0.1;1"
       global_randomize="1;3461071083"
       handles="along"
       shift_nodes="true"
       fixed_displacement="false"
       spray_tool_friendly="false" />
    <inkscape:path-effect
       effect="roughen"
       id="path-effect1183"
       is_visible="true"
       method="size"
       max_segment_size="1"
       segments="2"
       displace_x="0.1;1"
       displace_y="0.1;1"
       global_randomize="1;1"
       handles="along"
       shift_nodes="true"
       fixed_displacement="false"
       spray_tool_friendly="false" />
    <inkscape:path-effect
       effect="roughen"
       id="path-effect1180"
       is_visible="true"
       method="size"
       max_segment_size="1"
       segments="2"
       displace_x="0.1;1"
       displace_y="0.1;1"
       global_randomize="1;1"
       handles="along"
       shift_nodes="true"
       fixed_displacement="false"
       spray_tool_friendly="false" />
    <inkscape:path-effect
       effect="roughen"
       id="path-effect1177"
       is_visible="true"
       method="size"
       max_segment_size="1"
       segments="2"
       displace_x="0.1;1"
       displace_y="0.1;1"
       global_randomize="1;3094631454"
       handles="along"
       shift_nodes="true"
       fixed_displacement="false"
       spray_tool_friendly="false" />
    <inkscape:path-effect
       effect="roughen"
       id="path-effect1174"
       is_visible="true"
       method="size"
       max_segment_size="1"
       segments="2"
       displace_x="0.1;1"
       displace_y="0.1;1"
       global_randomize="1;328966585"
       handles="along"
       shift_nodes="true"
       fixed_displacement="false"
       spray_tool_friendly="false" />
    <inkscape:path-effect
       effect="roughen"
       id="path-effect1172"
       is_visible="true"
       method="size"
       max_segment_size="1"
       segments="2"
       displace_x="0.1;1"
       displace_y="0.1;1"
       global_randomize="1;1"
       handles="along"
       shift_nodes="true"
       fixed_displacement="false"
       spray_tool_friendly="false" />
    <inkscape:path-effect
       effect="roughen"
       id="path-effect1170"
       is_visible="true"
       method="size"
       max_segment_size="1"
       segments="2"
       displace_x="0.1;1"
       displace_y="0.1;1"
       global_randomize="1;2168086311"
       handles="along"
       shift_nodes="true"
       fixed_displacement="false"
       spray_tool_friendly="false" />
    <inkscape:path-effect
       effect="roughen"
       id="path-effect1167"
       is_visible="true"
       method="size"
       max_segment_size="1"
       segments="2"
       displace_x="0.1;1314223932"
       displace_y="0.1;1884803063"
       global_randomize="1;1037770540"
       handles="along"
       shift_nodes="true"
       fixed_displacement="false"
       spray_tool_friendly="false" />
  </defs>
  <sodipodi:namedview
     id="base"
     pagecolor="#ffffff"
     bordercolor="#666666"
     borderopacity="1.0"
     inkscape:pageopacity="0.0"
     inkscape:pageshadow="2"
     inkscape:zoom="1.3293607"
     inkscape:cx="288.24387"
     inkscape:cy="281.37739"
     inkscape:document-units="mm"
     inkscape:current-layer="layer1"
     showgrid="false"
     units="in"
     inkscape:window-width="1680"
     inkscape:window-height="986"
     inkscape:window-x="0"
     inkscape:window-y="27"
     inkscape:window-maximized="1"
     showguides="true"
     inkscape:guide-bbox="true" />
  <metadata
     id="metadata5">
    <rdf:RDF>
      <cc:Work
         rdf:about="">
        <dc:format>image/svg+xml</dc:format>
        <dc:type
           rdf:resource="http://purl.org/dc/dcmitype/StillImage" />
        <dc:title />
      </cc:Work>
    </rdf:RDF>
  </metadata>
  <g
     inkscape:label="Layer 1"
     inkscape:groupmode="layer"
     id="layer1"
     transform="translate(0,-182.69998)">
    <text
       xml:space="preserve"
       style="font-style:normal;font-variant:normal;font-weight:normal;font-stretch:normal;font-size:4.93080664px;line-height:1.25;font-family:'Trade Winds';-inkscape-font-specification:'Trade Winds';font-variant-ligatures:normal;font-variant-caps:normal;font-variant-numeric:normal;font-feature-settings:normal;text-align:center;letter-spacing:0px;word-spacing:0px;writing-mode:lr-tb;text-anchor:middle;fill:#000000;fill-opacity:1;stroke:none;stroke-width:0.26458332"
       x="120.30057"
       y="267.44824"
       id="text5685"><tspan
         sodipodi:role="line"
         id="tspan5683"
         x="120.30057"
         y="267.44824"
         style="font-size:4.93888903px;text-align:center;text-anchor:middle;stroke-width:0.26458332">Stuart and Tiare</tspan><tspan
         sodipodi:role="line"
         x="120.30057"
         y="273.62186"
         style="font-size:4.93888903px;text-align:center;text-anchor:middle;stroke-width:0.26458332"
         id="tspan5687">500 Wall St, Apt. 403</tspan><tspan
         sodipodi:role="line"
         x="120.30057"
         y="279.79547"
         style="font-size:4.93888903px;text-align:center;text-anchor:middle;stroke-width:0.26458332"
         id="tspan5689">Seattle, WA 98121</tspan></text>
    <text
       id="text5717"
       y="251.99367"
       x="93.196198"
       style="font-style:normal;font-variant:normal;font-weight:normal;font-stretch:normal;font-size:4.53664875px;line-height:1.25;font-family:'Trade Winds';-inkscape-font-specification:'Trade Winds';font-variant-ligatures:normal;font-variant-caps:normal;font-variant-numeric:normal;font-feature-settings:normal;text-align:start;letter-spacing:0px;word-spacing:0px;writing-mode:lr-tb;text-anchor:start;fill:#000000;fill-opacity:1;stroke:none;stroke-width:0.26458332"
       xml:space="preserve"><tspan
         style="font-size:4.23333311px;stroke-width:0.26458332"
         y="251.99367"
         x="93.196198"
         id="tspan5715"
         sodipodi:role="line">Kindly respond by June 12</tspan></text>
    <path
       style="opacity:1;fill:none;fill-opacity:1;stroke:#000000;stroke-width:0.99999994;stroke-miterlimit:4;stroke-dasharray:none;stroke-opacity:1"
       d="m 88.13,185.87498 0.04256,1.06095 -0.08017,0.95359 -0.0427,1.05031 0.01456,0.94964 -0.01267,0.99851 -0.04564,1.01022 0.04733,1.04818 -0.06867,0.95247 -9.37e-4,0.97043 -0.01638,1.01115 0.01255,0.98578 -0.0043,1.00409 -0.01719,1.05125 -0.03518,1.02105 -0.03511,0.9278 -0.01398,0.98198 0.0054,1.01364 0.0053,1.003 0.05908,1.00084 -0.0024,0.96689 0.009,1.02546 -0.0034,0.99776 -0.01414,1.01141 0.0022,0.99351 0.0026,0.99185 -0.01898,0.95842 0.02425,1.0779 0.0088,1.02228 0.03448,0.98396 0.0027,0.96315 -0.008,0.95127 -0.04899,1.06277 -0.02303,0.96208 -0.01574,1.00762 0.03255,1.01019 0.01649,0.97978 -0.05481,1.05072 0.0045,0.96645 0.01661,0.992 0.05951,1.01009 -0.0282,1.03778 0.02009,0.97495 0.07047,1.06485 0.06764,0.85218 0.03344,1.15939 0.01596,0.88025 0.0012,1.03254 -0.004,0.97549 -2.13e-4,1.01876 -7.3e-4,1.01252 0.0092,0.99568 0.04979,0.98087 -0.03374,1.0159 -0.0077,1.06446 0.0011,0.92605 0.05698,1.04722 0.02906,0.92039 -0.05596,1.04963 0.0029,0.98547 -0.03151,0.99057 -0.0051,1.00095 -0.03822,0.94333 0.05997,1.08912 0.02099,0.99119 -0.08052,0.91676 0.07417,1.11711 0.08164,0.97318 0.01773,1.03135 0.04368,0.89966 -0.0089,1.03458 0.0381,0.999 -0.09102,0.97264 -0.0042,0.99894 0.0099,1.05084 -0.01753,0.98068 0.01543,0.96384 -0.0075,1.1175 -0.03751,0.89333 0.03597,1.00277 -0.0047,1.02038 0.02442,1.05276 -0.100613,0.98565 0.02309,0.9123 -0.04276,1.09747 0.01334,0.93244 -0.01795,1.0164 0.03645,1.00618 0.03136,0.91374 -0.0047,1.06108 -0.09647,1.04992 0.0013,0.93295 -0.0026,1.00928 -0.0098,1.03425 -0.08495,1.02436 0.01345,0.97407 -0.05761,0.95664 0.0152,1.03079 0.0026,0.92134 0.01146,1.07913 -0.03779,0.99601 -0.01553,1.01942 0.04686,0.96892 -0.03504,0.9951 0.01288,1.00737 -0.0078,0.97425 0.05927,1.03878 0.03488,1.00137 0.124112,0.99433"
       id="path5719"
       inkscape:connector-curvature="0"
       inkscape:path-effect="#path-effect1172"
       inkscape:original-d="m 88.13,185.87498 v 107.95" />
    <text
       xml:space="preserve"
       style="font-style:normal;font-variant:normal;font-weight:normal;font-stretch:normal;font-size:14.11111069px;line-height:1.25;font-family:'Trade Winds';-inkscape-font-specification:'Trade Winds';font-variant-ligatures:normal;font-variant-caps:normal;font-variant-numeric:normal;font-feature-settings:normal;text-align:start;letter-spacing:0px;word-spacing:0px;writing-mode:lr-tb;text-anchor:start;fill:#000000;fill-opacity:1;stroke:none;stroke-width:0.26458332"
       x="18.575233"
       y="207.46469"
       id="text4545"><tspan
         sodipodi:role="line"
         id="tspan4543"
         x="18.575233"
         y="218.89203"
         style="stroke-width:0.26458332" /></text>
    <text
       xml:space="preserve"
       style="font-style:normal;font-variant:normal;font-weight:normal;font-stretch:normal;font-size:15.24121857px;line-height:1.25;font-family:'Trade Winds';-inkscape-font-specification:'Trade Winds';font-variant-ligatures:normal;font-variant-caps:normal;font-variant-numeric:normal;font-feature-settings:normal;text-align:start;letter-spacing:0px;word-spacing:0px;writing-mode:lr-tb;text-anchor:start;fill:#000000;fill-opacity:1;stroke:none;stroke-width:0.26458332"
       x="100.48044"
       y="244.38313"
       id="text4573"><tspan
         sodipodi:role="line"
         id="tspan4571"
         x="100.48044"
         y="244.38313"
         style="stroke-width:0.26458332">RSVP</tspan></text>
    <text
       xml:space="preserve"
       style="font-style:normal;font-variant:normal;font-weight:normal;font-stretch:normal;font-size:4.23333311px;line-height:1.25;font-family:'Trade Winds';-inkscape-font-specification:'Trade Winds';font-variant-ligatures:normal;font-variant-caps:normal;font-variant-numeric:normal;font-feature-settings:normal;text-align:start;letter-spacing:0px;word-spacing:0px;writing-mode:lr-tb;text-anchor:start;fill:#000000;fill-opacity:1;stroke:none;stroke-width:0.26458332"
       x="5.3082242"
       y="190.07698"
       id="text5677"><tspan
         sodipodi:role="line"
         id="tspan5675"
         x="5.3082242"
         y="190.07698"
         style="font-size:4.23333311px;stroke-width:0.26458332">Our names: </tspan></text>
    <path
       style="opacity:1;fill:none;fill-opacity:1;stroke:#000000;stroke-width:0.5;stroke-miterlimit:4;stroke-dasharray:none;stroke-opacity:1"
       d="m 6.1833992,192.27235 1.0411256,0.0108 0.9658783,3.2e-4 1.0009539,0.0112 1.010747,0.0269 0.969467,0.002 0.980529,0.006 1.039477,0.0904 0.987771,0.009 0.961104,-0.0446 1.034941,0.0818 0.997955,-0.005 0.994273,-9e-5 0.99661,0.01 0.96452,0.0406 1.004183,0.024 0.956379,-0.0442 1.059364,-0.0593 0.99623,0.004 1.022207,0.0343 0.918504,-0.006 1.063411,-0.0803 0.971446,-0.045 0.962834,0.005 1.033237,0.0528 1.046983,-0.0643 0.895447,-0.0808 1.053115,0.0466 1.029453,0.0168 0.990527,0.002 0.984982,0.0739 0.949141,-0.0133 1.013719,-8.9e-4 0.999171,-0.0166 0.940201,-0.0136 1.058176,-0.0243 1.001948,-0.006 0.970164,0.0139 1.024671,-0.0541 0.998755,-0.0332 0.990666,-0.006 0.943266,0.03 1.043134,0.0211 1.002701,0.0151 0.996278,-0.0307 0.990566,0.0156 1.022594,-0.007 1.006225,0.0181 0.943114,-0.01 1.01636,-0.003 0.989636,0.004 1.064709,0.0932 0.983639,-0.0103 0.922115,0.0138 0.967383,0.0164 1.066958,-0.006 0.977319,0.0274 1.0092,-0.0255 0.973586,0.0521 1.005173,0.0184 0.94932,-0.0541 0.994023,-0.0548 1.033564,-0.0618 1.005254,0.009 0.999755,0.0253 0.964896,-0.014 1.03921,0.0233 0.988247,0.0143 1.030347,0.0352 0.953862,-0.0408 0.953834,-0.0553 1.080667,-0.006 0.922155,-0.005 0.991435,-0.0164 1.063943,0.005 0.901323,-0.0193 1.076085,-0.005 -0.05239,1.00712 -0.05659,0.84459 0.03015,1.02025 0.02839,0.97753 0.02322,0.99457 -0.0065,0.93447 0.0045,0.95097 -0.02119,0.9876 0.0098,0.91928 -0.0095,0.95261 0.01532,1.00083 0.0058,0.92692 0.03744,0.98111 -0.02988,1.04659 0.03903,0.88266 -0.05219,0.95161 -1.024771,0.0107 -0.977154,0.0723 -0.948248,0.0644 -1.049865,-0.0127 -0.962123,-0.009 -1.015357,-0.0139 -0.995752,-0.0416 -1.015128,-0.006 -0.982942,0.007 -0.978944,-0.002 -1.017499,-0.0519 -0.98692,-0.002 -0.992017,-0.0186 -0.992829,-0.004 -1.065919,0.06 -0.898545,-0.008 -1.049509,-0.0425 -0.940988,4.1e-4 -0.973075,0.0312 -1.065607,0.007 -0.975492,-0.02 -1.001846,-0.0156 -0.976801,0.007 -0.959695,0.0418 -1.049711,-0.0205 -0.998384,0.003 -1.003073,0.0846 -0.991719,-0.0301 -1.043571,-0.006 -0.952115,0.0469 -0.939073,-0.0282 -1.062128,-0.003 -0.988125,-0.002 -1.017337,-0.004 -0.985735,-0.001 -1.024352,0.0786 -0.947042,-0.0488 -1.015425,-0.009 -0.952205,-0.0507 -1.048584,-0.0465 -0.951613,0.0512 -1.023891,-0.0323 -1.019212,-1.8e-4 -0.981124,-0.0279 -0.934726,0.0443 -1.020225,0.0228 -0.952628,0.0632 -1.060599,7.7e-4 -1.012283,0.0326 -0.945541,-0.0325 -1.018191,-0.001 -0.993215,0.0113 -0.9977,0.013 -0.987764,0.0488 -1.005986,-0.0584 -0.949801,-0.003 -1.030433,-0.0319 -1.02293,0.0468 -0.919466,0.0322 -1.073074,-0.01 -1.013213,-0.0111 -0.943386,-0.0245 -1.018264,-0.009 -1.002372,0.003 -0.980286,-0.0136 -1.015072,0.017 -1.002075,-0.0528 -0.940659,-0.0551 -1.068641,-0.0219 -0.885077,-0.0123 -1.046714,-0.014 -1.019912,-0.0493 -1.0686565,0.0154 -0.9278218,0.0135 -0.9683245,-0.0439 -1.0228024,0.0592 0.012817,-0.96153 0.01711,-0.95294 -0.041,-1.01756 0.00597,-0.95192 0.053942,-0.89231 0.021403,-0.97835 0.012247,-0.91327 -3.436e-4,-0.96668 0.026414,-1.0367 0.021557,-0.9338 -0.030104,-0.95069 -0.023763,-0.92121 0.00465,-0.9597 -0.020449,-0.99033 -0.014776,-0.99542 z"
       id="rect4593"
       inkscape:path-effect="#path-effect1167"
       inkscape:original-d="M 6.2150002,192.27235 H 81.914997 v 15.375 H 6.2150002 Z" />
    <text
       id="text4661"
       y="272.77341"
       x="5.3082242"
       style="font-style:normal;font-variant:normal;font-weight:normal;font-stretch:normal;font-size:4.23333311px;line-height:1.25;font-family:'Trade Winds';-inkscape-font-specification:'Trade Winds';font-variant-ligatures:normal;font-variant-caps:normal;font-variant-numeric:normal;font-feature-settings:normal;text-align:start;letter-spacing:0px;word-spacing:0px;writing-mode:lr-tb;text-anchor:start;fill:#000000;fill-opacity:1;stroke:none;stroke-width:0.26458332"
       xml:space="preserve"><tspan
         style="font-size:4.23333311px;stroke-width:0.26458332"
         y="272.77341"
         x="5.3082242"
         id="tspan4659"
         sodipodi:role="line">Dietary needs and/or song requests: </tspan></text>
    <path
       style="opacity:1;fill:none;fill-opacity:1;stroke:#000000;stroke-width:0.5;stroke-miterlimit:4;stroke-dasharray:none;stroke-opacity:1"
       d="m 6.2033486,275.26491 1.0301285,0.009 0.9596544,0.0783 0.9687266,0.0171 1.0399849,-0.001 0.956259,0.034 1.002022,0.05 1.065612,0.007 0.928739,0.0687 1.002241,-0.0282 1.007481,0.0166 1.056526,-0.059 0.920201,0.0297 0.987806,-0.001 0.980692,0.0106 1.014673,0.0639 1.01805,-0.0167 1.013394,-0.0118 0.993619,5.4e-4 0.994788,0.0516 0.965604,-0.009 1.035658,-0.0204 0.9832,-0.007 0.995969,0.006 0.99552,-0.004 1.031865,-0.0325 0.88776,-0.0518 1.089725,0.007 1.052783,0.0263 0.940113,0.0112 0.977399,-0.003 0.944554,-0.0175 1.039837,0.0357 0.999829,-0.0122 0.997275,-0.0118 1.005866,-0.0405 0.998458,-0.007 0.947325,0.0615 1.037734,-0.007 0.992511,-0.007 1.028418,-0.0936 0.955936,-0.004 1.003736,0.003 1.008164,-1.6e-4 0.994269,-0.0123 1.043684,-0.002 0.958502,-0.0126 0.977401,-0.003 0.967337,-0.0129 1.022238,-0.003 0.975163,0.005 1.028932,0.01 0.983445,-0.0441 0.976844,0.0428 0.950709,-0.004 1.066743,-0.0101 0.995293,0.0136 1.020748,-0.0318 0.94933,0.0505 1.043953,0.0261 0.955691,-0.0416 0.993415,-0.0176 0.966871,-0.0229 1.066195,0.0563 0.973411,-6.5e-4 0.978452,-0.0374 1.009945,0.0146 1.004304,0.056 1.034146,-0.008 0.977514,-0.0531 0.961169,-0.0151 1.011013,-0.0602 0.980394,-0.0587 0.940546,-0.0165 1.072616,0.0321 0.970604,-0.008 1.081134,-0.0253 -0.09823,0.97969 -0.05555,0.88455 0.02898,0.98936 0.0055,1.00441 0.05639,0.99538 -0.0051,0.99514 0.06612,0.86002 -0.03352,1.0235 0.06289,0.88422 -0.09467,0.93703 0.04472,1.13598 0.04387,0.87775 0.01,0.95786 -0.04244,1.0477 0.0091,0.89015 -0.147785,0.92001 -1.016838,0.0222 -0.975739,0.0535 -0.987235,0.003 -1.004542,-0.0341 -0.989752,-8.7e-4 -1.075368,-0.006 -0.917043,-2e-5 -1.003439,-0.0534 -0.994316,0.0302 -0.972814,-0.0189 -1.05361,-0.077 -0.953047,-0.003 -1.012705,-0.02 -0.972918,-0.007 -0.998982,0.0101 -0.9682,-0.0948 -1.021978,-0.0141 -0.991292,0.0139 -0.972081,0.0451 -1.034901,0.0145 -0.939546,-0.0219 -1.039016,-0.0126 -0.958137,0.0475 -1.012806,0.008 -1.000949,-0.005 -1.010644,0.008 -1.041392,0.0267 -0.952925,-0.007 -0.998771,-0.0136 -0.987182,0.005 -0.981688,-0.0148 -1.006737,-0.0143 -0.995497,-0.022 -1.004689,-0.008 -0.989174,0.0743 -1.010301,0.0375 -1.008673,-0.0233 -0.996648,-0.032 -0.871695,-0.0772 -1.09191,-0.01 -0.916472,0.0646 -1.089715,-0.0126 -0.991123,0.0139 -1.04019,-0.0737 -0.922325,0.0109 -0.960091,0.0297 -1.029066,0.0108 -1.015256,0.0718 -1.052853,0.0532 -0.921915,-0.001 -0.939576,0.0154 -1.050338,0.027 -0.995455,0.001 -0.940049,0.0546 -1.013888,-0.0458 -0.976009,0.0527 -1.044451,-0.0138 -1.00407,0.002 -0.972222,-5.2e-4 -1.044978,0.0301 -0.966271,-0.003 -0.976584,-0.0299 -1.020229,0.0202 -0.991185,-7.9e-4 -0.937632,-0.0341 -1.079274,0.0135 -0.970495,-0.004 -0.969658,-0.0481 -1.040594,-0.0271 -0.960929,-0.0107 -0.995161,-0.0609 -0.988201,0.0189 -1.0362707,0.009 -1.0011151,-0.0113 -0.9429586,0.0119 -1.0245928,0.0367 0.00237,-0.96763 0.00544,-0.93443 -0.00133,-0.97638 4.412e-4,-0.94748 0.013581,-0.91554 0.00336,-0.99828 0.016301,-0.94734 0.054865,-0.876 -0.010868,-1.0482 0.031635,-0.98651 -0.03541,-0.95061 -0.037858,-0.9291 -0.00625,-0.95495 -0.00563,-0.97234 -0.00988,-0.94326 z"
       id="rect4663"
       inkscape:path-effect="#path-effect1170"
       inkscape:original-d="M 6.2150002,275.27023 H 81.914997 v 15.375 H 6.2150002 Z" />
    <path
       style="opacity:1;fill:none;fill-opacity:1;stroke:#000000;stroke-width:0.5;stroke-miterlimit:4;stroke-dasharray:none;stroke-opacity:1"
       d="m 8.2981701,213.53822 1.0007167,0.002 0.9400422,0.0776 0.950277,-0.002 1.020448,-0.027 0.935962,0.009 0.981606,-0.009 0.04314,0.97735 -0.03178,1.02962 -0.01898,0.87207 0.0011,1.01242 0.06701,0.89257 -0.05632,1.05514 -1.007574,-0.003 -0.987273,0.008 -0.953474,0.0587 -0.952133,-0.0433 -0.9532041,-0.0335 -0.9736633,-0.0146 0.0021,-0.92113 -0.02949,-1.03673 0.017289,-0.98888 7.943e-4,-0.96374 0.00138,-0.96498 z"
       id="rect4547"
       inkscape:path-effect="#path-effect1177"
       inkscape:original-d="m 8.300024,213.53685 h 5.858631 v 5.85863 H 8.300024 Z" />
    <text
       xml:space="preserve"
       style="font-style:normal;font-variant:normal;font-weight:normal;font-stretch:normal;font-size:5.39704514px;line-height:1.25;font-family:'Trade Winds';-inkscape-font-specification:'Trade Winds';font-variant-ligatures:normal;font-variant-caps:normal;font-variant-numeric:normal;font-feature-settings:normal;text-align:start;letter-spacing:0px;word-spacing:0px;writing-mode:lr-tb;text-anchor:start;fill:#000000;fill-opacity:1;stroke:none;stroke-width:0.26458332"
       x="18.224915"
       y="218.2661"
       id="text4551"><tspan
         sodipodi:role="line"
         id="tspan4549"
         x="18.224915"
         y="218.2661"
         style="font-size:5.34105539px;stroke-width:0.26458332">Expect us</tspan></text>
    <path
       style="opacity:1;fill:none;fill-opacity:1;stroke:#000000;stroke-width:0.5;stroke-miterlimit:4;stroke-dasharray:none;stroke-opacity:1"
       d="m 8.2999324,222.03487 1.0190853,0.0608 0.8547133,0.004 1.013343,0.049 1.035416,-0.0229 0.948592,-0.03 0.941186,-0.0352 0.05387,1.0466 -0.07078,0.92521 0.01314,0.9432 -0.0011,0.98363 0.03642,0.95847 0.009,0.97623 -0.994265,0.0522 -0.994023,0.0634 -0.977892,-0.0264 -0.954142,-0.045 -0.9550033,-0.024 -0.9749276,-0.0191 0.055936,-0.97371 -0.016217,-1.00962 -0.00351,-0.95061 -0.018309,-0.97846 -0.026466,-0.96464 z"
       id="rect4575"
       inkscape:path-effect="#path-effect1180"
       inkscape:original-d="m 8.300024,222.0343 h 5.858631 v 5.85863 H 8.300024 Z" />
    <text
       id="text4579"
       y="227.08836"
       x="18.011065"
       style="font-style:normal;font-variant:normal;font-weight:normal;font-stretch:normal;font-size:5.39704514px;line-height:1.25;font-family:'Trade Winds';-inkscape-font-specification:'Trade Winds';font-variant-ligatures:normal;font-variant-caps:normal;font-variant-numeric:normal;font-feature-settings:normal;text-align:start;letter-spacing:0px;word-spacing:0px;writing-mode:lr-tb;text-anchor:start;fill:#000000;fill-opacity:1;stroke:none;stroke-width:0.26458332"
       xml:space="preserve"><tspan
         style="font-size:5.34105539px;stroke-width:0.26458332"
         y="227.08836"
         x="18.011065"
         id="tspan4577"
         sodipodi:role="line">We'll be there in spirit</tspan></text>
    <text
       xml:space="preserve"
       style="font-style:normal;font-variant:normal;font-weight:normal;font-stretch:normal;font-size:3.26873255px;line-height:1.25;font-family:'Trade Winds';-inkscape-font-specification:'Trade Winds';font-variant-ligatures:normal;font-variant-caps:normal;font-variant-numeric:normal;font-feature-settings:normal;text-align:start;letter-spacing:0px;word-spacing:0px;writing-mode:lr-tb;text-anchor:start;fill:#000000;fill-opacity:1;stroke:none;stroke-width:0.26458332"
       x="5.6618586"
       y="263.73041"
       id="text4616"><tspan
         sodipodi:role="line"
         id="tspan4614"
         x="5.6618586"
         y="263.73041"
         style="font-size:3.17499995px;stroke-width:0.26458332">(see stuartandtiare.com/hotels for booking info)</tspan></text>
    <text
       xml:space="preserve"
       style="font-style:normal;font-variant:normal;font-weight:normal;font-stretch:normal;font-size:4.23333311px;line-height:1.25;font-family:'Trade Winds';-inkscape-font-specification:'Trade Winds';font-variant-ligatures:normal;font-variant-caps:normal;font-variant-numeric:normal;font-feature-settings:normal;text-align:start;letter-spacing:0px;word-spacing:0px;writing-mode:lr-tb;text-anchor:start;fill:#000000;fill-opacity:1;stroke:none;stroke-width:0.26458332"
       x="5.1818013"
       y="236.69585"
       id="text4612"><tspan
         sodipodi:role="line"
         id="tspan4610"
         x="5.1818013"
         y="236.69585"
         style="font-size:4.23333311px;stroke-width:0.26458332">We'll be staying at:</tspan></text>
    <text
       id="text5693"
       y="244.09689"
       x="16.776743"
       style="font-style:normal;font-variant:normal;font-weight:normal;font-stretch:normal;font-size:5.36166906px;line-height:1.25;font-family:'Trade Winds';-inkscape-font-specification:'Trade Winds';font-variant-ligatures:normal;font-variant-caps:normal;font-variant-numeric:normal;font-feature-settings:normal;text-align:start;letter-spacing:0px;word-spacing:0px;writing-mode:lr-tb;text-anchor:start;fill:#000000;fill-opacity:1;stroke:none;stroke-width:0.26458332"
       xml:space="preserve"
       transform="scale(0.99897904,1.001022)"><tspan
         style="font-size:4.93888903px;stroke-width:0.26458332"
         y="244.09689"
         x="16.776743"
         sodipodi:role="line"
         id="tspan5695">Moxy</tspan><tspan
         style="font-size:4.93888903px;stroke-width:0.26458332"
         y="250.79898"
         x="16.776743"
         sodipodi:role="line"
         id="tspan4618">The Westin</tspan><tspan
         style="font-size:4.93888903px;stroke-width:0.26458332"
         y="257.50104"
         x="16.776743"
         sodipodi:role="line"
         id="tspan5701">Elsewhere:</tspan></text>
    <path
       style="opacity:1;fill:none;fill-opacity:1;stroke:#000000;stroke-width:0.49999997;stroke-miterlimit:4;stroke-dasharray:none;stroke-opacity:1"
       d="m 8.815979,240.34638 0.9630413,0.0908 0.7944357,6.2e-4 0.952846,0.0444 0.974949,-0.0383 0.885924,-0.0529 -0.04373,0.93889 0.0601,0.96204 -0.07034,0.86544 0.03081,0.88485 0.01859,0.92338 -0.901527,-0.006 -0.929163,-3.5e-4 -0.925391,0.0512 -0.9313083,0.0467 -0.9118976,-0.0995 -0.00915,-0.9322 0.013952,-0.90251 0.013308,-0.91283 0.065885,-0.91499 z"
       id="rect4547-3"
       inkscape:path-effect="#path-effect1183"
       inkscape:original-d="m 8.8204651,240.37573 h 4.5799999 v 4.58 H 8.8204651 Z" />
    <path
       style="opacity:1;fill:none;fill-opacity:1;stroke:#000000;stroke-width:0.5;stroke-miterlimit:4;stroke-dasharray:none;stroke-opacity:1"
       d="m 46.864591,258.50643 1.038917,0.039 0.934183,0.0522 0.953073,0.0576 1.04795,-0.002 0.9413,-0.002 0.961476,0.059 1.061193,0.0233 0.897631,0.0587 1.062234,-0.0295 0.987681,0.01 1.026308,-0.0643 0.957248,0.006 0.968161,-0.006 0.984476,0.0188 1.031288,-0.0116 0.994457,-0.0282 1.004992,-0.0194 0.989035,-0.007 1.010222,0.009 0.93803,-0.0138 1.035462,-0.0132 0.971157,-0.0122 0.985252,-0.006 0.996643,-0.0107 1.017996,-0.0181 0.89763,-0.0902 1.083677,0.0138 0.979514,0.007 0.979361,0.0225 0.98875,-0.0101 0.937937,-0.0627 0.987487,0.048 1.01972,-0.0204"
       id="path4669"
       inkscape:connector-curvature="0"
       inkscape:path-effect="#path-effect1174"
       inkscape:original-d="M 46.864591,258.50643 H 79.559532" />
    <path
       style="opacity:1;fill:none;fill-opacity:1;stroke:#000000;stroke-width:0.49999997;stroke-miterlimit:4;stroke-dasharray:none;stroke-opacity:1"
       d="m 8.7922669,246.99067 0.9666225,0.007 0.8796046,0.0774 0.890157,-0.009 0.959663,-0.0367 0.874859,1.1e-4 -0.02398,0.96082 0.05256,0.86703 -0.02658,0.97025 -0.0068,0.81354 0.02997,0.95314 -0.865337,-0.0592 -0.989492,0.0426 -0.921577,0.001 -0.9289455,0.0119 -0.8950491,0.0513 -0.00455,-0.94136 0.015598,-0.92498 0.011187,-0.91739 0.00793,-0.87833 z"
       id="rect4687"
       inkscape:path-effect="#path-effect1186"
       inkscape:original-d="m 8.8204651,246.994 h 4.5799999 v 4.58 H 8.8204651 Z" />
    <path
       style="opacity:1;fill:none;fill-opacity:1;stroke:#000000;stroke-width:0.49999997;stroke-miterlimit:4;stroke-dasharray:none;stroke-opacity:1"
       d="m 8.7922669,253.60893 0.9666225,0.007 0.8796046,0.0774 0.890157,-0.009 0.959663,-0.0367 0.874859,1.1e-4 -0.02398,0.96082 0.05256,0.86703 -0.02658,0.97025 -0.0068,0.81354 0.02997,0.95314 -0.865337,-0.0592 -0.989492,0.0426 -0.921577,10e-4 -0.9289455,0.012 -0.8950491,0.0513 -0.00455,-0.94136 0.015598,-0.92498 0.011187,-0.91739 0.00793,-0.87833 z"
       id="rect4689"
       inkscape:path-effect="#path-effect1189"
       inkscape:original-d="m 8.8204651,253.61226 h 4.5799999 v 4.58 H 8.8204651 Z" />
  </g>
  <g
     inkscape:groupmode="layer"
     id="layer3"
     inkscape:label="guides"
     style="display:none;opacity:0.1"
     sodipodi:insensitive="true">
    <rect
       transform="translate(0,-182.69998)"
       style="opacity:1;fill:none;fill-opacity:1;stroke:#000000;stroke-width:0.52916664;stroke-miterlimit:4;stroke-dasharray:none;stroke-opacity:1"
       id="rect4671"
       width="50.799999"
       height="31.75"
       x="95.147949"
       y="189.29036" />
    <rect
       transform="translate(0,-182.69998)"
       style="opacity:1;fill:none;fill-opacity:1;stroke:#000000;stroke-width:0.49999997;stroke-miterlimit:4;stroke-dasharray:none;stroke-opacity:1"
       id="rect4675"
       width="146.05"
       height="107.95"
       x="3.1749985"
       y="185.87498" />
    <rect
       y="4.7624993"
       x="4.7624998"
       height="104.775"
       width="142.875"
       id="rect4681"
       style="opacity:1;fill:none;fill-opacity:1;stroke:#000000;stroke-width:0.49999997;stroke-miterlimit:4;stroke-dasharray:none;stroke-opacity:1" />
  </g>
</svg>
